<svg width="146" height="112" viewBox="0 0 146 112" fill="none" xmlns="http://www.w3.org/2000/svg">
<circle cx="72.636" cy="55.2993" r="54.5" fill="url(#paint0_linear_5888_11059)"/>
<circle cx="72.636" cy="55.2993" r="42" stroke="url(#paint1_linear_5888_11059)" stroke-width="3"/>
<mask id="mask0_5888_11059" style="mask-type:luminance" maskUnits="userSpaceOnUse" x="0" y="71" width="36" height="24">
<path d="M35.2287 94.7661H0L6.50874 83.1471L0 71.5272H20.9452C22.0476 75.1544 23.5233 78.6238 25.3238 81.8835H11.9298L35.227 94.7645L35.2287 94.7661Z" fill="white"/>
</mask>
<g mask="url(#mask0_5888_11059)">
<path d="M35.2287 94.7661H0L6.50874 83.1471L0 71.5272H20.9452C22.0476 75.1544 23.5233 78.6238 25.3238 81.8835H11.9298L35.227 94.7645L35.2287 94.7661Z" fill="url(#paint2_linear_5888_11059)"/>
</g>
<mask id="mask1_5888_11059" style="mask-type:luminance" maskUnits="userSpaceOnUse" x="11" y="81" width="25" height="14">
<path d="M35.2262 94.7642L11.929 81.8832H25.3229C27.9669 86.6687 31.3129 91.0071 35.2262 94.7642Z" fill="white"/>
</mask>
<g mask="url(#mask1_5888_11059)">
<rect x="11.2847" y="81.0903" width="24.5156" height="14.3213" fill="#191919"/>
</g>
<mask id="mask2_5888_11059" style="mask-type:luminance" maskUnits="userSpaceOnUse" x="110" y="71" width="36" height="24">
<path d="M145.271 94.7661H110.041L133.342 81.8835H119.946C121.746 78.6238 123.222 75.1544 124.325 71.5272H145.271L138.763 83.1471L145.271 94.7661Z" fill="white"/>
</mask>
<g mask="url(#mask2_5888_11059)">
<path d="M145.271 94.7661H110.041L133.342 81.8835H119.946C121.746 78.6238 123.222 75.1544 124.325 71.5272H145.271L138.763 83.1471L145.271 94.7661Z" fill="url(#paint3_linear_5888_11059)"/>
</g>
<mask id="mask3_5888_11059" style="mask-type:luminance" maskUnits="userSpaceOnUse" x="110" y="81" width="24" height="14">
<path d="M110.04 94.7661C113.954 91.0082 117.301 86.6691 119.945 81.8835H133.341L110.04 94.7661Z" fill="white"/>
</mask>
<g mask="url(#mask3_5888_11059)">
<rect x="109.528" y="81.0898" width="24.5156" height="14.3213" fill="#191919"/>
</g>
<mask id="mask4_5888_11059" style="mask-type:luminance" maskUnits="userSpaceOnUse" x="11" y="55" width="123" height="27">
<path d="M133.34 81.8833H11.929V55.7991H133.34V81.8833Z" fill="white"/>
</mask>
<g mask="url(#mask4_5888_11059)">
<path d="M133.34 81.8833H11.929V55.7991H133.34V81.8833Z" fill="url(#paint4_linear_5888_11059)"/>
</g>
<path d="M123.712 64.8936C124.501 64.8936 125.075 65.065 125.435 65.408C125.801 65.7453 125.984 66.2112 125.984 66.8057C125.984 67.1658 125.91 67.5002 125.761 67.8089C125.613 68.1176 125.364 68.3662 125.015 68.5549C124.672 68.7435 124.203 68.8378 123.609 68.8378H123.052V71.0158H121.757V64.8936H123.712ZM123.643 65.9568H123.052V67.7746H123.48C123.846 67.7746 124.135 67.7031 124.346 67.5602C124.564 67.4116 124.672 67.1744 124.672 66.8486C124.672 66.254 124.329 65.9568 123.643 65.9568Z" fill="white"/>
<path d="M120.483 71.0158H116.958V64.8936H120.483V65.9568H118.253V67.303H120.328V68.3662H118.253V69.944H120.483V71.0158Z" fill="white"/>
<path d="M116.188 71.0158H114.713L112.492 67.9118V71.0158H111.198V64.8936H112.492V67.8603L114.687 64.8936H116.068L113.838 67.8346L116.188 71.0158Z" fill="white"/>
<path d="M109.93 67.9462C109.93 68.5807 109.825 69.1352 109.613 69.6096C109.407 70.0784 109.087 70.4442 108.653 70.7072C108.224 70.9701 107.678 71.1016 107.015 71.1016C106.352 71.1016 105.803 70.9701 105.369 70.7072C104.94 70.4442 104.62 70.0755 104.408 69.6011C104.203 69.1266 104.1 68.5721 104.1 67.9376C104.1 67.3031 104.203 66.7515 104.408 66.2827C104.62 65.814 104.94 65.451 105.369 65.1937C105.803 64.9308 106.355 64.7993 107.024 64.7993C107.687 64.7993 108.233 64.9308 108.661 65.1937C109.09 65.451 109.407 65.8168 109.613 66.2913C109.825 66.76 109.93 67.3117 109.93 67.9462ZM105.463 67.9462C105.463 68.5864 105.586 69.0923 105.832 69.4639C106.077 69.8297 106.472 70.0126 107.015 70.0126C107.569 70.0126 107.967 69.8297 108.207 69.4639C108.447 69.0923 108.567 68.5864 108.567 67.9462C108.567 67.3059 108.447 66.8029 108.207 66.4371C107.967 66.0655 107.572 65.8797 107.024 65.8797C106.475 65.8797 106.077 66.0655 105.832 66.4371C105.586 66.8029 105.463 67.3059 105.463 67.9462Z" fill="white"/>
<path d="M100.944 64.8936C101.732 64.8936 102.307 65.065 102.667 65.408C103.033 65.7453 103.216 66.2112 103.216 66.8057C103.216 67.1658 103.141 67.5002 102.993 67.8089C102.844 68.1176 102.596 68.3662 102.247 68.5549C101.904 68.7435 101.435 68.8378 100.841 68.8378H100.283V71.0158H98.9885V64.8936H100.944ZM100.875 65.9568H100.283V67.7746H100.712C101.078 67.7746 101.367 67.7031 101.578 67.5602C101.795 67.4116 101.904 67.1744 101.904 66.8486C101.904 66.254 101.561 65.9568 100.875 65.9568Z" fill="white"/>
<path d="M93.5217 71.0158V64.8936H97.3888V65.9654H94.8165V67.243H95.331C95.9083 67.243 96.3799 67.323 96.7458 67.4831C97.1173 67.6431 97.3917 67.8632 97.5689 68.1433C97.7461 68.4234 97.8347 68.7435 97.8347 69.1037C97.8347 69.7096 97.6318 70.1812 97.2259 70.5185C96.8258 70.85 96.1855 71.0158 95.3052 71.0158H93.5217ZM94.8165 69.9525H95.2538C95.6482 69.9525 95.9569 69.8897 96.1798 69.7639C96.4085 69.6381 96.5228 69.4181 96.5228 69.1037C96.5228 68.7778 96.3999 68.5635 96.1541 68.4606C95.9083 68.3577 95.5739 68.3062 95.1509 68.3062H94.8165V69.9525Z" fill="white"/>
<path d="M90.1638 71.0158H88.8691V68.3748H86.4425V71.0158H85.1477V64.8936H86.4425V67.2944H88.8691V64.8936H90.1638V71.0158Z" fill="white"/>
<path d="M82.9741 71.0156L82.5282 69.5579H80.2989L79.853 71.0156H78.4553L80.6161 64.8677H82.2024L84.3718 71.0156H82.9741ZM82.2195 68.469L81.7737 67.0456C81.7451 66.9484 81.7079 66.8255 81.6622 66.6769C81.6165 66.5283 81.5707 66.3768 81.525 66.2225C81.4793 66.0681 81.4421 65.9338 81.4135 65.8194C81.385 65.9338 81.3449 66.0767 81.2935 66.2482C81.2478 66.414 81.202 66.574 81.1563 66.7284C81.1163 66.877 81.0849 66.9827 81.062 67.0456L80.6247 68.469H82.2195Z" fill="white"/>
<path d="M76.2257 64.8936C77.0146 64.8936 77.5891 65.065 77.9492 65.408C78.3151 65.7453 78.498 66.2112 78.498 66.8057C78.498 67.1658 78.4237 67.5002 78.2751 67.8089C78.1264 68.1176 77.8778 68.3662 77.5291 68.5549C77.1861 68.7435 76.7174 68.8378 76.1228 68.8378H75.5655V71.0158H74.2708V64.8936H76.2257ZM76.1572 65.9568H75.5655V67.7746H75.9942C76.3601 67.7746 76.6488 67.7031 76.8603 67.5602C77.0775 67.4116 77.1861 67.1744 77.1861 66.8486C77.1861 66.254 76.8431 65.9568 76.1572 65.9568Z" fill="white"/>
<path d="M67.2111 64.8936H68.3772V67.8518C68.3772 67.9947 68.3743 68.1547 68.3686 68.3319C68.3629 68.5092 68.3572 68.6835 68.3515 68.855C68.3458 69.0208 68.34 69.1665 68.3343 69.2923C68.3286 69.4123 68.3229 69.4952 68.3172 69.541H68.3429L71.1725 64.8936H72.7245V71.0158H71.5669V68.0747C71.5669 67.9204 71.5698 67.7517 71.5755 67.5688C71.5812 67.3802 71.5869 67.2001 71.5926 67.0286C71.6041 66.8571 71.6127 66.7085 71.6184 66.5827C71.6298 66.4513 71.6384 66.3655 71.6441 66.3255H71.6098L68.7716 71.0158H67.2111V64.8936Z" fill="white"/>
<path d="M66.2665 69.9868V72.7993H65.0146V71.0158H60.5129V64.8936H61.8077V69.9354H64.0628V64.8936H65.3576V69.9868H66.2665Z" fill="white"/>
<path d="M53.4543 64.8936H54.6205V67.8518C54.6205 67.9947 54.6176 68.1547 54.6119 68.3319C54.6062 68.5092 54.6005 68.6835 54.5948 68.855C54.589 69.0208 54.5833 69.1665 54.5776 69.2923C54.5719 69.4123 54.5662 69.4952 54.5605 69.541H54.5862L57.4158 64.8936H58.9678V71.0158H57.8102V68.0747C57.8102 67.9204 57.8131 67.7517 57.8188 67.5688C57.8245 67.3802 57.8302 67.2001 57.8359 67.0286C57.8474 66.8571 57.8559 66.7085 57.8617 66.5827C57.8731 66.4513 57.8817 66.3655 57.8874 66.3255H57.8531L55.0149 71.0158H53.4543V64.8936Z" fill="white"/>
<path d="M49.5749 64.8076V65.5622C50.238 65.5793 50.7697 65.6965 51.1698 65.9137C51.57 66.1252 51.8558 66.3996 52.0273 66.7369C52.2045 67.0742 52.2931 67.4429 52.2931 67.843C52.2931 68.1002 52.2473 68.3632 52.1559 68.6319C52.0701 68.9005 51.9215 69.1492 51.71 69.3778C51.5042 69.6008 51.227 69.7837 50.8783 69.9266C50.5296 70.0695 50.0951 70.1467 49.5749 70.1581V71.1013H48.4088V70.1581C47.8829 70.1467 47.4427 70.0695 47.0883 69.9266C46.7396 69.7837 46.4624 69.5979 46.2566 69.3693C46.0508 69.1406 45.905 68.8948 45.8193 68.6319C45.7335 68.3632 45.6907 68.1002 45.6907 67.843C45.6907 67.4429 45.7764 67.0742 45.9479 66.7369C46.1251 66.3996 46.4109 66.1252 46.8054 65.9137C47.2055 65.6965 47.74 65.5793 48.4088 65.5622V64.8076H49.5749ZM48.4088 66.574C47.8486 66.5968 47.457 66.7255 47.2341 66.9598C47.0169 67.1942 46.9083 67.4857 46.9083 67.8344C46.9083 68.2174 47.0254 68.529 47.2598 68.7691C47.4999 69.0034 47.8829 69.132 48.4088 69.1549V66.574ZM49.5749 66.574V69.1549C50.1008 69.132 50.481 69.0034 50.7154 68.7691C50.9554 68.529 51.0755 68.2174 51.0755 67.8344C51.0755 67.4857 50.964 67.1942 50.7411 66.9598C50.5239 66.7255 50.1351 66.5968 49.5749 66.574Z" fill="white"/>
<path d="M39.0178 64.8936H40.184V67.8518C40.184 67.9947 40.1811 68.1547 40.1754 68.3319C40.1697 68.5092 40.164 68.6835 40.1582 68.855C40.1525 69.0208 40.1468 69.1665 40.1411 69.2923C40.1354 69.4123 40.1297 69.4952 40.1239 69.541H40.1497L42.9793 64.8936H44.5313V71.0158H43.3737V68.0747C43.3737 67.9204 43.3765 67.7517 43.3823 67.5688C43.388 67.3802 43.3937 67.2001 43.3994 67.0286C43.4108 66.8571 43.4194 66.7085 43.4251 66.5827C43.4366 66.4513 43.4451 66.3655 43.4509 66.3255H43.4166L40.5784 71.0158H39.0178V64.8936Z" fill="white"/>
<path d="M36.4107 71.0158H35.116V65.9739H33.4525V64.8936H38.0742V65.9739H36.4107V71.0158Z" fill="white"/>
<path d="M30.6222 64.8936C31.4111 64.8936 31.9856 65.065 32.3457 65.408C32.7116 65.7453 32.8945 66.2112 32.8945 66.8057C32.8945 67.1658 32.8202 67.5002 32.6715 67.8089C32.5229 68.1176 32.2743 68.3662 31.9256 68.5549C31.5826 68.7435 31.1138 68.8378 30.5193 68.8378H29.962V71.0158H28.6672V64.8936H30.6222ZM30.5536 65.9568H29.962V67.7746H30.3907C30.7566 67.7746 31.0452 67.7031 31.2567 67.5602C31.474 67.4116 31.5826 67.1744 31.5826 66.8486C31.5826 66.254 31.2396 65.9568 30.5536 65.9568Z" fill="white"/>
<path d="M27.3945 71.0158H23.8704V64.8936H27.3945V65.9568H25.1651V67.303H27.2402V68.3662H25.1651V69.944H27.3945V71.0158Z" fill="white"/>
<path d="M21.0085 65.888C20.5111 65.888 20.131 66.0738 19.868 66.4454C19.6051 66.8169 19.4736 67.3257 19.4736 67.9716C19.4736 68.6233 19.5937 69.1292 19.8337 69.4893C20.0795 69.8437 20.4711 70.0209 21.0085 70.0209C21.2543 70.0209 21.5029 69.9924 21.7544 69.9352C22.006 69.878 22.2775 69.798 22.569 69.6951V70.7841C22.3004 70.8927 22.0345 70.9727 21.7716 71.0242C21.5086 71.0756 21.2142 71.1013 20.8884 71.1013C20.2539 71.1013 19.7337 70.9727 19.3278 70.7155C18.922 70.4525 18.6219 70.0867 18.4275 69.6179C18.2332 69.1435 18.136 68.5918 18.136 67.963C18.136 67.3457 18.2475 66.7998 18.4704 66.3253C18.6933 65.8509 19.0163 65.4793 19.4393 65.2106C19.868 64.942 20.3911 64.8076 21.0085 64.8076C21.3114 64.8076 21.6144 64.8476 21.9174 64.9277C22.226 65.002 22.5204 65.1049 22.8005 65.2363L22.3804 66.291C22.1517 66.1824 21.9202 66.0881 21.6858 66.0081C21.4572 65.928 21.2314 65.888 21.0085 65.888Z" fill="white"/>
<path d="M65.4049 84.975C65.4776 84.7408 65.7944 84.7408 65.8671 84.975L66.2907 86.3388C66.3232 86.4436 66.4165 86.5145 66.5218 86.5145H67.8925C68.1279 86.5145 68.2258 86.8296 68.0354 86.9744L66.9264 87.8173C66.8412 87.882 66.8056 87.9968 66.8381 88.1015L67.2617 89.4654C67.3345 89.6996 67.0782 89.8944 66.8878 89.7496L65.7788 88.9067C65.6937 88.842 65.5783 88.842 65.4932 88.9067L64.3842 89.7496C64.1938 89.8944 63.9375 89.6996 64.0103 89.4654L64.4338 88.1015C64.4664 87.9968 64.4307 87.882 64.3456 87.8173L63.2366 86.9744C63.0462 86.8296 63.1441 86.5145 63.3795 86.5145H64.7502C64.8555 86.5145 64.9488 86.4436 64.9813 86.3388L65.4049 84.975Z" fill="url(#paint5_linear_5888_11059)"/>
<path d="M80.4049 84.975C80.4776 84.7408 80.7944 84.7408 80.8671 84.975L81.2907 86.3388C81.3232 86.4436 81.4165 86.5145 81.5218 86.5145H82.8925C83.1279 86.5145 83.2258 86.8296 83.0354 86.9744L81.9264 87.8173C81.8412 87.882 81.8056 87.9968 81.8381 88.1015L82.2617 89.4654C82.3345 89.6996 82.0782 89.8944 81.8878 89.7496L80.7788 88.9067C80.6937 88.842 80.5783 88.842 80.4932 88.9067L79.3842 89.7496C79.1938 89.8944 78.9375 89.6996 79.0103 89.4654L79.4338 88.1015C79.4664 87.9968 79.4307 87.882 79.3456 87.8173L78.2366 86.9744C78.0462 86.8296 78.1441 86.5145 78.3795 86.5145H79.7502C79.8555 86.5145 79.9488 86.4436 79.9813 86.3388L80.4049 84.975Z" fill="url(#paint6_linear_5888_11059)"/>
<path d="M72.8587 86.0101C72.9459 85.7291 73.326 85.7291 73.4133 86.0101L73.9216 87.6467C73.9607 87.7724 74.0726 87.8575 74.1989 87.8575H75.8438C76.1263 87.8575 76.2438 88.2357 76.0152 88.4094L74.6845 89.4209C74.5823 89.4986 74.5395 89.6363 74.5786 89.762L75.0869 91.3986C75.1741 91.6797 74.8667 91.9134 74.6381 91.7397L73.3074 90.7282C73.2052 90.6505 73.0668 90.6505 72.9646 90.7282L71.6339 91.7397C71.4053 91.9134 71.0978 91.6797 71.1851 91.3986L71.6934 89.762C71.7325 89.6363 71.6897 89.4986 71.5875 89.4209L70.2567 88.4094C70.0282 88.2357 70.1457 87.8575 70.4281 87.8575H72.073C72.1994 87.8575 72.3113 87.7724 72.3504 87.6467L72.8587 86.0101Z" fill="url(#paint7_linear_5888_11059)"/>
<path d="M118.283 51.0666L119.564 50.9554L119.362 48.6344L119.964 48.5822L123.643 50.7228L123.69 51.2593L120.223 51.5601L120.285 52.2827L119.683 52.3349L119.621 51.6123L118.34 51.7235L118.283 51.0666ZM120.166 50.9032L122.578 50.6939L120.02 49.2281L120.166 50.9032Z" fill="#36500D"/>
<path d="M118.627 48.1483L118.003 48.2597L117.379 44.7654C117.535 44.7326 117.69 44.7311 117.844 44.7606C118.098 44.8071 118.357 44.907 118.623 45.0606C118.889 45.2165 119.206 45.4525 119.575 45.7687C120.149 46.2591 120.591 46.5808 120.901 46.7339C121.214 46.8864 121.493 46.9408 121.738 46.8971C121.995 46.8511 122.195 46.7199 122.337 46.5035C122.483 46.289 122.529 46.0339 122.476 45.7382C122.42 45.4257 122.282 45.1924 122.061 45.0384C121.84 44.8843 121.563 44.8357 121.231 44.8926L121.181 44.2132C121.686 44.17 122.096 44.2743 122.409 44.5261C122.724 44.7774 122.926 45.1543 123.016 45.6567C123.107 46.164 123.038 46.5906 122.809 46.9365C122.581 47.2824 122.258 47.4925 121.843 47.5668C121.631 47.6045 121.415 47.5984 121.195 47.5483C120.976 47.4983 120.735 47.3924 120.473 47.2308C120.211 47.0716 119.842 46.7941 119.364 46.3981C118.968 46.067 118.701 45.8567 118.563 45.7671C118.428 45.6771 118.295 45.6066 118.164 45.5555L118.627 48.1483Z" fill="#36500D"/>
<path d="M118.874 40.117C119.486 39.9494 119.996 39.8772 120.402 39.9002C120.812 39.9249 121.151 40.0332 121.422 40.2251C121.692 40.4194 121.879 40.705 121.983 41.0819C122.059 41.3598 122.069 41.6191 122.013 41.8596C121.96 42.0996 121.846 42.3169 121.671 42.5115C121.499 42.7054 121.271 42.8829 120.989 43.0437C120.709 43.204 120.312 43.3543 119.798 43.4948C119.19 43.6611 118.682 43.733 118.274 43.7106C117.867 43.6876 117.527 43.5793 117.254 43.3857C116.984 43.1938 116.797 42.9082 116.693 42.529C116.557 42.0296 116.628 41.5884 116.908 41.2054C117.246 40.746 117.901 40.3831 118.874 40.117ZM119.053 40.7706C118.203 41.0033 117.663 41.2572 117.435 41.5324C117.209 41.8093 117.136 42.0938 117.216 42.3859C117.296 42.678 117.504 42.8843 117.841 43.0048C118.179 43.1277 118.771 43.0731 119.619 42.8411C120.472 42.6079 121.011 42.3528 121.237 42.0758C121.463 41.8013 121.535 41.5156 121.454 41.2188C121.374 40.9267 121.187 40.7274 120.892 40.6207C120.516 40.488 119.903 40.538 119.053 40.7706Z" fill="#36500D"/>
<path d="M116.692 39.9208L116.099 40.1427L114.856 36.8179C115.003 36.7577 115.155 36.7283 115.311 36.7296C115.57 36.7296 115.843 36.7812 116.132 36.8844C116.422 36.9898 116.776 37.1648 117.196 37.4094C117.849 37.7885 118.342 38.0253 118.674 38.12C119.009 38.2138 119.293 38.2171 119.527 38.1299C119.771 38.0384 119.944 37.8733 120.045 37.6348C120.15 37.3976 120.149 37.1384 120.044 36.857C119.933 36.5597 119.755 36.3551 119.51 36.2434C119.265 36.1317 118.984 36.1337 118.667 36.2494L118.495 35.5903C118.985 35.4567 119.406 35.4856 119.759 35.6769C120.115 35.8673 120.382 36.2016 120.561 36.6796C120.741 37.1623 120.75 37.5943 120.587 37.9757C120.425 38.3571 120.146 38.6218 119.75 38.7698C119.549 38.845 119.336 38.8778 119.11 38.8681C118.885 38.8585 118.629 38.7978 118.342 38.686C118.056 38.5765 117.643 38.37 117.102 38.0665C116.652 37.8122 116.352 37.6535 116.2 37.5901C116.051 37.526 115.908 37.4805 115.77 37.4538L116.692 39.9208Z" fill="#36500D"/>
<path d="M114.19 35.3266L114.872 35.0138L115.185 35.6964L114.502 36.0093L114.19 35.3266Z" fill="#36500D"/>
<path d="M117.258 32.3826L116.9 31.8309C117.099 31.6558 117.225 31.4931 117.277 31.3427C117.357 31.0963 117.334 30.8583 117.21 30.6287C117.109 30.4441 116.97 30.3101 116.791 30.2266C116.559 30.1165 116.286 30.0783 115.974 30.1119C115.661 30.1456 115.268 30.2885 114.794 30.5407C115.082 30.5648 115.332 30.6496 115.545 30.7954C115.758 30.9411 115.924 31.1245 116.044 31.3455C116.254 31.7317 116.29 32.1375 116.151 32.563C116.016 32.9894 115.723 33.3251 115.273 33.5699C114.976 33.7309 114.666 33.8163 114.34 33.8263C114.018 33.8373 113.729 33.768 113.473 33.6183C113.216 33.4686 113.011 33.2522 112.857 32.9689C112.595 32.4861 112.558 31.9962 112.746 31.4991C112.937 31.0008 113.44 30.5302 114.255 30.0871C115.167 29.5915 115.922 29.3996 116.519 29.5114C117.039 29.6095 117.435 29.9074 117.705 30.4052C117.907 30.7764 117.968 31.1366 117.888 31.4857C117.809 31.837 117.599 32.136 117.258 32.3826ZM113.938 31.1224C113.739 31.2308 113.57 31.3764 113.434 31.5592C113.298 31.7442 113.223 31.9391 113.209 32.1439C113.198 32.3475 113.237 32.533 113.328 32.7004C113.461 32.945 113.674 33.1016 113.967 33.1703C114.26 33.239 114.576 33.1812 114.915 32.997C115.241 32.8197 115.451 32.5935 115.543 32.3182C115.637 32.0418 115.613 31.7716 115.469 31.5077C115.327 31.2459 115.112 31.0752 114.824 30.9954C114.538 30.9145 114.243 30.9568 113.938 31.1224Z" fill="#36500D"/>
<path d="M111.975 26.3567C112.503 26.0046 112.964 25.7754 113.357 25.6691C113.753 25.5635 114.11 25.5591 114.426 25.6561C114.745 25.755 115.012 25.967 115.229 26.2922C115.389 26.532 115.48 26.7748 115.503 27.0207C115.528 27.2652 115.489 27.5073 115.384 27.7471C115.282 27.9855 115.122 28.2256 114.905 28.4673C114.689 28.7077 114.36 28.9756 113.917 29.2708C113.393 29.6202 112.933 29.8487 112.538 29.9563C112.145 30.0626 111.789 30.067 111.468 29.9694C111.151 29.8725 110.884 29.6604 110.666 29.3333C110.379 28.9024 110.308 28.4612 110.453 28.0094C110.628 27.4669 111.136 26.916 111.975 26.3567ZM112.351 26.9206C111.617 27.4095 111.185 27.8206 111.055 28.1538C110.928 28.4877 110.949 28.7806 111.117 29.0326C111.285 29.2846 111.548 29.4147 111.905 29.4229C112.264 29.4331 112.81 29.1944 113.541 28.7069C114.277 28.2166 114.708 27.8045 114.835 27.4706C114.963 27.1388 114.941 26.8448 114.771 26.5888C114.603 26.3368 114.362 26.2067 114.048 26.1985C113.65 26.191 113.084 26.4317 112.351 26.9206Z" fill="#36500D"/>
<path d="M108.741 26.4505L109.337 25.9934L109.794 26.5891L109.198 27.0463L108.741 26.4505Z" fill="#36500D"/>
<path d="M106.838 22.0787L107.338 22.5605C107.119 22.8213 107.006 23.0778 107 23.3301C106.997 23.5825 107.083 23.8079 107.256 24.0062C107.466 24.2449 107.733 24.3679 108.058 24.3753C108.383 24.3827 108.694 24.256 108.991 23.9951C109.274 23.7472 109.427 23.4716 109.45 23.1686C109.475 22.8674 109.375 22.5883 109.149 22.3312C109.009 22.1715 108.846 22.0596 108.66 21.9955C108.476 21.9298 108.293 21.9109 108.113 21.9389L107.766 21.4204L110.182 19.9926L111.943 22.0002L111.47 22.4156L110.057 20.8046L108.781 21.5388C109.162 21.6329 109.47 21.8131 109.703 22.0794C110.012 22.4319 110.151 22.8364 110.12 23.2929C110.088 23.7494 109.88 24.1459 109.497 24.4825C109.131 24.8029 108.722 24.9734 108.269 24.994C107.715 25.0217 107.242 24.8116 106.849 24.3637C106.527 23.9965 106.366 23.6061 106.367 23.1926C106.37 22.7809 106.527 22.4096 106.838 22.0787Z" fill="#36500D"/>
<path d="M104.604 18.19C105.041 17.7302 105.44 17.4053 105.8 17.2152C106.163 17.025 106.51 16.9423 106.841 16.967C107.173 16.9935 107.481 17.1415 107.764 17.411C107.972 17.6097 108.115 17.8265 108.191 18.0612C108.27 18.2943 108.284 18.5392 108.235 18.796C108.188 19.0511 108.085 19.3205 107.926 19.6042C107.769 19.8861 107.506 20.2198 107.139 20.6053C106.705 21.0615 106.307 21.3856 105.945 21.5775C105.585 21.7676 105.238 21.8503 104.904 21.8256C104.574 21.8008 104.266 21.6529 103.982 21.3817C103.607 21.0246 103.44 20.6098 103.482 20.1372C103.534 19.5694 103.908 18.9203 104.604 18.19ZM105.094 18.6574C104.486 19.2958 104.155 19.7918 104.102 20.1455C104.052 20.4991 104.136 20.7803 104.356 20.9891C104.575 21.198 104.86 21.267 105.21 21.1963C105.563 21.1273 106.042 20.7745 106.649 20.1379C107.258 19.4978 107.588 19.0009 107.638 18.6473C107.69 18.2954 107.605 18.0133 107.382 17.8011C107.163 17.5923 106.899 17.5184 106.591 17.5794C106.201 17.6597 105.702 18.019 105.094 18.6574Z" fill="#36500D"/>
<path d="M100.882 18.6354L105.616 15.341L106.023 15.6766L101.292 18.9733L100.882 18.6354Z" fill="#36500D"/>
<path d="M100.529 11.692L103.371 13.7054L103.005 14.2226L100.742 12.6199L99.7852 13.971L100.831 14.7121C101.218 14.9859 101.499 15.2401 101.674 15.4748C101.851 15.7108 101.935 15.9802 101.927 16.2828C101.921 16.5835 101.822 16.8693 101.63 17.1404C101.473 17.3616 101.277 17.5335 101.04 17.6563C100.807 17.7784 100.55 17.8311 100.268 17.8144C99.9868 17.7976 99.6109 17.6227 99.1406 17.2896L97.4247 16.0743L100.529 11.692ZM98.354 15.9918L99.5138 16.8133C99.8267 17.0349 100.106 17.137 100.352 17.1195C100.6 17.1035 100.814 16.9679 100.994 16.7128C101.123 16.5315 101.185 16.3483 101.182 16.1632C101.178 15.9781 101.111 15.8092 100.98 15.6564C100.848 15.5036 100.59 15.291 100.206 15.0186L99.4316 14.4703L98.354 15.9918Z" fill="#36500D"/>
<path d="M94.2632 12.5875L94.8805 12.8354C94.7625 13.1979 94.7414 13.4959 94.817 13.7294C94.8959 13.962 95.0491 14.1425 95.2766 14.2711C95.5466 14.4237 95.827 14.4588 96.1177 14.3762C96.4105 14.2949 96.635 14.116 96.7912 13.8397C96.9402 13.576 96.9767 13.3105 96.9006 13.0431C96.8258 12.7736 96.6555 12.5637 96.3897 12.4135C96.2813 12.3522 96.1343 12.2971 95.9487 12.2483L96.2972 11.7805C96.3331 11.8064 96.3627 11.826 96.3861 11.8392C96.6306 11.9774 96.8867 12.038 97.1544 12.021C97.4221 12.004 97.631 11.8626 97.7812 11.5968C97.9002 11.3864 97.9275 11.1718 97.8632 10.9531C97.7988 10.7344 97.654 10.5613 97.4286 10.434C97.2054 10.3078 96.9797 10.2728 96.7516 10.329C96.5235 10.3852 96.3089 10.5416 96.1077 10.7982L95.5914 10.3717C95.879 10.0265 96.2067 9.81903 96.5744 9.74915C96.9433 9.67715 97.3127 9.74569 97.6827 9.95478C97.9378 10.099 98.1415 10.287 98.2937 10.519C98.4471 10.7488 98.5267 10.9901 98.5324 11.243C98.5403 11.4971 98.4841 11.7305 98.364 11.9431C98.2498 12.145 98.0917 12.2983 97.8895 12.4028C97.6874 12.5074 97.4523 12.5484 97.1845 12.5261C97.4248 12.7461 97.5644 13.0003 97.6033 13.2888C97.6434 13.5752 97.5782 13.8693 97.4075 14.1712C97.1768 14.5794 96.8321 14.8418 96.3735 14.9584C95.916 15.0729 95.4598 15.0016 95.0049 14.7445C94.5945 14.5126 94.3224 14.1974 94.1885 13.7991C94.0567 13.402 94.0816 12.9982 94.2632 12.5875Z" fill="#36500D"/>
<path d="M91.9443 11.2389L92.2297 10.6404L94.0582 11.5123L93.7728 12.1107L91.9443 11.2389Z" fill="#36500D"/>
<path d="M92.0848 8.6491L91.4546 8.46066C91.4932 8.19807 91.4835 7.99274 91.4255 7.84468C91.327 7.60503 91.1559 7.43813 90.9121 7.34397C90.7162 7.26829 90.5231 7.25652 90.3328 7.30866C90.0846 7.3751 89.8523 7.5223 89.636 7.75027C89.4196 7.97823 89.2124 8.34192 89.0142 8.84132C89.2494 8.673 89.4952 8.57552 89.7516 8.5489C90.008 8.52227 90.2535 8.55428 90.4881 8.64492C90.8981 8.80332 91.1882 9.08945 91.3582 9.5033C91.5313 9.91576 91.5255 10.3612 91.3407 10.8396C91.2192 11.1539 91.0378 11.4203 90.7964 11.6385C90.5582 11.8554 90.2929 11.9899 90.0005 12.0419C89.7082 12.0939 89.4116 12.0618 89.1109 11.9456C88.5984 11.7476 88.253 11.3982 88.0747 10.8974C87.8973 10.3943 87.9758 9.70988 88.3102 8.84423C88.6842 7.87607 89.1349 7.24125 89.6624 6.93975C90.1223 6.6776 90.6166 6.64861 91.1451 6.85277C91.5392 7.00501 91.8188 7.24001 91.984 7.55778C92.1515 7.87642 92.1851 8.2402 92.0848 8.6491ZM88.739 9.83847C88.6572 10.0503 88.6233 10.2702 88.6373 10.4982C88.6536 10.727 88.7229 10.9239 88.845 11.0889C88.968 11.2516 89.1184 11.3673 89.296 11.4359C89.5557 11.5363 89.8195 11.5177 90.0872 11.3803C90.355 11.2429 90.5584 10.9942 90.6974 10.6343C90.8312 10.288 90.8441 9.98015 90.7361 9.71068C90.629 9.43894 90.4354 9.24895 90.1552 9.14071C89.8773 9.03335 89.6028 9.0425 89.3317 9.16817C89.0615 9.29156 88.864 9.51499 88.739 9.83847Z" fill="#36500D"/>
<path d="M83.8214 8.66301L84.4796 8.75973C84.4497 9.13979 84.4987 9.43449 84.6268 9.64383C84.758 9.85149 84.9492 9.99124 85.2004 10.0631C85.4986 10.1483 85.7794 10.1168 86.0427 9.96861C86.3084 9.82106 86.4849 9.59467 86.5722 9.28943C86.6554 8.99828 86.6288 8.73159 86.4923 8.48937C86.3565 8.24481 86.1418 8.08058 85.8483 7.99666C85.7286 7.96243 85.5728 7.94328 85.3809 7.93922L85.6104 7.40288C85.6514 7.41966 85.6847 7.43174 85.7106 7.43913C85.9806 7.51633 86.2437 7.51537 86.5 7.43625C86.7563 7.35713 86.9264 7.17081 87.0103 6.87731C87.0768 6.64486 87.0532 6.42983 86.9395 6.23224C86.8258 6.03464 86.6445 5.90026 86.3957 5.82911C86.1491 5.75862 85.9215 5.77736 85.7128 5.88534C85.5042 5.99332 85.3321 6.19556 85.1965 6.49207L84.5947 6.19812C84.7937 5.79528 85.0638 5.51691 85.405 5.363C85.7468 5.20674 86.122 5.18702 86.5306 5.30382C86.8124 5.38438 87.0544 5.5196 87.2566 5.7095C87.4595 5.89705 87.5933 6.1131 87.658 6.35765C87.7251 6.60288 87.725 6.84289 87.6579 7.07769C87.5941 7.30075 87.4762 7.48673 87.3041 7.63564C87.132 7.78455 86.9131 7.87944 86.6474 7.92032C86.9325 8.07803 87.1277 8.29258 87.233 8.56397C87.3389 8.83302 87.3442 9.13425 87.2489 9.46767C87.12 9.91849 86.8462 10.2542 86.4275 10.4749C86.0095 10.6932 85.5493 10.7305 85.0468 10.5868C84.5937 10.4573 84.2554 10.2145 84.0321 9.85857C83.8111 9.5033 83.7409 9.10478 83.8214 8.66301Z" fill="#36500D"/>
<path d="M79.6647 8.01408L80.2982 8.07527C80.2951 8.37799 80.3553 8.60951 80.4789 8.76982C80.6025 8.93013 80.7806 9.03248 81.0133 9.07687C81.2124 9.11486 81.395 9.10246 81.5611 9.03968C81.7296 8.97736 81.8763 8.87979 82.001 8.74697C82.1263 8.61175 82.246 8.42078 82.3602 8.17407C82.4744 7.92735 82.5571 7.66966 82.6084 7.40099C82.6139 7.3722 82.6209 7.3288 82.6295 7.27077C82.4606 7.45236 82.2511 7.5864 82.0008 7.67292C81.7535 7.75749 81.4991 7.77484 81.2376 7.72496C80.801 7.64166 80.4618 7.41287 80.22 7.03856C79.9781 6.66425 79.9067 6.21802 80.0055 5.69988C80.1076 5.16494 80.3468 4.76433 80.7233 4.49804C81.1022 4.23221 81.5291 4.14461 82.0041 4.23522C82.3471 4.30067 82.6426 4.45274 82.8904 4.69145C83.1406 4.93062 83.3061 5.23569 83.387 5.60663C83.4708 5.97564 83.4509 6.48398 83.3273 7.13166C83.1987 7.80573 83.023 8.32911 82.8003 8.70179C82.578 9.07208 82.3018 9.33389 81.9717 9.48721C81.644 9.64099 81.2859 9.68081 80.8973 9.60667C80.4847 9.52795 80.1694 9.34971 79.9514 9.07194C79.7338 8.79176 79.6383 8.43914 79.6647 8.01408ZM82.7607 6.19196C82.8317 5.82014 82.7884 5.5061 82.631 5.24982C82.4759 4.994 82.2592 4.83955 81.981 4.78646C81.6931 4.73154 81.42 4.80126 81.1617 4.99561C80.9033 5.18996 80.7384 5.47425 80.6671 5.84847C80.603 6.1843 80.6516 6.47699 80.8128 6.72653C80.9769 6.97412 81.2076 7.1263 81.5051 7.18305C81.8049 7.24025 82.0707 7.18281 82.3025 7.01073C82.537 6.8367 82.6898 6.56378 82.7607 6.19196Z" fill="#36500D"/>
<path d="M71.8951 3.36843L72.6083 3.40937L74.9919 7.71438L75.2304 3.55991L75.907 3.59876L75.5991 8.96008L74.8897 8.91934L72.4904 4.63177L72.2529 8.76796L71.5873 8.72974L71.8951 3.36843ZM76.254 6.11738C76.2788 5.68585 76.4192 5.349 76.6753 5.10686C76.9338 4.86486 77.263 4.75534 77.6628 4.7783C78.0602 4.80112 78.3696 4.95097 78.591 5.22786C78.8148 5.50489 78.9139 5.86649 78.8883 6.31266C78.8624 6.7637 78.7188 7.1138 78.4574 7.36298C78.1985 7.61229 77.8679 7.7254 77.4656 7.70231C77.1194 7.68243 76.8226 7.54676 76.5753 7.29529C76.3306 7.04152 76.2235 6.64888 76.254 6.11738ZM76.8928 6.17607C76.874 6.50277 76.9245 6.75273 77.0442 6.92594C77.1663 7.09928 77.3225 7.19141 77.5126 7.20233C77.6906 7.21255 77.8524 7.14234 77.998 6.99171C78.1463 6.83877 78.2297 6.60017 78.2483 6.27591C78.2679 5.93458 78.2101 5.68421 78.0749 5.52479C77.9423 5.36307 77.7907 5.27731 77.62 5.26751C77.4372 5.25701 77.2742 5.32715 77.131 5.47793C76.9902 5.62884 76.9108 5.86156 76.8928 6.17607ZM76.2145 8.01941L78.705 8.1624L78.6739 8.70365L76.1835 8.56066L76.2145 8.01941Z" fill="#36500D"/>
<path d="M64.5468 9.37504L63.8508 4.05018L67.701 3.54696L67.7831 4.17534L64.6376 4.58646L64.8507 6.21734L67.7965 5.83232L67.8781 6.45706L64.9324 6.84208L65.1693 8.65456L68.4383 8.2273L68.5204 8.85567L64.5468 9.37504Z" fill="#36500D"/>
<path d="M58.0187 5.37991L58.6448 5.22628L59.6582 9.35666L61.4197 4.54542L62.1135 4.3752L63.3931 9.59065L62.767 9.74427L61.7562 5.62457L59.9885 10.426L59.2983 10.5954L58.0187 5.37991Z" fill="#36500D"/>
<path d="M54.2186 12.4376L52.3216 7.41373L52.9864 7.1627L53.7654 9.22572L56.3768 8.23968L55.5978 6.17665L56.2626 5.92561L58.1596 10.9495L57.4948 11.2006L56.6006 8.83254L53.9893 9.81858L54.8835 12.1866L54.2186 12.4376Z" fill="#36500D"/>
<path d="M49.7372 14.6638L47.2832 9.88711L50.737 8.11274L51.0266 8.67643L48.2049 10.126L48.9565 11.589L51.599 10.2315L51.8869 10.7919L49.2444 12.1495L50.0797 13.7753L53.0122 12.2688L53.3018 12.8325L49.7372 14.6638Z" fill="#36500D"/>
<path d="M45.5177 17.3687L42.562 12.8852L44.2532 11.7702C44.5509 11.574 44.7877 11.4384 44.9635 11.3634C45.2079 11.255 45.4388 11.2037 45.6561 11.2095C45.8722 11.2133 46.0862 11.2785 46.2983 11.4048C46.5123 11.5299 46.6926 11.7035 46.8391 11.9258C47.0905 12.3071 47.1822 12.7102 47.1143 13.1352C47.0451 13.5582 46.6934 13.9787 46.0593 14.3967L44.9094 15.1548L46.1111 16.9776L45.5177 17.3687ZM44.5606 14.6257L45.7197 13.8616C46.103 13.6089 46.3282 13.3581 46.3951 13.1091C46.4621 12.8602 46.4103 12.6063 46.2396 12.3474C46.1159 12.1598 45.9625 12.0313 45.7793 11.962C45.5968 11.8892 45.4139 11.8825 45.2307 11.9419C45.1134 11.9812 44.9201 12.0896 44.651 12.2671L43.5041 13.0231L44.5606 14.6257Z" fill="#36500D"/>
<path d="M41.6356 20.493L38.2167 16.3518L41.211 13.8797L41.6145 14.3684L39.1682 16.3881L40.2153 17.6564L42.5062 15.7651L42.9073 16.2509L40.6164 18.1423L41.7801 19.5519L44.3225 17.453L44.7259 17.9417L41.6356 20.493Z" fill="#36500D"/>
<path d="M38.0664 24.054L34.2261 20.3002L35.6344 18.8595C35.9212 18.5661 36.1901 18.3696 36.4411 18.27C36.6921 18.167 36.9474 18.1451 37.2071 18.2043C37.4668 18.2601 37.6848 18.3741 37.8612 18.5466C38.0254 18.707 38.1364 18.9026 38.1943 19.1334C38.2522 19.3641 38.2377 19.613 38.151 19.8799C38.4461 19.7142 38.7364 19.6496 39.0217 19.6861C39.3088 19.7208 39.5641 19.8474 39.7876 20.0659C39.9675 20.2417 40.0976 20.444 40.1779 20.6728C40.2582 20.8981 40.2856 21.1076 40.2602 21.3013C40.2348 21.495 40.1611 21.6979 40.0392 21.91C39.9172 22.1186 39.7368 22.3451 39.4978 22.5896L38.0664 24.054ZM36.3365 21.3693L37.1482 20.5389C37.3684 20.3136 37.5115 20.1376 37.5774 20.0108C37.6653 19.844 37.6963 19.6847 37.6704 19.5331C37.6462 19.3797 37.5669 19.2372 37.4324 19.1058C37.3049 18.9812 37.1633 18.9025 37.0075 18.8697C36.8499 18.8352 36.6982 18.8577 36.5523 18.9371C36.4047 19.0147 36.196 19.1915 35.9263 19.4675L35.1761 20.235L36.3365 21.3693ZM38.11 23.1028L39.0446 22.1467C39.205 21.9825 39.3116 21.8613 39.3642 21.783C39.4577 21.6455 39.5183 21.5135 39.5462 21.3871C39.5742 21.2608 39.5666 21.127 39.5235 20.9859C39.4787 20.8431 39.3952 20.7119 39.273 20.5924C39.1298 20.4524 38.9699 20.3679 38.7934 20.3388C38.6152 20.3081 38.4411 20.3377 38.2712 20.4277C38.1012 20.5142 37.8967 20.6798 37.6578 20.9243L36.7897 21.8123L38.11 23.1028Z" fill="#36500D"/>
<path d="M32.2776 27.1985C31.5702 26.6563 31.1624 26.0422 31.0543 25.3562C30.9443 24.6688 31.1196 24.0247 31.5802 23.4239C31.8817 23.0304 32.2476 22.7478 32.6778 22.576C33.108 22.4041 33.5548 22.3651 34.0183 22.4589C34.4814 22.5492 34.9261 22.7578 35.3526 23.0847C35.7848 23.416 36.1046 23.7996 36.312 24.2355C36.5194 24.6714 36.5887 25.1168 36.52 25.5718C36.4493 26.0254 36.272 26.4372 35.9883 26.8074C35.6807 27.2086 35.309 27.4929 34.873 27.6602C34.437 27.8276 33.989 27.8642 33.5289 27.77C33.0688 27.6757 32.6517 27.4853 32.2776 27.1985ZM32.732 26.6238C33.2457 27.0175 33.7562 27.1904 34.2637 27.1425C34.7708 27.0911 35.184 26.8571 35.5034 26.4404C35.8288 26.0159 35.947 25.5526 35.858 25.0506C35.7705 24.5466 35.4525 24.0843 34.9039 23.6639C34.557 23.3979 34.2093 23.2253 33.8609 23.1459C33.5121 23.0631 33.18 23.0809 32.8647 23.1992C32.5489 23.3141 32.2833 23.5121 32.0679 23.7931C31.7619 24.1924 31.6358 24.6419 31.6896 25.1416C31.743 25.638 32.0905 26.132 32.732 26.6238Z" fill="#36500D"/>
<path d="M32.9385 31.0458L28.8895 28.5883L27.9715 30.1008L27.4297 29.772L29.6383 26.1332L30.18 26.462L29.2582 27.9808L33.3072 30.4383L32.9385 31.0458Z" fill="#36500D"/>
<path d="M29.9022 32.5891L30.3683 32.0234C30.8323 32.4076 31.1203 32.8409 31.2325 33.3235C31.3435 33.8028 31.2794 34.2953 31.0403 34.8008C30.7929 35.324 30.4854 35.7 30.1179 35.9287C29.7493 36.1542 29.3222 36.2575 28.8368 36.2386C28.3524 36.2175 27.8784 36.0974 27.4148 35.8781C26.9092 35.639 26.5142 35.3347 26.2297 34.9651C25.9441 34.5923 25.7882 34.1823 25.762 33.735C25.7347 33.2844 25.8223 32.845 26.0248 32.4167C26.2545 31.931 26.5713 31.5811 26.9752 31.3669C27.379 31.1526 27.8358 31.0864 28.3456 31.1681L28.1955 31.871C27.789 31.8166 27.4545 31.8583 27.1921 31.9962C26.9297 32.1342 26.7217 32.3654 26.5683 32.6899C26.3918 33.063 26.3335 33.4177 26.3933 33.7539C26.4541 34.088 26.6118 34.3773 26.8662 34.6219C27.1184 34.8654 27.4046 35.0629 27.7247 35.2142C28.1375 35.4095 28.5266 35.5206 28.8921 35.5475C29.2564 35.5712 29.5747 35.4922 29.8471 35.3103C30.1195 35.1285 30.3257 34.8896 30.4656 34.5938C30.6357 34.234 30.6761 33.8802 30.5865 33.5326C30.497 33.185 30.2689 32.8705 29.9022 32.5891Z" fill="#36500D"/>
<path d="M25.5028 41.7401C24.6575 41.4573 24.0722 41.0091 23.747 40.3956C23.4195 39.7813 23.3758 39.1152 23.616 38.3973C23.7733 37.9271 24.0274 37.5409 24.3783 37.2386C24.7293 36.9362 25.1392 36.754 25.608 36.692C26.0753 36.6269 26.5637 36.6796 27.0732 36.85C27.5896 37.0228 28.0168 37.2816 28.3546 37.6264C28.6925 37.9712 28.9029 38.3699 28.9858 38.8225C29.0664 39.2744 29.0327 39.7215 28.8847 40.1638C28.7243 40.6432 28.4651 41.0329 28.1073 41.3329C27.7494 41.6329 27.3376 41.8132 26.8718 41.8737C26.4061 41.9342 25.9497 41.8897 25.5028 41.7401ZM25.7456 41.0488C26.3593 41.2542 26.8984 41.2517 27.3627 41.0414C27.8256 40.828 28.1403 40.4723 28.3068 39.9744C28.4765 39.4672 28.4377 38.9907 28.1903 38.5448C27.9437 38.0966 27.4926 37.7629 26.8372 37.5436C26.4227 37.4049 26.0378 37.3547 25.6825 37.3929C25.3257 37.428 25.0174 37.5528 24.7577 37.7672C24.4964 37.9785 24.3096 38.2521 24.1973 38.5879C24.0377 39.0649 24.0646 39.531 24.278 39.9861C24.4898 40.4381 24.9791 40.7924 25.7456 41.0488Z" fill="#36500D"/>
<path d="M21.7979 45.7627L22.4573 42.5624L27.0962 43.5182L27.1938 43.0446L29.0415 43.4253L28.9136 44.046L27.6866 43.7932L26.9704 47.2697L28.1974 47.5225L28.0695 48.1432L26.2218 47.7625L26.3061 47.3535C25.7547 46.7986 24.5079 46.321 22.5657 45.9209L21.7979 45.7627ZM22.9345 43.3863L22.5568 45.2197L22.8259 45.2751C23.2732 45.3673 23.8771 45.5341 24.6377 45.7756C25.3964 46.0142 26.0016 46.3021 26.4532 46.6395L26.9528 44.2142L22.9345 43.3863Z" fill="#36500D"/>
<path d="M21.0562 51.7189L21.1287 51.0046L24.5783 49.595L21.4604 47.7392L21.5319 47.0359L25.4828 49.4623C25.9773 49.7654 26.2966 50.0052 26.4407 50.1819C26.5848 50.3585 26.6416 50.5963 26.6113 50.8951C26.5927 51.0773 26.5275 51.2965 26.4156 51.5527L25.8106 51.4912C25.9392 51.3128 26.0142 51.118 26.0357 50.9066C26.0532 50.7341 26.0136 50.5803 25.9169 50.4453C25.8179 50.3076 25.5793 50.1435 25.201 49.9529L21.0562 51.7189Z" fill="#36500D"/>
<path d="M107.489 92.0101L105.041 89.4198L106.003 88.4885C106.173 88.3245 106.31 88.2076 106.415 88.1376C106.56 88.0376 106.704 87.9766 106.845 87.9547C106.986 87.9317 107.132 87.949 107.284 88.0068C107.438 88.0635 107.575 88.156 107.697 88.2844C107.905 88.5047 108.012 88.7582 108.019 89.045C108.024 89.3305 107.847 89.6479 107.486 89.9971L106.831 90.6303L107.826 91.6834L107.489 92.0101ZM106.542 90.3246L107.202 89.6863C107.42 89.4753 107.536 89.2841 107.55 89.113C107.564 88.9418 107.5 88.7815 107.358 88.6319C107.256 88.5235 107.141 88.4574 107.014 88.4336C106.888 88.4075 106.768 88.4248 106.657 88.4853C106.585 88.525 106.473 88.619 106.32 88.7672L105.667 89.3988L106.542 90.3246Z" fill="#36500D"/>
<path d="M103.345 93.2734C102.967 92.8172 102.793 92.3583 102.822 91.8965C102.849 91.4336 103.054 91.0405 103.436 90.7175C103.686 90.5059 103.961 90.3758 104.262 90.3272C104.563 90.2786 104.856 90.3187 105.141 90.4476C105.425 90.5742 105.682 90.775 105.909 91.0499C106.139 91.3287 106.29 91.6249 106.361 91.9387C106.432 92.2524 106.413 92.5522 106.304 92.8378C106.194 93.1223 106.021 93.364 105.786 93.5631C105.531 93.7788 105.251 93.9091 104.947 93.954C104.643 93.9989 104.35 93.957 104.068 93.8283C103.785 93.6996 103.544 93.5147 103.345 93.2734ZM103.719 92.9664C103.993 93.2976 104.296 93.4849 104.63 93.5281C104.963 93.569 105.262 93.4775 105.527 93.2534C105.797 93.0252 105.939 92.7414 105.953 92.402C105.969 92.0615 105.83 91.7144 105.538 91.3607C105.353 91.137 105.154 90.9738 104.941 90.8711C104.729 90.7662 104.513 90.7291 104.293 90.7597C104.074 90.7881 103.875 90.8779 103.696 91.029C103.443 91.2437 103.297 91.5174 103.261 91.8502C103.224 92.1806 103.377 92.5527 103.719 92.9664Z" fill="#36500D"/>
<path d="M101.472 95.5904L101.762 95.229C101.892 95.3493 102.066 95.4359 102.286 95.4889C102.507 95.5409 102.716 95.4943 102.911 95.3491C103.11 95.201 103.23 95.0323 103.27 94.843C103.309 94.6537 103.276 94.4856 103.169 94.3385C103.054 94.1797 102.901 94.0988 102.712 94.096C102.521 94.0919 102.321 94.1677 102.112 94.3235L101.931 94.4576L101.689 94.1248C101.863 93.996 101.988 93.8876 102.066 93.7996C102.142 93.7103 102.185 93.5984 102.195 93.4637C102.205 93.3268 102.172 93.2052 102.094 93.0989C102.003 92.9728 101.875 92.8993 101.71 92.8782C101.546 92.8561 101.382 92.9062 101.218 93.0283C101.074 93.135 100.978 93.2631 100.929 93.4126C100.881 93.5598 100.881 93.7082 100.93 93.8579C100.978 94.0062 101.023 94.1099 101.066 94.169L100.645 94.3545C100.289 93.6751 100.4 93.1205 100.978 92.6906C101.257 92.4839 101.535 92.3987 101.812 92.4351C102.089 92.4701 102.304 92.5927 102.456 92.8028C102.652 93.0719 102.678 93.3739 102.535 93.7088C102.709 93.6418 102.891 93.6352 103.08 93.6892C103.269 93.7408 103.427 93.8539 103.554 94.0285C103.734 94.2767 103.79 94.5554 103.722 94.8648C103.654 95.1719 103.464 95.4418 103.151 95.6746C102.612 96.0746 102.053 96.0465 101.472 95.5904Z" fill="#36500D"/>
<path d="M97.7811 94.9287L99.5943 93.763L101.272 96.4287L101.54 96.2562L102.208 97.3179L101.857 97.544L101.413 96.8389L99.4433 98.1052L99.887 98.8103L99.5353 99.0364L98.8671 97.9747L99.0989 97.8257C99.1078 97.3045 98.7611 96.4859 98.0587 95.3699L97.7811 94.9287ZM99.4244 94.3732L98.3857 95.041L98.483 95.1956C98.6447 95.4526 98.8431 95.8193 99.0781 96.2956C99.3137 96.7696 99.4554 97.193 99.5034 97.5656L100.878 96.6822L99.4244 94.3732Z" fill="#36500D"/>
<path d="M96.0634 100.023L95.5348 96.2259L95.9756 95.9798L98.9571 98.4075L98.491 98.6678L97.6106 97.9199L96.3177 98.6419L96.4979 99.7808L96.0634 100.023ZM96.2509 98.2381L97.2991 97.6528L96.5012 96.9649C96.2584 96.7562 96.0666 96.5803 95.926 96.4374C95.9966 96.6604 96.0504 96.8909 96.0871 97.1291L96.2509 98.2381Z" fill="#36500D"/>
<path d="M93.1983 101.375L91.696 98.131L92.1195 97.9311L92.7364 99.2632L94.3998 98.4781L93.7829 97.146L94.2064 96.9461L95.7087 100.19L95.2852 100.39L94.5771 98.861L92.9137 99.6461L93.6218 101.175L93.1983 101.375Z" fill="#36500D"/>
<path d="M88.8112 103.068L87.6068 99.6999L88.8541 99.2466C89.1082 99.1544 89.3238 99.1149 89.5012 99.1284C89.6795 99.1397 89.8372 99.201 89.9744 99.3121C90.1124 99.4212 90.2091 99.5531 90.2645 99.7078C90.3159 99.8518 90.3259 100.001 90.2942 100.156C90.2626 100.312 90.1828 100.457 90.055 100.591C90.2775 100.578 90.4681 100.624 90.627 100.729C90.7873 100.833 90.9025 100.983 90.9726 101.18C91.0291 101.337 91.0484 101.496 91.0306 101.657C91.0138 101.815 90.9701 101.949 90.8997 102.058C90.8292 102.166 90.7275 102.266 90.5945 102.358C90.4625 102.448 90.2907 102.531 90.079 102.608L88.8112 103.068ZM88.5528 100.955L89.2718 100.694C89.4668 100.623 89.602 100.559 89.6774 100.503C89.7772 100.428 89.8411 100.342 89.8692 100.243C89.8987 100.144 89.8924 100.036 89.8502 99.918C89.8102 99.8062 89.7487 99.7178 89.6656 99.6528C89.582 99.5862 89.4856 99.5555 89.3764 99.5605C89.2666 99.5641 89.0923 99.6093 88.8534 99.6961L88.1889 99.9375L88.5528 100.955ZM89.109 102.511L89.9369 102.21C90.079 102.158 90.1768 102.117 90.2305 102.085C90.3252 102.03 90.3989 101.969 90.4516 101.901C90.5043 101.833 90.5381 101.751 90.5529 101.654C90.5672 101.555 90.5551 101.452 90.5168 101.345C90.4719 101.22 90.4012 101.122 90.3049 101.054C90.208 100.983 90.0962 100.95 89.9697 100.955C89.8441 100.957 89.6755 100.997 89.4638 101.074L88.695 101.353L89.109 102.511Z" fill="#36500D"/>
<path d="M84.5357 102.48C84.378 101.908 84.4065 101.417 84.6211 101.009C84.8353 100.6 85.1824 100.328 85.6626 100.194C85.9771 100.107 86.2815 100.104 86.5759 100.185C86.8703 100.267 87.1209 100.426 87.3277 100.662C87.5357 100.897 87.6872 101.186 87.7822 101.531C87.8785 101.881 87.895 102.214 87.8316 102.529C87.7683 102.844 87.6284 103.108 87.4121 103.322C87.1954 103.535 86.9392 103.682 86.6433 103.765C86.3226 103.854 86.0145 103.856 85.7188 103.769C85.4231 103.683 85.1728 103.522 84.968 103.287C84.7631 103.052 84.619 102.783 84.5357 102.48ZM85.0023 102.358C85.1168 102.773 85.317 103.071 85.6031 103.249C85.8903 103.426 86.2004 103.468 86.5334 103.375C86.8726 103.28 87.1182 103.082 87.2701 102.779C87.4235 102.476 87.4391 102.103 87.3169 101.659C87.2395 101.378 87.1249 101.146 86.973 100.964C86.8221 100.78 86.6403 100.656 86.4276 100.592C86.2159 100.526 85.9978 100.524 85.7732 100.587C85.4541 100.676 85.2098 100.864 85.0403 101.151C84.872 101.436 84.8593 101.838 85.0023 102.358Z" fill="#36500D"/>
<path d="M83.9723 103.11L84.4545 103.131C84.4377 103.532 84.325 103.859 84.1165 104.112C83.9092 104.364 83.6254 104.527 83.265 104.603C82.892 104.681 82.5724 104.668 82.3062 104.564C82.0412 104.458 81.817 104.273 81.6337 104.007C81.4519 103.74 81.3263 103.44 81.2568 103.105C81.181 102.74 81.1834 102.408 81.264 102.109C81.3459 101.807 81.499 101.56 81.7232 101.366C81.9487 101.171 82.2141 101.041 82.5194 100.977C82.8656 100.905 83.1753 100.933 83.4484 101.062C83.7215 101.191 83.9381 101.408 84.0981 101.712L83.6696 101.914C83.5364 101.675 83.3814 101.514 83.2046 101.43C83.0278 101.346 82.8237 101.328 82.5924 101.376C82.3264 101.432 82.1171 101.543 81.9645 101.71C81.8135 101.876 81.7245 102.076 81.6975 102.31C81.6701 102.541 81.6804 102.773 81.7284 103.004C81.7903 103.302 81.8869 103.554 82.0182 103.759C82.1508 103.962 82.319 104.1 82.5228 104.172C82.7266 104.244 82.9339 104.258 83.1448 104.214C83.4013 104.16 83.6029 104.04 83.7496 103.852C83.8963 103.665 83.9706 103.418 83.9723 103.11Z" fill="#36500D"/>
<path d="M78.2409 105.346L77.776 101.797L78.2399 101.736L78.4308 103.194L80.2529 102.955L80.062 101.498L80.5259 101.437L80.9908 104.986L80.5269 105.047L80.3078 103.374L78.4857 103.612L78.7048 105.285L78.2409 105.346Z" fill="#36500D"/>
<path d="M74.5556 105.614L75.6705 101.954L76.1735 101.921L77.8574 105.397L77.3256 105.432L76.8414 104.378L75.3661 104.474L75.0513 105.581L74.5556 105.614ZM75.475 104.081L76.6711 104.002L76.2364 103.037C76.1039 102.744 76.0039 102.503 75.9364 102.313C75.9069 102.545 75.8588 102.777 75.7921 103.008L75.475 104.081Z" fill="#36500D"/>
<path d="M71.39 105.62L71.3714 102.042L71.8393 102.041L71.847 103.51L73.685 103.507L73.6774 102.037L74.1453 102.036L74.164 105.615L73.696 105.616L73.6872 103.929L71.8492 103.933L71.858 105.619L71.39 105.62Z" fill="#36500D"/>
<path d="M68.0963 101.813L68.5197 101.846L68.319 104.672L70.3964 101.988L70.8655 102.024L70.6122 105.592L70.1887 105.56L70.3889 102.741L68.3096 105.417L67.8429 105.382L68.0963 101.813Z" fill="#36500D"/>
<path d="M65.7956 101.941L65.8566 101.487L66.2916 101.548L66.2306 102.002C66.6735 102.089 67.0074 102.275 67.2323 102.56C67.4573 102.842 67.5452 103.168 67.4959 103.535C67.4476 103.895 67.2816 104.182 66.9976 104.399C66.7137 104.615 66.339 104.704 65.8734 104.664L65.8121 105.121L65.377 105.06L65.4384 104.603C65.0262 104.529 64.6983 104.353 64.4546 104.076C64.2112 103.797 64.1159 103.461 64.1686 103.067C64.2216 102.673 64.4011 102.376 64.7069 102.177C65.0144 101.979 65.3773 101.901 65.7956 101.941ZM66.1767 102.404L65.9276 104.261C66.2291 104.288 66.4767 104.234 66.6704 104.097C66.8642 103.96 66.98 103.75 67.0178 103.468C67.055 103.191 67 102.96 66.8527 102.775C66.7056 102.588 66.4803 102.465 66.1767 102.404ZM65.7414 102.345C65.4512 102.317 65.2062 102.371 65.0063 102.505C64.8064 102.64 64.6874 102.85 64.6491 103.135C64.6112 103.417 64.6691 103.651 64.8228 103.837C64.978 104.023 65.2014 104.143 65.4929 104.197L65.7414 102.345Z" fill="#36500D"/>
<path d="M59.1701 103.791L61.2961 100.625L61.787 100.742L62.393 104.562L61.8739 104.438L61.7155 103.287L60.2755 102.942L59.654 103.906L59.1701 103.791ZM60.4937 102.598L61.6612 102.878L61.5243 101.827C61.4822 101.508 61.4563 101.248 61.4466 101.047C61.3512 101.26 61.2382 101.466 61.1075 101.667L60.4937 102.598Z" fill="#36500D"/>
<path d="M56.7877 102L57.2484 102.02C57.231 102.196 57.2676 102.389 57.358 102.599C57.45 102.809 57.6122 102.95 57.8447 103.022C58.0818 103.095 58.2872 103.091 58.4609 103.011C58.6346 102.93 58.7475 102.802 58.7995 102.628C58.8556 102.44 58.8278 102.268 58.7161 102.113C58.6048 101.956 58.4244 101.839 58.175 101.762L57.9602 101.696L58.0779 101.302C58.2842 101.365 58.4455 101.402 58.5617 101.412C58.6785 101.421 58.7931 101.389 58.9054 101.317C59.0198 101.243 59.0958 101.144 59.1334 101.018C59.178 100.868 59.159 100.72 59.0765 100.574C58.9955 100.429 58.8572 100.326 58.6617 100.265C58.4908 100.213 58.3315 100.211 58.1839 100.261C58.0383 100.309 57.921 100.398 57.8321 100.527C57.7437 100.655 57.689 100.753 57.6682 100.823L57.2678 100.593C57.5908 99.8987 58.0965 99.6577 58.7847 99.8699C59.1157 99.972 59.3504 100.146 59.4887 100.393C59.6274 100.638 59.6597 100.885 59.5854 101.134C59.4903 101.453 59.2671 101.655 58.916 101.738C59.074 101.84 59.1885 101.983 59.2594 102.168C59.3323 102.352 59.3379 102.547 59.2762 102.754C59.1885 103.049 59.0017 103.261 58.716 103.39C58.4322 103.518 58.1041 103.525 57.7315 103.41C57.091 103.213 56.7764 102.743 56.7877 102Z" fill="#36500D"/>
<path d="M54.6594 102.299L54.2256 102.121L54.8134 100.649L54.3103 100.442C54.1985 100.396 54.1159 100.368 54.0625 100.358C53.9888 100.347 53.9107 100.349 53.8282 100.365C53.7473 100.38 53.6447 100.424 53.5206 100.496C53.3965 100.568 53.2313 100.677 53.0252 100.823L52.316 101.334L51.7703 101.11L52.7008 100.442C52.8845 100.313 53.0632 100.215 53.2369 100.15C53.3182 100.12 53.4274 100.101 53.5644 100.093C53.2674 99.9194 53.0757 99.7212 52.9896 99.4979C52.9034 99.2746 52.9073 99.0455 53.0012 98.8104C53.074 98.628 53.186 98.4802 53.3371 98.367C53.4883 98.2537 53.6516 98.199 53.8271 98.2029C54.0033 98.2052 54.2374 98.2666 54.5296 98.3869L55.9831 98.9855L54.6594 102.299ZM54.9651 100.269L55.403 99.1731L54.3655 98.7457C54.1225 98.6457 53.9241 98.6228 53.7705 98.6771C53.6184 98.732 53.511 98.8378 53.4484 98.9946C53.4057 99.1016 53.395 99.213 53.4164 99.3289C53.4385 99.4432 53.4969 99.5445 53.5919 99.6328C53.6875 99.7195 53.8344 99.8037 54.0326 99.8854L54.9651 100.269Z" fill="#36500D"/>
<path d="M50.4064 96.4668L50.7885 96.6551L49.5692 99.2024L52.4823 97.4895L52.9058 97.6981L51.3661 100.915L50.9839 100.726L52.2001 98.1856L49.2879 99.8908L48.8667 99.6833L50.4064 96.4668Z" fill="#36500D"/>
<path d="M48.5646 98.0891L48.9104 98.431C48.633 98.717 48.3329 98.8834 48.0101 98.9302C47.6895 98.9764 47.3698 98.9057 47.0511 98.718C46.7212 98.5237 46.4913 98.298 46.3612 98.0409C46.2334 97.7832 46.1889 97.4938 46.2277 97.1726C46.268 96.8522 46.3727 96.5444 46.5419 96.2492C46.7263 95.9273 46.9476 95.6825 47.2056 95.5148C47.4659 95.3465 47.7435 95.2665 48.0384 95.2748C48.3356 95.2825 48.6192 95.3658 48.8892 95.5248C49.1954 95.7051 49.4078 95.9355 49.5263 96.2159C49.6449 96.4963 49.6634 96.8034 49.582 97.1371L49.1289 96.9972C49.1868 96.7304 49.1776 96.506 49.1014 96.3239C49.0252 96.1417 48.8849 95.9904 48.6803 95.8699C48.445 95.7314 48.2155 95.6724 47.9916 95.6928C47.769 95.714 47.5706 95.8021 47.3962 95.957C47.2226 96.1105 47.0774 96.2892 46.9606 96.493C46.81 96.7559 46.7158 97.0079 46.6782 97.249C46.6428 97.4894 46.6773 97.7053 46.7818 97.8966C46.8863 98.0878 47.0318 98.2384 47.2183 98.3482C47.4451 98.4818 47.675 98.5289 47.908 98.4894C48.141 98.4498 48.3599 98.3164 48.5646 98.0891Z" fill="#36500D"/>
<path d="M44.7697 92.9375L45.1224 93.1776L43.5653 95.5279L46.6857 94.2414L47.0765 94.5073L45.1104 97.475L44.7576 97.235L46.3107 94.8908L43.1924 96.1699L42.8035 95.9053L44.7697 92.9375Z" fill="#36500D"/>
<path d="M39.5342 93.335L41.7167 90.5268L42.2707 90.9685L41.3837 93.4818C41.3005 93.7154 41.2371 93.8893 41.1934 94.0034C41.3044 93.9265 41.4704 93.8157 41.6913 93.6713L43.8757 92.2484L44.3708 92.6433L42.1883 95.4515L41.8336 95.1686L43.6603 92.8182L41.0254 94.5241L40.6934 94.2593L41.7469 91.2273L39.889 93.6179L39.5342 93.335Z" fill="#36500D"/>
<path d="M37.7645 89.3452C38.1627 88.9101 38.5899 88.6783 39.0462 88.6499C39.5036 88.6203 39.9155 88.7772 40.2817 89.1206C40.5216 89.3455 40.6849 89.606 40.7716 89.9022C40.8584 90.1984 40.857 90.4973 40.7676 90.7989C40.6805 91.1004 40.5169 91.3822 40.2769 91.6445C40.0337 91.9103 39.7628 92.0983 39.4645 92.2084C39.1662 92.3185 38.8699 92.3364 38.5757 92.2621C38.2825 92.1866 38.0231 92.043 37.7975 91.8314C37.5529 91.6021 37.3889 91.3376 37.3054 91.0378C37.2219 90.738 37.2249 90.4385 37.3144 90.1392C37.4039 89.8399 37.5539 89.5753 37.7645 89.3452ZM38.114 89.6829C37.8249 89.9988 37.6808 90.3266 37.6817 90.6663C37.6848 91.0059 37.8133 91.2948 38.0674 91.5329C38.3261 91.7755 38.6228 91.8832 38.9574 91.8558C39.2931 91.8295 39.6154 91.6477 39.9241 91.3104C40.1194 91.097 40.2536 90.8772 40.3266 90.6511C40.4019 90.4249 40.4102 90.2035 40.3517 89.9869C40.2953 89.7701 40.1815 89.5815 40.0102 89.4208C39.7668 89.1926 39.4797 89.0806 39.1487 89.0848C38.82 89.089 38.4751 89.2883 38.114 89.6829Z" fill="#36500D"/>
<path d="M37.2825 86.2043L37.6069 86.5465L36.4914 87.6297C36.6396 87.7861 36.7734 87.8674 36.8927 87.8735C37.0131 87.8785 37.2337 87.8202 37.5544 87.6985C37.7892 87.6082 37.9625 87.5528 38.0744 87.5323C38.1885 87.5119 38.3094 87.5221 38.4371 87.5629C38.566 87.6027 38.6795 87.6742 38.7776 87.7777C38.9024 87.9094 38.967 87.9799 38.9714 87.9892L38.6795 88.2727C38.6683 88.2609 38.6472 88.2374 38.616 88.2022C38.5815 88.1635 38.5603 88.14 38.5525 88.1317C38.4488 88.0224 38.3459 87.9666 38.2436 87.9643C38.1401 87.9608 37.9704 88.007 37.7343 88.103C37.4364 88.2252 37.2306 88.2839 37.117 88.279C37.0045 88.2731 36.8919 88.2446 36.7792 88.1938C36.8923 88.4046 36.8966 88.7166 36.7921 89.1297L36.4491 90.4858L36.0461 90.0607L36.328 88.957C36.4066 88.6527 36.4433 88.4262 36.4381 88.2776C36.4341 88.1279 36.372 87.9896 36.2516 87.8626L35.0595 89.02L34.7351 88.6779L37.2825 86.2043Z" fill="#36500D"/>
<path d="M72.5002 22.7993C72.7398 22.7993 72.9794 22.8523 73.193 22.9531L83.0054 27.1897C84.1513 27.6829 85.0054 28.8335 85.0002 30.2227C84.9742 35.4827 82.8492 45.1067 73.87 49.4812C73.0002 49.9054 71.9898 49.9054 71.1252 49.4812C62.1461 45.1067 60.0263 35.488 60.0003 30.2227C59.9951 28.8335 60.8492 27.6829 61.9951 27.1897L71.8023 22.9531C72.0159 22.8523 72.2555 22.7993 72.5002 22.7993ZM77.2346 31.5271C76.6773 31.1135 75.8961 31.2408 75.4898 31.8082L71.0315 38.0491L69.6513 36.5963C69.1721 36.0925 68.3805 36.0766 67.8857 36.5644C67.3909 37.0523 67.3753 37.8582 67.8544 38.362L70.2711 40.9071C70.5263 41.1776 70.8857 41.3207 71.2555 41.2942C71.6252 41.2677 71.9638 41.0768 72.1825 40.7746L77.5107 33.3034C77.9169 32.7361 77.7919 31.9407 77.2346 31.5271Z" fill="url(#paint8_linear_5888_11059)"/>
<defs>
<linearGradient id="paint0_linear_5888_11059" x1="100.636" y1="4.29931" x2="51.636" y2="105.799" gradientUnits="userSpaceOnUse">
<stop stop-color="#B1E45E"/>
<stop offset="1" stop-color="#699324"/>
</linearGradient>
<linearGradient id="paint1_linear_5888_11059" x1="112.636" y1="44.7993" x2="31.636" y2="68.2993" gradientUnits="userSpaceOnUse">
<stop stop-color="#A7D856"/>
<stop offset="0.110577" stop-color="#A7D856"/>
<stop offset="0.850962" stop-color="#5D841E"/>
<stop offset="1" stop-color="#5D841E"/>
</linearGradient>
<linearGradient id="paint2_linear_5888_11059" x1="33.3271" y1="83.1471" x2="-5.23863" y2="83.1471" gradientUnits="userSpaceOnUse">
<stop stop-color="#191919"/>
<stop offset="0.136319" stop-color="#191919"/>
<stop offset="1" stop-color="#4F4D4D" stop-opacity="0.533333"/>
</linearGradient>
<linearGradient id="paint3_linear_5888_11059" x1="111.944" y1="83.1471" x2="150.51" y2="83.1471" gradientUnits="userSpaceOnUse">
<stop stop-color="#191919"/>
<stop offset="0.136319" stop-color="#191919"/>
<stop offset="1" stop-color="#4F4D4D" stop-opacity="0.53"/>
</linearGradient>
<linearGradient id="paint4_linear_5888_11059" x1="72.6343" y1="90.8954" x2="72.6343" y2="54.2384" gradientUnits="userSpaceOnUse">
<stop stop-color="#191919"/>
<stop offset="0.136319" stop-color="#191919"/>
<stop offset="0.815522" stop-color="#4F4D4D"/>
<stop offset="1" stop-color="#4F4D4D"/>
</linearGradient>
<linearGradient id="paint5_linear_5888_11059" x1="65.636" y1="84.7993" x2="65.636" y2="89.7993" gradientUnits="userSpaceOnUse">
<stop stop-color="#5C7B29"/>
<stop offset="0.134615" stop-color="#5C7B29"/>
<stop offset="0.879808" stop-color="#5D841E"/>
<stop offset="1" stop-color="#5D841E"/>
</linearGradient>
<linearGradient id="paint6_linear_5888_11059" x1="80.636" y1="84.7993" x2="80.636" y2="89.7993" gradientUnits="userSpaceOnUse">
<stop stop-color="#5C7B29"/>
<stop offset="0.134615" stop-color="#5C7B29"/>
<stop offset="0.879808" stop-color="#5D841E"/>
<stop offset="1" stop-color="#5D841E"/>
</linearGradient>
<linearGradient id="paint7_linear_5888_11059" x1="73.136" y1="85.7993" x2="73.136" y2="91.7993" gradientUnits="userSpaceOnUse">
<stop stop-color="#5C7B29"/>
<stop offset="0.134615" stop-color="#5C7B29"/>
<stop offset="0.879808" stop-color="#5D841E"/>
<stop offset="1" stop-color="#5D841E"/>
</linearGradient>
<linearGradient id="paint8_linear_5888_11059" x1="72.5002" y1="22.7993" x2="72.5002" y2="49.7993" gradientUnits="userSpaceOnUse">
<stop stop-color="#87B33D"/>
<stop offset="0.168269" stop-color="#87B33D"/>
<stop offset="0.841346" stop-color="#5D841E"/>
<stop offset="1" stop-color="#5D841E"/>
</linearGradient>
</defs>
</svg>
