<svg width="146" height="112" viewBox="0 0 146 112" fill="none" xmlns="http://www.w3.org/2000/svg">
<circle cx="72.636" cy="55.2993" r="54.5" fill="url(#paint0_linear_5887_10361)"/>
<circle cx="72.636" cy="55.2993" r="42" stroke="url(#paint1_linear_5887_10361)" stroke-width="3"/>
<mask id="mask0_5887_10361" style="mask-type:luminance" maskUnits="userSpaceOnUse" x="0" y="71" width="36" height="24">
<path d="M35.2287 94.7661H0L6.50874 83.1471L0 71.5272H20.9452C22.0476 75.1544 23.5233 78.6238 25.3238 81.8835H11.9298L35.227 94.7645L35.2287 94.7661Z" fill="white"/>
</mask>
<g mask="url(#mask0_5887_10361)">
<path d="M35.2287 94.7661H0L6.50874 83.1471L0 71.5272H20.9452C22.0476 75.1544 23.5233 78.6238 25.3238 81.8835H11.9298L35.227 94.7645L35.2287 94.7661Z" fill="url(#paint2_linear_5887_10361)"/>
</g>
<mask id="mask1_5887_10361" style="mask-type:luminance" maskUnits="userSpaceOnUse" x="11" y="81" width="25" height="14">
<path d="M35.2262 94.7642L11.929 81.8832H25.3229C27.9669 86.6687 31.3129 91.0071 35.2262 94.7642Z" fill="white"/>
</mask>
<g mask="url(#mask1_5887_10361)">
<rect x="11.2847" y="81.0903" width="24.5156" height="14.3213" fill="#191919"/>
</g>
<mask id="mask2_5887_10361" style="mask-type:luminance" maskUnits="userSpaceOnUse" x="110" y="71" width="36" height="24">
<path d="M145.271 94.7661H110.041L133.342 81.8835H119.946C121.746 78.6238 123.222 75.1544 124.325 71.5272H145.271L138.763 83.1471L145.271 94.7661Z" fill="white"/>
</mask>
<g mask="url(#mask2_5887_10361)">
<path d="M145.271 94.7661H110.041L133.342 81.8835H119.946C121.746 78.6238 123.222 75.1544 124.325 71.5272H145.271L138.763 83.1471L145.271 94.7661Z" fill="url(#paint3_linear_5887_10361)"/>
</g>
<mask id="mask3_5887_10361" style="mask-type:luminance" maskUnits="userSpaceOnUse" x="110" y="81" width="24" height="14">
<path d="M110.04 94.7661C113.954 91.0082 117.301 86.6691 119.945 81.8835H133.341L110.04 94.7661Z" fill="white"/>
</mask>
<g mask="url(#mask3_5887_10361)">
<rect x="109.528" y="81.0898" width="24.5156" height="14.3213" fill="#191919"/>
</g>
<mask id="mask4_5887_10361" style="mask-type:luminance" maskUnits="userSpaceOnUse" x="11" y="55" width="123" height="27">
<path d="M133.34 81.8833H11.929V55.7991H133.34V81.8833Z" fill="white"/>
</mask>
<g mask="url(#mask4_5887_10361)">
<path d="M133.34 81.8833H11.929V55.7991H133.34V81.8833Z" fill="url(#paint4_linear_5887_10361)"/>
<path d="M115.395 72.9676V65.1436H118.215C118.767 65.1436 119.271 65.2196 119.727 65.3716C120.183 65.5156 120.547 65.7676 120.819 66.1276C121.091 66.4796 121.227 66.9636 121.227 67.5796C121.227 68.1796 121.091 68.6676 120.819 69.0436C120.547 69.4196 120.183 69.6996 119.727 69.8836C119.271 70.0596 118.767 70.1476 118.215 70.1476H117.159V72.9676H115.395ZM117.159 68.7436H118.071C118.535 68.7436 118.887 68.6476 119.127 68.4556C119.375 68.2556 119.499 67.9636 119.499 67.5796C119.499 67.1956 119.375 66.9276 119.127 66.7756C118.887 66.6236 118.535 66.5476 118.071 66.5476H117.159V68.7436ZM119.631 72.9676L117.891 69.6916L119.115 68.5516L121.611 72.9676H119.631Z" fill="white"/>
<path d="M108.821 72.9676V65.1436H113.717V66.6316H110.585V68.2036H113.249V69.6796H110.585V71.4796H113.837V72.9676H108.821Z" fill="white"/>
<path d="M101.449 72.9676V65.1436H103.213V68.3476H103.261L105.589 65.1436H107.533L105.169 68.2636L107.965 72.9676H106.033L104.125 69.6676L103.213 70.8676V72.9676H101.449Z" fill="white"/>
<path d="M96.4264 73.112C95.7224 73.112 95.1024 72.948 94.5664 72.62C94.0384 72.292 93.6224 71.824 93.3184 71.216C93.0224 70.608 92.8744 69.876 92.8744 69.02C92.8744 68.172 93.0224 67.448 93.3184 66.848C93.6224 66.248 94.0384 65.792 94.5664 65.48C95.1024 65.16 95.7224 65 96.4264 65C97.1304 65 97.7504 65.16 98.2864 65.48C98.8224 65.792 99.2384 66.248 99.5344 66.848C99.8304 67.448 99.9784 68.172 99.9784 69.02C99.9784 69.876 99.8304 70.608 99.5344 71.216C99.2384 71.824 98.8224 72.292 98.2864 72.62C97.7504 72.948 97.1304 73.112 96.4264 73.112ZM96.4264 71.588C96.7864 71.588 97.0944 71.484 97.3504 71.276C97.6144 71.06 97.8144 70.76 97.9504 70.376C98.0944 69.992 98.1664 69.54 98.1664 69.02C98.1664 68.5 98.0944 68.056 97.9504 67.688C97.8144 67.312 97.6144 67.028 97.3504 66.836C97.0944 66.636 96.7864 66.536 96.4264 66.536C96.0744 66.536 95.7664 66.636 95.5024 66.836C95.2384 67.028 95.0344 67.312 94.8904 67.688C94.7544 68.056 94.6864 68.5 94.6864 69.02C94.6864 69.54 94.7544 69.992 94.8904 70.376C95.0344 70.76 95.2384 71.06 95.5024 71.276C95.7664 71.484 96.0744 71.588 96.4264 71.588Z" fill="white"/>
<path d="M85.887 72.9676V65.1436H88.707C89.259 65.1436 89.763 65.2196 90.219 65.3716C90.675 65.5156 91.039 65.7676 91.311 66.1276C91.583 66.4796 91.719 66.9636 91.719 67.5796C91.719 68.1796 91.583 68.6676 91.311 69.0436C91.039 69.4196 90.675 69.6996 90.219 69.8836C89.763 70.0596 89.259 70.1476 88.707 70.1476H87.651V72.9676H85.887ZM87.651 68.7436H88.563C89.027 68.7436 89.379 68.6476 89.619 68.4556C89.867 68.2556 89.991 67.9636 89.991 67.5796C89.991 67.1956 89.867 66.9276 89.619 66.7756C89.379 66.6236 89.027 66.5476 88.563 66.5476H87.651V68.7436ZM90.123 72.9676L88.383 69.6916L89.607 68.5516L92.103 72.9676H90.123Z" fill="white"/>
<path d="M78.6213 72.9676V65.1436H81.2973C81.8413 65.1436 82.3293 65.2036 82.7613 65.3236C83.2013 65.4356 83.5453 65.6356 83.7933 65.9236C84.0493 66.2036 84.1773 66.5916 84.1773 67.0876C84.1773 67.4796 84.0893 67.8316 83.9133 68.1436C83.7373 68.4476 83.4853 68.6596 83.1573 68.7796V68.8276C83.5973 68.9236 83.9413 69.1156 84.1893 69.4036C84.4373 69.6836 84.5613 70.0756 84.5613 70.5796C84.5613 71.1316 84.4253 71.5836 84.1533 71.9356C83.8813 72.2876 83.5133 72.5476 83.0493 72.7156C82.5933 72.8836 82.0853 72.9676 81.5253 72.9676H78.6213ZM80.3853 68.2756H81.2133C81.6453 68.2756 81.9573 68.1916 82.1493 68.0236C82.3493 67.8556 82.4493 67.6316 82.4493 67.3516C82.4493 67.0476 82.3493 66.8316 82.1493 66.7036C81.9493 66.5756 81.6413 66.5116 81.2253 66.5116H80.3853V68.2756ZM80.3853 71.5996H81.3813C81.8613 71.5996 82.2213 71.5156 82.4613 71.3476C82.7093 71.1716 82.8333 70.9036 82.8333 70.5436C82.8333 70.2076 82.7093 69.9636 82.4613 69.8116C82.2213 69.6596 81.8613 69.5836 81.3813 69.5836H80.3853V71.5996Z" fill="white"/>
<path d="M68.6018 72.9676V65.1436H70.8098C71.6098 65.1436 72.3018 65.2796 72.8858 65.5516C73.4778 65.8236 73.9338 66.2476 74.2538 66.8236C74.5738 67.3916 74.7338 68.1236 74.7338 69.0196C74.7338 69.9156 74.5738 70.6556 74.2538 71.2396C73.9338 71.8236 73.4858 72.2596 72.9098 72.5476C72.3418 72.8276 71.6778 72.9676 70.9178 72.9676H68.6018ZM70.3658 71.5396H70.7018C71.1498 71.5396 71.5378 71.4596 71.8658 71.2996C72.2018 71.1396 72.4618 70.8756 72.6458 70.5076C72.8298 70.1396 72.9218 69.6436 72.9218 69.0196C72.9218 68.3956 72.8298 67.9076 72.6458 67.5556C72.4618 67.1956 72.2018 66.9436 71.8658 66.7996C71.5378 66.6476 71.1498 66.5716 70.7018 66.5716H70.3658V71.5396Z" fill="white"/>
<path d="M62.0276 72.9676V65.1436H66.9236V66.6316H63.7916V68.2036H66.4556V69.6796H63.7916V71.4796H67.0436V72.9676H62.0276Z" fill="white"/>
<path d="M57.7477 73.112C57.2277 73.112 56.7157 73.02 56.2117 72.836C55.7077 72.644 55.2557 72.356 54.8557 71.972L55.7917 70.82C56.0717 71.06 56.3877 71.248 56.7397 71.384C57.0997 71.52 57.4517 71.588 57.7957 71.588C58.1637 71.588 58.4357 71.52 58.6117 71.384C58.7957 71.248 58.8877 71.064 58.8877 70.832C58.8877 70.664 58.8397 70.532 58.7437 70.436C58.6557 70.332 58.5277 70.24 58.3597 70.16C58.1917 70.08 57.9917 69.992 57.7597 69.896L56.7397 69.476C56.4757 69.356 56.2197 69.204 55.9717 69.02C55.7317 68.828 55.5357 68.596 55.3837 68.324C55.2397 68.044 55.1677 67.712 55.1677 67.328C55.1677 66.896 55.2837 66.508 55.5157 66.164C55.7557 65.812 56.0837 65.532 56.4997 65.324C56.9237 65.108 57.4077 65 57.9517 65C58.4237 65 58.8797 65.084 59.3197 65.252C59.7597 65.42 60.1437 65.664 60.4717 65.984L59.5357 67.124C59.2797 66.932 59.0157 66.784 58.7437 66.68C58.4797 66.576 58.2157 66.524 57.9517 66.524C57.6477 66.524 57.4037 66.588 57.2197 66.716C57.0437 66.836 56.9557 67.008 56.9557 67.232C56.9557 67.384 57.0077 67.516 57.1117 67.628C57.2157 67.732 57.3597 67.824 57.5437 67.904C57.7277 67.976 57.9277 68.06 58.1437 68.156L59.1517 68.564C59.4717 68.692 59.7437 68.852 59.9677 69.044C60.1997 69.236 60.3797 69.468 60.5077 69.74C60.6357 70.004 60.6997 70.32 60.6997 70.688C60.6997 71.12 60.5837 71.52 60.3517 71.888C60.1197 72.256 59.7837 72.552 59.3437 72.776C58.9037 73 58.3717 73.112 57.7477 73.112Z" fill="white"/>
<path d="M47.3792 72.9676V65.1436H49.2271L51.2312 68.9956C51.3752 69.2596 51.5072 69.5436 51.6272 69.8476C51.7552 70.1436 51.8792 70.4476 51.9992 70.7596H52.0472C52.0072 70.3356 51.9592 69.8716 51.9032 69.3676C51.8472 68.8636 51.8192 68.3796 51.8192 67.9156V65.1436H53.5112V72.9676H51.6632L49.6592 69.1156C49.5232 68.8516 49.3872 68.5676 49.2512 68.2636C49.1232 67.9596 48.9992 67.6556 48.8792 67.3516H48.8312C48.8792 67.7836 48.9312 68.2516 48.9872 68.7556C49.0432 69.2516 49.0711 69.7316 49.0711 70.1956V72.9676H47.3792Z" fill="white"/>
<path d="M40.8049 72.9676V65.1436H45.7009V66.6316H42.5689V68.2036H45.2329V69.6796H42.5689V71.4796H45.8209V72.9676H40.8049Z" fill="white"/>
<path d="M37.1326 73.112C36.4606 73.112 35.8446 72.964 35.2846 72.668C34.7326 72.364 34.2886 71.912 33.9526 71.312C33.6166 70.712 33.4486 69.976 33.4486 69.104C33.4486 68.456 33.5446 67.88 33.7366 67.376C33.9366 66.864 34.2086 66.432 34.5526 66.08C34.8966 65.728 35.2886 65.46 35.7286 65.276C36.1766 65.092 36.6486 65 37.1446 65C37.6486 65 38.1006 65.1 38.5006 65.3C38.9006 65.5 39.2326 65.74 39.4966 66.02L38.5606 67.088C38.3686 66.904 38.1606 66.768 37.9366 66.68C37.7126 66.584 37.4606 66.536 37.1806 66.536C36.8366 66.536 36.5166 66.64 36.2206 66.848C35.9326 67.048 35.7006 67.336 35.5246 67.712C35.3486 68.088 35.2606 68.532 35.2606 69.044C35.2606 69.58 35.3446 70.04 35.5126 70.424C35.6806 70.8 35.9126 71.088 36.2086 71.288C36.5126 71.488 36.8606 71.588 37.2526 71.588C37.5566 71.588 37.8286 71.524 38.0686 71.396C38.3086 71.268 38.5206 71.116 38.7046 70.94L39.5926 71.984C39.2566 72.36 38.8846 72.644 38.4766 72.836C38.0686 73.02 37.6206 73.112 37.1326 73.112Z" fill="white"/>
<path d="M30.2112 72.9676V65.1436H31.9752V72.9676H30.2112Z" fill="white"/>
<path d="M24.0002 72.9676V65.1436H25.7642V71.4796H28.8602V72.9676H24.0002Z" fill="white"/>
</g>
<path d="M65.4049 84.975C65.4776 84.7408 65.7944 84.7408 65.8671 84.975L66.2907 86.3388C66.3232 86.4436 66.4165 86.5145 66.5218 86.5145H67.8925C68.1279 86.5145 68.2258 86.8296 68.0354 86.9744L66.9264 87.8173C66.8412 87.882 66.8056 87.9968 66.8381 88.1015L67.2617 89.4654C67.3345 89.6996 67.0782 89.8944 66.8878 89.7496L65.7788 88.9067C65.6937 88.842 65.5783 88.842 65.4932 88.9067L64.3842 89.7496C64.1938 89.8944 63.9375 89.6996 64.0103 89.4654L64.4338 88.1015C64.4664 87.9968 64.4307 87.882 64.3456 87.8173L63.2366 86.9744C63.0462 86.8296 63.1441 86.5145 63.3795 86.5145H64.7502C64.8555 86.5145 64.9488 86.4436 64.9813 86.3388L65.4049 84.975Z" fill="url(#paint5_linear_5887_10361)"/>
<path d="M80.4049 84.975C80.4776 84.7408 80.7944 84.7408 80.8671 84.975L81.2907 86.3388C81.3232 86.4436 81.4165 86.5145 81.5218 86.5145H82.8925C83.1279 86.5145 83.2258 86.8296 83.0354 86.9744L81.9264 87.8173C81.8412 87.882 81.8056 87.9968 81.8381 88.1015L82.2617 89.4654C82.3345 89.6996 82.0782 89.8944 81.8878 89.7496L80.7788 88.9067C80.6937 88.842 80.5783 88.842 80.4932 88.9067L79.3842 89.7496C79.1938 89.8944 78.9375 89.6996 79.0103 89.4654L79.4338 88.1015C79.4664 87.9968 79.4307 87.882 79.3456 87.8173L78.2366 86.9744C78.0462 86.8296 78.1441 86.5145 78.3795 86.5145H79.7502C79.8555 86.5145 79.9488 86.4436 79.9813 86.3388L80.4049 84.975Z" fill="url(#paint6_linear_5887_10361)"/>
<path d="M72.8587 86.0101C72.9459 85.7291 73.326 85.7291 73.4133 86.0101L73.9216 87.6467C73.9607 87.7724 74.0726 87.8575 74.1989 87.8575H75.8438C76.1263 87.8575 76.2438 88.2357 76.0152 88.4094L74.6845 89.4209C74.5823 89.4986 74.5395 89.6363 74.5786 89.762L75.0869 91.3986C75.1741 91.6797 74.8667 91.9134 74.6381 91.7397L73.3074 90.7282C73.2052 90.6505 73.0668 90.6505 72.9646 90.7282L71.6339 91.7397C71.4053 91.9134 71.0978 91.6797 71.1851 91.3986L71.6934 89.762C71.7325 89.6363 71.6897 89.4986 71.5875 89.4209L70.2567 88.4094C70.0282 88.2357 70.1457 87.8575 70.4281 87.8575H72.073C72.1994 87.8575 72.3113 87.7724 72.3504 87.6467L72.8587 86.0101Z" fill="url(#paint7_linear_5887_10361)"/>
<path d="M72.5002 22.7993C72.7398 22.7993 72.9794 22.8523 73.193 22.9531L83.0054 27.1897C84.1513 27.6829 85.0054 28.8335 85.0002 30.2227C84.9742 35.4827 82.8492 45.1067 73.87 49.4812C73.0002 49.9054 71.9898 49.9054 71.1252 49.4812C62.1461 45.1067 60.0263 35.488 60.0003 30.2227C59.9951 28.8335 60.8492 27.6829 61.9951 27.1897L71.8023 22.9531C72.0159 22.8523 72.2555 22.7993 72.5002 22.7993ZM77.2346 31.5271C76.6773 31.1135 75.8961 31.2408 75.4898 31.8082L71.0315 38.0491L69.6513 36.5963C69.1721 36.0925 68.3805 36.0766 67.8857 36.5644C67.3909 37.0523 67.3753 37.8582 67.8544 38.362L70.2711 40.9071C70.5263 41.1776 70.8857 41.3207 71.2555 41.2942C71.6252 41.2677 71.9638 41.0768 72.1825 40.7746L77.5107 33.3034C77.9169 32.7361 77.7919 31.9407 77.2346 31.5271Z" fill="url(#paint8_linear_5887_10361)"/>
<path d="M118.093 49.5297C118.058 49.228 118.063 48.9578 118.107 48.719C118.158 48.4795 118.232 48.2671 118.331 48.082C118.43 47.8969 118.537 47.7319 118.652 47.5868L119.172 47.8868C119.026 48.0773 118.898 48.2927 118.787 48.5331C118.683 48.7728 118.65 49.0583 118.688 49.3895C118.714 49.6202 118.791 49.8211 118.919 49.9923C119.047 50.1694 119.212 50.3032 119.414 50.3939C119.622 50.4839 119.859 50.5137 120.126 50.4831C120.516 50.4384 120.808 50.294 121.002 50.05C121.196 49.8061 121.271 49.5007 121.229 49.134C121.208 48.9447 121.159 48.7825 121.084 48.6473C121.008 48.5121 120.904 48.3652 120.772 48.2066L120.976 47.7877L123.721 47.6616L124.046 50.492L123.416 50.5642L123.165 48.3727L121.47 48.4142C121.557 48.5421 121.629 48.6717 121.686 48.803C121.743 48.9343 121.781 49.0857 121.801 49.2572C121.838 49.5826 121.81 49.8854 121.716 50.1659C121.623 50.4463 121.451 50.6787 121.203 50.863C120.961 51.0525 120.636 51.1707 120.228 51.2175C119.82 51.2643 119.46 51.2127 119.149 51.0625C118.845 50.9176 118.602 50.7088 118.421 50.4359C118.24 50.163 118.131 49.8609 118.093 49.5297Z" fill="#36500D"/>
<path d="M117.103 43.4539L117.54 43.36C118.206 43.7953 118.791 44.1629 119.294 44.4627C119.804 44.7672 120.252 44.9843 120.639 45.1142C121.027 45.244 121.369 45.2771 121.666 45.2132C121.986 45.1444 122.229 45.0007 122.395 44.7823C122.561 44.5638 122.606 44.2771 122.53 43.922C122.48 43.6892 122.369 43.4876 122.199 43.3172C122.028 43.1469 121.829 43.0009 121.602 42.8792L121.909 42.3931C122.221 42.5695 122.483 42.7719 122.697 43C122.912 43.2339 123.057 43.5285 123.134 43.8835C123.207 44.2269 123.201 44.5388 123.116 44.8192C123.035 45.0982 122.888 45.331 122.672 45.5175C122.456 45.7039 122.185 45.8322 121.859 45.9023C121.499 45.9799 121.119 45.955 120.72 45.8277C120.322 45.7061 119.891 45.5127 119.426 45.2473C118.961 44.982 118.446 44.6723 117.883 44.3185C117.933 44.4661 117.979 44.6207 118.019 44.7824C118.066 44.9429 118.105 45.0959 118.136 45.2414L118.497 46.9178L117.877 47.0511L117.103 43.4539Z" fill="#36500D"/>
<path d="M116.253 41.0284C116.079 40.4839 116.187 39.9779 116.575 39.5102C116.97 39.0464 117.622 38.6696 118.529 38.38C119.443 38.0885 120.186 38.0198 120.761 38.174C121.337 38.3338 121.711 38.686 121.885 39.2305C122.057 39.7694 121.951 40.2689 121.567 40.729C121.19 41.1931 120.548 41.5699 119.64 41.8596C118.733 42.1493 117.983 42.217 117.389 42.0625C116.804 41.912 116.425 41.5673 116.253 41.0284ZM116.815 40.8492C116.882 41.059 117.02 41.218 117.229 41.3261C117.439 41.4343 117.725 41.4774 118.086 41.4557C118.45 41.4396 118.896 41.3474 119.423 41.179C119.956 41.0088 120.373 40.8258 120.673 40.6301C120.975 40.44 121.174 40.242 121.271 40.0361C121.373 39.8284 121.391 39.6196 121.324 39.4098C121.255 39.1942 121.119 39.0315 120.915 38.9216C120.717 38.8099 120.439 38.7611 120.081 38.7754C119.725 38.7953 119.28 38.8904 118.747 39.0606C118.219 39.229 117.802 39.4091 117.494 39.601C117.189 39.7986 116.982 40.0021 116.874 40.2116C116.766 40.4211 116.746 40.6337 116.815 40.8492Z" fill="#36500D"/>
<path d="M114.072 35.1279L114.483 34.9521C115.22 35.2515 115.864 35.5001 116.415 35.6979C116.974 35.8988 117.456 36.0259 117.861 36.0791C118.266 36.1322 118.608 36.099 118.887 35.9794C119.188 35.8504 119.399 35.6628 119.521 35.4166C119.642 35.1703 119.631 34.8803 119.488 34.5464C119.394 34.3275 119.247 34.1509 119.047 34.0164C118.847 33.8819 118.624 33.7768 118.377 33.7009L118.585 33.165C118.925 33.2784 119.222 33.4265 119.475 33.6095C119.731 33.7979 119.93 34.059 120.073 34.3928C120.211 34.7157 120.265 35.023 120.235 35.3146C120.21 35.6038 120.109 35.8606 119.933 36.085C119.757 36.3094 119.516 36.4872 119.21 36.6185C118.87 36.7639 118.493 36.8124 118.077 36.7639C117.663 36.7209 117.203 36.6138 116.696 36.4426C116.188 36.2713 115.624 36.0661 115.003 35.8269C115.081 35.9621 115.155 36.1052 115.226 36.2561C115.303 36.4046 115.37 36.5473 115.429 36.6841L116.105 38.2602L115.522 38.5099L114.072 35.1279Z" fill="#36500D"/>
<path d="M113.329 33.8649C113.264 33.738 113.251 33.6038 113.292 33.4622C113.338 33.3179 113.433 33.209 113.575 33.1353C113.729 33.0562 113.875 33.0411 114.014 33.0899C114.158 33.1361 114.263 33.2226 114.329 33.3495C114.397 33.4817 114.406 33.6173 114.358 33.7563C114.314 33.8926 114.216 34.0003 114.062 34.0793C113.919 34.153 113.777 34.1694 113.636 34.1286C113.499 34.085 113.397 33.9971 113.329 33.8649Z" fill="#36500D"/>
<path d="M111.756 31.1351C111.61 30.8963 111.523 30.6458 111.496 30.3836C111.468 30.1214 111.504 29.8551 111.604 29.5847C111.712 29.3163 111.885 29.0505 112.122 28.7872C112.364 28.5209 112.68 28.2682 113.072 28.0292C113.559 27.7313 114.004 27.5291 114.407 27.4228C114.815 27.3134 115.178 27.2799 115.497 27.3223C115.816 27.3647 116.093 27.4641 116.328 27.6205C116.566 27.782 116.759 27.9847 116.908 28.2286C117.07 28.4928 117.157 28.75 117.17 29C117.192 29.2521 117.171 29.4917 117.107 29.7189L116.504 29.6057C116.562 29.4378 116.581 29.2625 116.56 29.0799C116.544 28.8942 116.49 28.7251 116.396 28.5727C116.257 28.344 116.058 28.1725 115.8 28.0582C115.545 27.9489 115.221 27.9336 114.83 28.0122C114.443 28.0878 113.978 28.2916 113.435 28.6237C113.033 28.8689 112.72 29.1159 112.495 29.3648C112.274 29.6187 112.142 29.8705 112.099 30.12C112.061 30.3663 112.112 30.6039 112.251 30.8325C112.348 30.99 112.478 31.1059 112.642 31.1802C112.814 31.2564 113 31.282 113.201 31.2569C113.41 31.2338 113.622 31.1571 113.835 31.0268C114.043 30.8995 114.204 30.7563 114.316 30.5972C114.433 30.4349 114.492 30.2629 114.492 30.0811C114.498 29.8962 114.439 29.7022 114.315 29.499C114.218 29.3414 114.06 29.2013 113.838 29.0785C113.625 28.9576 113.342 28.8894 112.991 28.8738L113.472 28.5483C113.772 28.5817 114.044 28.6669 114.288 28.8038C114.537 28.9376 114.725 29.1087 114.852 29.317C115.023 29.5965 115.116 29.8745 115.132 30.1511C115.147 30.4277 115.077 30.6902 114.922 30.9385C114.77 31.1919 114.528 31.4195 114.198 31.6212C113.888 31.8105 113.576 31.9105 113.262 31.9212C112.947 31.9318 112.657 31.8683 112.392 31.7305C112.126 31.5927 111.914 31.3942 111.756 31.1351Z" fill="#36500D"/>
<path d="M109.182 27.3335C108.838 26.877 108.772 26.3639 108.984 25.7942C109.205 25.2258 109.695 24.6549 110.456 24.0818C111.222 23.505 111.901 23.1946 112.494 23.1504C113.09 23.1111 113.561 23.3196 113.904 23.7762C114.245 24.2279 114.31 24.7345 114.099 25.2958C113.896 25.8582 113.415 26.4261 112.654 26.9992C111.893 27.5724 111.207 27.8841 110.596 27.9342C109.994 27.9855 109.523 27.7853 109.182 27.3335ZM109.653 26.9788C109.786 27.1548 109.969 27.2592 110.202 27.292C110.436 27.3249 110.719 27.2713 111.054 27.1312C111.392 26.996 111.782 26.7618 112.224 26.4286C112.671 26.0918 113.004 25.7815 113.222 25.4977C113.444 25.2186 113.567 24.9659 113.59 24.7396C113.618 24.5097 113.566 24.3068 113.434 24.1308C113.298 23.9501 113.115 23.8415 112.886 23.8051C112.662 23.7651 112.384 23.8109 112.051 23.9426C111.721 24.0791 111.333 24.3157 110.886 24.6524C110.444 24.9856 110.109 25.2935 109.882 25.5762C109.659 25.8637 109.531 26.1241 109.498 26.3576C109.465 26.591 109.517 26.7981 109.653 26.9788Z" fill="#36500D"/>
<path d="M107.12 24.7312C107.026 24.6238 106.982 24.4964 106.987 24.3492C106.997 24.1981 107.063 24.0696 107.183 23.9638C107.313 23.8501 107.452 23.8002 107.598 23.8142C107.749 23.8242 107.872 23.883 107.966 23.9904C108.064 24.1024 108.106 24.2317 108.092 24.3783C108.083 24.5211 108.013 24.6493 107.883 24.7629C107.762 24.8688 107.628 24.9189 107.481 24.9133C107.338 24.9038 107.218 24.8431 107.12 24.7312Z" fill="#36500D"/>
<path d="M104.718 22.2475C104.502 22.0343 104.336 21.8207 104.221 21.6068C104.11 21.3887 104.035 21.1766 103.995 20.9706C103.956 20.7646 103.936 20.569 103.934 20.3837L104.527 20.2911C104.533 20.5311 104.569 20.7792 104.634 21.0355C104.703 21.2877 104.856 21.5308 105.093 21.7648C105.259 21.9279 105.445 22.036 105.652 22.0893C105.862 22.1467 106.075 22.1473 106.289 22.0911C106.508 22.0306 106.711 21.9049 106.899 21.7141C107.175 21.4343 107.312 21.1386 107.31 20.8271C107.308 20.5156 107.175 20.2302 106.912 19.9711C106.776 19.8373 106.637 19.7415 106.493 19.6835C106.35 19.6256 106.177 19.5763 105.974 19.5357L105.87 19.0817L107.929 17.261L109.957 19.2611L109.512 19.7126L107.941 18.1639L106.648 19.2593C106.796 19.3046 106.933 19.3605 107.06 19.4269C107.187 19.4934 107.312 19.5872 107.434 19.7084C107.668 19.9383 107.836 20.1919 107.939 20.469C108.042 20.7461 108.054 21.0344 107.976 21.3339C107.907 21.6333 107.728 21.9293 107.44 22.2218C107.151 22.5144 106.839 22.6997 106.503 22.7779C106.175 22.856 105.855 22.8456 105.543 22.7468C105.23 22.648 104.955 22.4815 104.718 22.2475Z" fill="#36500D"/>
<path d="M101.517 19.3943C101.073 19.0346 100.885 18.5528 100.952 17.9488C101.029 17.3439 101.366 16.6713 101.966 15.9309C102.569 15.1859 103.153 14.7203 103.717 14.5339C104.287 14.3513 104.793 14.4398 105.238 14.7995C105.677 15.1554 105.863 15.6312 105.794 16.2268C105.734 16.8216 105.404 17.4891 104.805 18.2295C104.205 18.9698 103.615 19.4383 103.035 19.6348C102.463 19.8304 101.957 19.7502 101.517 19.3943ZM101.888 18.9362C102.059 19.0748 102.262 19.1318 102.497 19.1072C102.731 19.0825 102.994 18.9618 103.284 18.745C103.579 18.5319 103.901 18.2102 104.249 17.7799C104.601 17.3449 104.849 16.9633 104.992 16.635C105.14 16.3104 105.198 16.0355 105.166 15.8103C105.138 15.5805 105.038 15.3962 104.867 15.2576C104.691 15.1152 104.488 15.0541 104.257 15.0741C104.03 15.0895 103.771 15.2014 103.479 15.4098C103.193 15.622 102.873 15.9456 102.521 16.3805C102.173 16.8109 101.923 17.1906 101.771 17.5198C101.624 17.8528 101.563 18.1365 101.587 18.3709C101.612 18.6054 101.712 18.7938 101.888 18.9362Z" fill="#36500D"/>
<path d="M96.5446 17.3953L102.874 12.2972L103.318 12.5975L96.9883 17.6957L96.5446 17.3953Z" fill="#36500D"/>
<path d="M93.3894 14.001L96.2396 8.88243L97.7611 9.72965C98.1044 9.92082 98.3855 10.1319 98.6045 10.3628C98.8234 10.5938 98.9536 10.8434 98.995 11.1118C99.0445 11.3779 98.9866 11.6591 98.8215 11.9556C98.6738 12.2209 98.4785 12.4188 98.2354 12.5493C98.0005 12.6774 97.7391 12.7124 97.4512 12.6543L97.4338 12.6855C97.7245 12.9223 97.9069 13.1943 97.9812 13.5015C98.0584 13.8034 98.0014 14.126 97.8103 14.4693C97.6191 14.8127 97.378 15.0498 97.087 15.1808C96.8012 15.3147 96.4808 15.3577 96.1258 15.31C95.7737 15.257 95.4051 15.1234 95.0202 14.909L93.3894 14.001ZM95.675 11.42L96.4319 11.8414C96.8688 12.0847 97.2255 12.1845 97.502 12.1409C97.7785 12.0972 97.9891 11.9453 98.1339 11.6852C98.3019 11.3835 98.3178 11.1163 98.1815 10.8837C98.0482 10.6459 97.7839 10.417 97.3885 10.1968L96.6004 9.75802L95.675 11.42ZM94.3238 13.8466L95.2133 14.3419C95.6555 14.5881 96.0437 14.6986 96.378 14.6735C96.7151 14.6432 96.9793 14.4564 97.1705 14.1131C97.3471 13.7958 97.3564 13.4977 97.1982 13.2188C97.0429 12.9347 96.739 12.6666 96.2865 12.4147L95.397 11.9194L94.3238 13.8466Z" fill="#36500D"/>
<path d="M90.5009 12.7983C90.2214 12.6796 89.9871 12.5382 89.7982 12.3739C89.6147 12.2119 89.4667 12.0424 89.3543 11.8653C89.2419 11.6882 89.1533 11.5083 89.0886 11.3256L89.6223 11.0282C89.7115 11.2601 89.8334 11.4833 89.9882 11.6977C90.1484 11.9145 90.3847 12.0892 90.6971 12.2218C91.015 12.3568 91.3125 12.3796 91.5897 12.2903C91.8669 12.201 92.0672 12.0111 92.1905 11.7206C92.2789 11.5124 92.3009 11.3082 92.2564 11.1083C92.2197 10.9051 92.0967 10.7074 91.8873 10.515C91.6834 10.325 91.3732 10.1415 90.9567 9.96471L91.1765 9.44681C91.5492 9.60501 91.861 9.68562 92.112 9.68867C92.3684 9.69404 92.5735 9.64524 92.7271 9.5423C92.8831 9.43388 93.0006 9.2865 93.0797 9.10016C93.1891 8.84258 93.1929 8.6049 93.0913 8.38714C92.9952 8.1717 92.8074 8.00466 92.5279 7.88601C92.3087 7.79295 92.085 7.7562 91.8567 7.77575C91.6285 7.7953 91.404 7.85197 91.1831 7.94577L91.0028 7.36475C91.287 7.25901 91.578 7.19819 91.8758 7.18231C92.1759 7.16095 92.4795 7.2154 92.7864 7.34568C93.0933 7.47596 93.3425 7.64319 93.5339 7.84735C93.7254 8.05152 93.845 8.28017 93.8928 8.5333C93.946 8.78876 93.9122 9.05898 93.7912 9.34397C93.6563 9.66183 93.4581 9.88494 93.1966 10.0133C92.9352 10.1416 92.6387 10.2001 92.3072 10.1887L92.2932 10.2216C92.486 10.3617 92.6418 10.528 92.7605 10.7207C92.8815 10.9079 92.953 11.1129 92.9749 11.3356C93.0022 11.5607 92.9647 11.7938 92.8624 12.0349C92.7298 12.3473 92.539 12.5833 92.2902 12.7429C92.0437 12.8969 91.7633 12.9784 91.4491 12.9873C91.1348 12.9962 90.8188 12.9332 90.5009 12.7983Z" fill="#36500D"/>
<path d="M86.9386 9.25893L87.1167 8.72521L89.0652 9.37521L88.8872 9.90893L86.9386 9.25893Z" fill="#36500D"/>
<path d="M83.9634 10.6075C83.6919 10.5397 83.4543 10.4222 83.2506 10.2547C83.0469 10.0873 82.8858 9.87224 82.7673 9.60948C82.656 9.34239 82.5923 9.03195 82.5763 8.67817C82.5617 8.31862 82.6099 7.91644 82.7208 7.47164C82.8592 6.91707 83.0345 6.46068 83.2466 6.10247C83.4601 5.73848 83.6954 5.45968 83.9523 5.26607C84.2093 5.07245 84.4763 4.94887 84.7536 4.89532C85.0366 4.84321 85.3167 4.85174 85.594 4.92093C85.8944 4.99588 86.137 5.11779 86.322 5.28666C86.5141 5.45119 86.6672 5.63668 86.7814 5.84312L86.2725 6.18558C86.1959 6.02533 86.0861 5.88748 85.9431 5.77202C85.8016 5.65079 85.6441 5.56855 85.4708 5.5253C85.2109 5.46044 84.9488 5.47789 84.6846 5.57764C84.4261 5.67884 84.1851 5.89483 83.9614 6.22561C83.7392 6.55061 83.5509 7.02217 83.3967 7.64028C83.2828 8.09664 83.2332 8.49232 83.2478 8.82733C83.2682 9.16377 83.3506 9.43594 83.4951 9.64381C83.641 9.84591 83.844 9.97938 84.1039 10.0442C84.283 10.0889 84.457 10.0802 84.6259 10.018C84.8021 9.95152 84.9529 9.83882 85.0785 9.67992C85.2112 9.51669 85.3079 9.31375 85.3684 9.07113C85.4275 8.83429 85.4412 8.61985 85.4093 8.42781C85.3789 8.22999 85.3001 8.06613 85.173 7.93622C85.0473 7.80054 84.8689 7.70388 84.6378 7.64622C84.4588 7.60154 84.2472 7.61319 84.0032 7.68116C83.7664 7.74481 83.5174 7.89437 83.2561 8.12987L83.3707 7.56015C83.6074 7.37376 83.8608 7.24369 84.1308 7.16993C84.4022 7.09038 84.6564 7.08015 84.8932 7.13925C85.2109 7.21853 85.4724 7.35126 85.6775 7.53745C85.8826 7.72363 86.017 7.95967 86.0807 8.24556C86.1501 8.53288 86.138 8.8643 86.0443 9.23978C85.9564 9.59216 85.8042 9.88248 85.5877 10.1107C85.3712 10.339 85.12 10.4972 84.8341 10.5854C84.5482 10.6736 84.258 10.681 83.9634 10.6075Z" fill="#36500D"/>
<path d="M79.3472 9.68722C79.0469 9.64246 78.7847 9.56425 78.5605 9.45259C78.3423 9.34181 78.1566 9.21481 78.0033 9.07158C77.8501 8.92835 77.7193 8.77641 77.6108 8.61577L78.0528 8.19407C78.1973 8.39619 78.3713 8.58165 78.5749 8.75044C78.7844 8.92011 79.0569 9.02995 79.3926 9.07998C79.7342 9.13088 80.0279 9.07835 80.2739 8.92239C80.5199 8.76642 80.6661 8.53238 80.7126 8.22027C80.746 7.9965 80.716 7.79339 80.6228 7.61095C80.5364 7.4235 80.3677 7.26292 80.1167 7.1292C79.8717 6.99637 79.5254 6.8966 79.0778 6.8299L79.1608 6.27341C79.5612 6.33309 79.8833 6.33293 80.127 6.27294C80.3766 6.21383 80.5628 6.11518 80.6858 5.97699C80.8096 5.83291 80.8864 5.66076 80.9162 5.46055C80.9575 5.18377 80.9016 4.95272 80.7487 4.76739C80.6016 4.58294 80.3779 4.46834 80.0776 4.42358C79.842 4.38847 79.6162 4.409 79.4002 4.48516C79.1842 4.56132 78.981 4.67249 78.7907 4.81869L78.4705 4.30144C78.7191 4.12781 78.9855 3.99597 79.2698 3.90591C79.555 3.80996 79.8625 3.78656 80.1923 3.8357C80.522 3.88485 80.8052 3.98424 81.0417 4.13386C81.2783 4.28349 81.4514 4.47484 81.5611 4.7079C81.6768 4.94183 81.7118 5.21191 81.6661 5.51813C81.6152 5.85968 81.4793 6.12535 81.2584 6.31515C81.0375 6.50495 80.7651 6.63592 80.4414 6.70806L80.4361 6.74339C80.6579 6.83062 80.8504 6.95261 81.0136 7.10937C81.1777 7.26024 81.2983 7.44074 81.3754 7.65087C81.4583 7.86188 81.4804 8.09694 81.4418 8.35604C81.3918 8.6917 81.2663 8.96797 81.0655 9.18483C80.8655 9.39581 80.6145 9.54501 80.3125 9.63243C80.0106 9.71986 79.6888 9.73812 79.3472 9.68722Z" fill="#36500D"/>
<path d="M74.6701 9.24442C74.3669 9.22893 74.1052 9.15893 73.885 9.03442C73.6651 8.90396 73.4791 8.75138 73.3271 8.57669L73.7611 8.13385C73.873 8.27668 74.0071 8.39382 74.1634 8.48527C74.3256 8.57701 74.496 8.62744 74.6743 8.63655C74.9479 8.65052 75.2017 8.583 75.4358 8.434C75.6703 8.27905 75.8653 8.02073 76.0209 7.65906C76.1827 7.29175 76.2799 6.78997 76.3124 6.15374C76.3364 5.684 76.3059 5.28897 76.2209 4.96867C76.1362 4.64242 76.003 4.39119 75.8212 4.21499C75.6454 4.03908 75.4207 3.94414 75.1472 3.93018C74.9629 3.92076 74.7936 3.96578 74.6395 4.06522C74.4857 4.15871 74.3593 4.29831 74.2604 4.48403C74.1618 4.6638 74.1061 4.87856 74.0934 5.12829C74.0809 5.37208 74.1087 5.58812 74.1765 5.77639C74.2507 5.95903 74.3625 6.10484 74.5119 6.21382C74.6616 6.31685 74.8525 6.37428 75.0844 6.38612C75.2687 6.39554 75.4739 6.3464 75.7 6.23871C75.9264 6.12508 76.1421 5.92745 76.3473 5.64581L76.3444 6.22691C76.1598 6.45595 75.939 6.63544 75.682 6.7654C75.4253 6.8894 75.175 6.94518 74.9312 6.93273C74.6042 6.91603 74.3221 6.83605 74.085 6.69279C73.8479 6.54952 73.6706 6.34374 73.5532 6.07543C73.4357 5.80712 73.3869 5.47972 73.4066 5.09323C73.4251 4.73052 73.5157 4.41619 73.6783 4.15026C73.8472 3.87869 74.0633 3.67511 74.3265 3.53952C74.5901 3.39798 74.8735 3.33495 75.1768 3.35044C75.4563 3.36471 75.712 3.4344 75.9441 3.55953C76.1821 3.68495 76.3814 3.86802 76.542 4.10872C76.7089 4.34378 76.831 4.63617 76.9086 4.98591C76.9923 5.32999 77.0225 5.73096 76.9992 6.18881C76.97 6.75964 76.8856 7.24418 76.7461 7.64244C76.6065 8.0407 76.4293 8.35953 76.2143 8.59894C75.9994 8.83835 75.7581 9.01084 75.4904 9.1164C75.229 9.21632 74.9555 9.25899 74.6701 9.24442Z" fill="#36500D"/>
<path d="M66.8007 9.47111L66.2457 3.63889L68.0683 3.46546C68.4654 3.42767 68.8231 3.44746 69.1415 3.52481C69.4593 3.59625 69.7157 3.74529 69.9107 3.97194C70.1111 4.1921 70.2304 4.5037 70.2688 4.90674C70.306 5.29793 70.2478 5.62941 70.0943 5.9012C69.9467 6.17242 69.7249 6.38789 69.4291 6.54761C69.1328 6.70141 68.786 6.7972 68.3889 6.83499L67.3043 6.9382L67.5386 9.40089L66.8007 9.47111ZM67.2467 6.33364L68.2247 6.24058C68.6811 6.19716 69.0221 6.07201 69.2476 5.86515C69.4725 5.65236 69.567 5.3563 69.5309 4.97697C69.4948 4.59763 69.3479 4.34248 69.0902 4.2115C68.832 4.07459 68.4747 4.02785 68.0183 4.07128L67.0403 4.16434L67.2467 6.33364ZM70.0013 9.16655L68.2272 6.64404L68.7679 6.19786L70.837 9.08702L70.0013 9.16655Z" fill="#36500D"/>
<path d="M62.1762 10.3255L61.0073 4.58475L64.3152 3.91119L64.4399 4.52378L61.8583 5.04944L62.2254 6.85217L64.4044 6.40849L64.531 7.02982L62.3519 7.47351L62.776 9.55629L65.4451 9.01282L65.5716 9.63415L62.1762 10.3255Z" fill="#36500D"/>
<path d="M57.1572 11.8413L55.3711 6.26161L57.0298 5.73072C57.404 5.61092 57.7502 5.5501 58.0685 5.54826C58.3867 5.54642 58.6579 5.62216 58.882 5.77547C59.11 5.9213 59.2757 6.15582 59.3791 6.47904C59.4717 6.76823 59.4825 7.04609 59.4115 7.31261C59.3444 7.57165 59.1912 7.78635 58.9519 7.95671L58.9628 7.99073C59.3343 7.94057 59.6576 7.9934 59.9325 8.1492C60.2056 8.29934 60.402 8.56153 60.5218 8.93578C60.6416 9.31002 60.6498 9.64811 60.5464 9.95002C60.4487 10.2501 60.261 10.5134 59.9834 10.7397C59.704 10.9605 59.3544 11.138 58.9348 11.2723L57.1572 11.8413ZM56.8367 8.40871L57.6618 8.14463C58.1381 7.99216 58.4548 7.80013 58.612 7.56853C58.7692 7.33693 58.8024 7.07938 58.7116 6.79585C58.6063 6.46697 58.4223 6.27271 58.1594 6.21307C57.8947 6.14777 57.5468 6.18409 57.1159 6.32203L56.2568 6.59701L56.8367 8.40871ZM57.6834 11.054L58.6531 10.7436C59.1351 10.5893 59.4812 10.3816 59.6914 10.1205C59.8998 9.85378 59.9442 9.53328 59.8244 9.15903C59.7137 8.81313 59.5025 8.60254 59.1908 8.52726C58.8773 8.44631 58.4739 8.4848 57.9806 8.6427L57.011 8.95308L57.6834 11.054Z" fill="#36500D"/>
<path d="M51.2403 14.4777L48.7731 9.16398L49.6236 8.76908L51.9481 11.1459C52.0957 11.294 52.2378 11.4446 52.3746 11.5978C52.5167 11.7484 52.6639 11.9098 52.816 12.082L52.8484 12.067C52.8151 11.8396 52.784 11.6243 52.7553 11.421C52.7265 11.2177 52.7005 11.0132 52.6771 10.8074L52.3615 7.49788L53.2039 7.10673L55.6711 12.4205L55.0393 12.7138L53.6816 9.78965C53.6089 9.63304 53.5328 9.45504 53.4533 9.25562C53.3738 9.0562 53.2956 8.85947 53.2187 8.66546C53.1446 8.46353 53.0793 8.2805 53.0228 8.11637L52.9904 8.13142L53.1715 9.60306L53.4502 12.8116L52.9561 13.041L50.6848 10.7577L49.6774 9.66965L49.645 9.6847C49.7339 9.83378 49.8289 10.003 49.93 10.1924C50.0339 10.3739 50.1365 10.5593 50.2375 10.7487C50.3386 10.9381 50.4255 11.1111 50.4982 11.2677L51.8559 14.1919L51.2403 14.4777Z" fill="#36500D"/>
<path d="M48.1559 16.4569C47.9004 16.621 47.6424 16.7371 47.382 16.8054C47.1233 16.8653 46.8623 16.8667 46.5991 16.8093C46.3326 16.747 46.0674 16.6095 45.8035 16.3969C45.5396 16.1842 45.2837 15.8851 45.036 15.4993L43.1587 12.5762L43.7824 12.1756L45.6694 15.1138C45.9171 15.4995 46.1635 15.773 46.4084 15.934C46.6552 16.0869 46.8943 16.1562 47.1258 16.142C47.359 16.1196 47.5833 16.0392 47.7988 15.9008C48.0142 15.7625 48.1806 15.5919 48.298 15.3891C48.4172 15.1781 48.4587 14.9286 48.4223 14.6406C48.3827 14.3476 48.2391 14.0083 47.9913 13.6225L46.1043 10.6844L46.698 10.3031L48.5753 13.2262C48.8231 13.612 48.9887 13.9691 49.0723 14.2975C49.1608 14.6227 49.1781 14.9195 49.1239 15.1877C49.0666 15.451 48.9543 15.6894 48.7872 15.9029C48.6168 16.1114 48.4064 16.296 48.1559 16.4569Z" fill="#36500D"/>
<path d="M41.856 21.1175L38.0966 16.6242L38.7199 16.1027L42.654 17.5621C42.8668 17.6402 43.0808 17.7289 43.296 17.8284C43.5074 17.9232 43.7225 18.0227 43.9415 18.1267L43.9689 18.1038C43.7604 17.8823 43.5457 17.6583 43.325 17.4315C43.1004 17.2002 42.8926 16.9704 42.7016 16.7421L40.7474 14.4064L41.2953 13.9479L45.0547 18.4412L44.4314 18.9627L40.4973 17.5034C40.289 17.4215 40.0728 17.3346 39.8485 17.2428C39.6287 17.1472 39.4136 17.0478 39.203 16.9445L39.1756 16.9674C39.381 17.1759 39.5899 17.3931 39.8023 17.6191C40.0192 17.8413 40.229 18.0734 40.4314 18.3154L42.3971 20.6648L41.856 21.1175Z" fill="#36500D"/>
<path d="M37.3864 25.8153L32.9958 21.9365L35.2308 19.4066L35.6993 19.8205L33.9551 21.7949L35.3338 23.013L36.8061 21.3464L37.2813 21.7662L35.809 23.4328L37.402 24.84L39.2054 22.7986L39.6806 23.2184L37.3864 25.8153Z" fill="#36500D"/>
<path d="M35.5961 28.3925C35.3562 28.7334 35.0736 29.0004 34.7483 29.1937C34.4181 29.3836 34.068 29.5086 33.6982 29.5686L33.5454 28.9478C33.8454 28.9042 34.1288 28.8015 34.3956 28.6397C34.6657 28.4731 34.8899 28.2632 35.0681 28.01C35.2908 27.6935 35.3932 27.398 35.3754 27.1233C35.3527 26.8452 35.2245 26.624 34.9908 26.4595C34.8252 26.343 34.6681 26.287 34.5193 26.2915C34.3739 26.2911 34.2243 26.3278 34.0705 26.4016C33.9201 26.4704 33.7577 26.5564 33.5833 26.6593L32.8007 27.1351C32.6229 27.2429 32.4298 27.3363 32.2213 27.4153C32.0163 27.4894 31.8016 27.5204 31.5772 27.5081C31.348 27.4924 31.1166 27.4023 30.8829 27.2378C30.6394 27.0665 30.4673 26.8507 30.3665 26.5905C30.2642 26.322 30.2384 26.038 30.2889 25.7387C30.3379 25.431 30.4653 25.1311 30.6709 24.839C30.8765 24.5468 31.1185 24.3167 31.3969 24.1487C31.6754 23.9806 31.9581 23.8738 32.245 23.8282L32.4081 24.4344C32.1704 24.4928 31.9492 24.5847 31.7445 24.71C31.535 24.8319 31.3548 25 31.204 25.2142C31.0156 25.482 30.9264 25.7432 30.9365 25.9978C30.95 26.2476 31.0639 26.4479 31.2781 26.5986C31.429 26.7049 31.5806 26.7533 31.7328 26.7439C31.885 26.7345 32.0356 26.6913 32.1845 26.6141C32.3369 26.532 32.4869 26.4483 32.6344 26.3628L33.4045 25.8892C33.621 25.7575 33.8341 25.6564 34.044 25.5857C34.2574 25.5102 34.4735 25.4875 34.6924 25.5178C34.9148 25.5433 35.1428 25.6382 35.3765 25.8027C35.6297 25.9809 35.8147 26.2094 35.9316 26.4882C36.047 26.7587 36.0782 27.0609 36.0251 27.3949C35.9755 27.724 35.8325 28.0566 35.5961 28.3925Z" fill="#36500D"/>
<path d="M31.7193 34.6771L26.5825 31.8601L26.9732 31.1475L31.1687 31.075C31.3953 31.0703 31.627 31.0751 31.8636 31.0894C32.095 31.1009 32.3316 31.1152 32.5734 31.1324L32.5906 31.1011C32.3157 30.9707 32.0342 30.8401 31.7461 30.7093C31.4528 30.5756 31.1756 30.4371 30.9146 30.294L28.2443 28.8297L28.5879 28.2032L33.7247 31.0202L33.334 31.7328L29.1385 31.8053C28.9147 31.8048 28.6817 31.8026 28.4393 31.7987C28.1999 31.7896 27.9633 31.7753 27.7295 31.7558L27.7123 31.7871C27.9796 31.9065 28.2532 32.0328 28.5333 32.166C28.8162 32.294 29.096 32.4338 29.3727 32.5856L32.0586 34.0585L31.7193 34.6771Z" fill="#36500D"/>
<path d="M29.842 38.9889L24.4275 36.7515L25.7167 33.6316L26.2944 33.8703L25.2883 36.3052L26.9886 37.0078L27.8379 34.9526L28.4239 35.1947L27.5746 37.2499L29.5391 38.0616L30.5793 35.5442L31.1653 35.7864L29.842 38.9889Z" fill="#36500D"/>
<path d="M29.0694 41.7539C28.9353 42.2233 28.6998 42.6142 28.3629 42.9267C28.0219 43.2318 27.6036 43.4281 27.108 43.5157C26.6125 43.6032 26.0584 43.5595 25.4458 43.3846C24.9935 43.2554 24.6042 43.0792 24.2779 42.856C23.9532 42.627 23.6976 42.3621 23.5111 42.0612C23.3189 41.7586 23.1994 41.4397 23.1528 41.1043C23.1078 40.7633 23.1368 40.4125 23.2398 40.0518C23.3362 39.714 23.4908 39.4331 23.7034 39.209C23.9176 38.9791 24.1421 38.8111 24.3768 38.7047L24.7044 39.2162C24.5016 39.3193 24.3294 39.4559 24.188 39.626C24.0424 39.7888 23.9361 39.9875 23.8691 40.2222C23.7694 40.5715 23.7755 40.9076 23.8876 41.2306C23.9956 41.5463 24.2001 41.8276 24.5011 42.0745C24.7963 42.3199 25.1758 42.5087 25.6395 42.6412C26.1147 42.7769 26.5445 42.8222 26.9289 42.7772C27.3132 42.7322 27.6383 42.6021 27.9041 42.387C28.1641 42.1702 28.3456 41.8815 28.4486 41.5208C28.5238 41.2575 28.5422 41.0089 28.5038 40.775C28.4612 40.5337 28.3671 40.2994 28.2215 40.0721L28.7502 39.8144C28.9441 40.1113 29.0733 40.4175 29.138 40.7332C29.1969 41.0472 29.174 41.3875 29.0694 41.7539Z" fill="#36500D"/>
<path d="M27.8324 46.146L22.0877 44.9967L22.2331 44.2699L27.9779 45.4192L27.8324 46.146Z" fill="#36500D"/>
<path d="M27.2068 50.4414L21.3997 49.6663L21.4978 48.9315L26.6763 49.6228L27.0154 47.0822L27.644 47.1661L27.2068 50.4414Z" fill="#36500D"/>
<path d="M110.798 89.4489L108.487 87.2455L108.689 87.0336L111 89.2371L110.798 89.4489ZM108.025 86.6119C107.976 86.6632 107.917 86.6897 107.848 86.6914C107.776 86.6899 107.711 86.6617 107.653 86.6066C107.595 86.5515 107.567 86.491 107.569 86.4251C107.567 86.3561 107.591 86.296 107.64 86.2446C107.692 86.19 107.751 86.1635 107.817 86.1651C107.882 86.1604 107.944 86.1856 108.002 86.2407C108.06 86.2958 108.091 86.3593 108.096 86.4314C108.101 86.4971 108.077 86.5573 108.025 86.6119Z" fill="#36500D"/>
<path d="M109.31 90.9458L107.065 88.6755L107.245 88.4977L107.68 88.8999L107.694 88.8859C107.629 88.6754 107.607 88.473 107.627 88.2787C107.647 88.0781 107.726 87.9092 107.865 87.772C107.906 87.7314 107.947 87.6972 107.988 87.6692C108.032 87.638 108.082 87.6132 108.139 87.5947L108.26 87.8306C108.219 87.8523 108.183 87.8757 108.151 87.9006C108.12 87.9192 108.08 87.9519 108.033 87.9987C107.932 88.0985 107.869 88.2487 107.842 88.4492C107.816 88.6435 107.865 88.8915 107.989 89.1933L109.519 90.74L109.31 90.9458Z" fill="#36500D"/>
<path d="M107.473 92.7432C107.348 92.8558 107.211 92.9364 107.064 92.985C106.92 93.0307 106.774 93.0338 106.626 92.9944C106.474 92.9518 106.333 92.8578 106.203 92.7126C105.963 92.4454 105.906 92.133 106.032 91.7754C106.155 91.4146 106.453 90.9674 106.928 90.4339C106.818 90.3118 106.697 90.2063 106.563 90.1175C106.433 90.0257 106.294 89.9806 106.147 89.9821C105.999 89.9773 105.846 90.0461 105.688 90.1883C105.53 90.3305 105.413 90.4923 105.337 90.6735C105.258 90.8514 105.203 91.0055 105.171 91.1357L104.934 91.0711C104.952 90.9779 104.984 90.8681 105.032 90.7419C105.076 90.6124 105.14 90.4808 105.223 90.347C105.308 90.2103 105.416 90.0842 105.544 89.9686C105.729 89.8026 105.913 89.712 106.096 89.6967C106.282 89.6785 106.461 89.7179 106.631 89.815C106.805 89.9091 106.968 90.0403 107.119 90.2086L108.484 91.7281L108.296 91.897L108 91.6079L107.985 91.6212C107.953 91.8236 107.898 92.0279 107.821 92.2342C107.744 92.4342 107.628 92.6039 107.473 92.7432ZM107.339 92.5146C107.474 92.3931 107.577 92.2447 107.646 92.0694C107.715 91.8878 107.768 91.6677 107.804 91.4089L107.084 90.6071C106.79 90.9368 106.576 91.2205 106.444 91.4584C106.309 91.693 106.242 91.8935 106.242 92.06C106.243 92.2265 106.299 92.3724 106.412 92.4978C106.563 92.6661 106.721 92.742 106.885 92.7257C107.053 92.7065 107.204 92.6361 107.339 92.5146Z" fill="#36500D"/>
<path d="M105.74 94.131L103.728 91.6508L103.956 91.4665L105.967 93.9466L105.74 94.131ZM103.351 90.9635C103.296 91.0082 103.234 91.0269 103.165 91.0198C103.094 91.0092 103.033 90.9728 102.983 90.9108C102.932 90.8488 102.912 90.7852 102.922 90.7201C102.929 90.6515 102.96 90.5948 103.015 90.5501C103.074 90.5026 103.136 90.4838 103.201 90.4938C103.267 90.4975 103.325 90.5304 103.375 90.5924C103.425 90.6544 103.448 90.7214 103.444 90.7935C103.44 90.8593 103.409 90.916 103.351 90.9635Z" fill="#36500D"/>
<path d="M103.747 95.7409C103.426 95.9786 103.082 96.0543 102.715 95.968C102.351 95.8791 102.009 95.6191 101.689 95.188C101.483 94.9101 101.358 94.6331 101.313 94.357C101.269 94.0747 101.292 93.8149 101.381 93.5777C101.474 93.3378 101.622 93.1426 101.825 92.9921C101.982 92.8758 102.139 92.8009 102.296 92.7671C102.453 92.7334 102.632 92.722 102.834 92.7329L102.474 92.2705L101.69 91.2124L101.925 91.0381L104.774 94.8804L104.571 95.031L104.304 94.7155L104.288 94.7274C104.261 94.9073 104.207 95.091 104.125 95.2786C104.044 95.46 103.918 95.6141 103.747 95.7409ZM103.625 95.5087C103.767 95.4031 103.876 95.2671 103.951 95.1007C104.028 94.9282 104.084 94.724 104.119 94.4883L102.989 92.9652C102.764 92.9445 102.574 92.9527 102.42 92.99C102.265 93.0273 102.124 93.0935 101.996 93.1886C101.825 93.3154 101.708 93.4788 101.647 93.679C101.585 93.8791 101.578 94.0968 101.626 94.3321C101.674 94.5612 101.779 94.7845 101.94 95.0018C102.191 95.3402 102.468 95.5604 102.77 95.6623C103.069 95.7607 103.354 95.7095 103.625 95.5087Z" fill="#36500D"/>
<path d="M101.231 97.4923C101 97.6412 100.755 97.7198 100.497 97.728C100.238 97.7363 99.9857 97.672 99.7394 97.5353C99.4906 97.3948 99.2725 97.1792 99.0852 96.8884C98.8955 96.5939 98.7893 96.3062 98.7666 96.0253C98.7416 95.7408 98.7806 95.4861 98.8838 95.2614C98.9883 95.0305 99.1412 94.8502 99.3426 94.7205C99.5551 94.5836 99.769 94.5144 99.9843 94.5129C100.203 94.5089 100.414 94.5737 100.616 94.7073C100.816 94.8372 101.001 95.0345 101.171 95.2992C101.191 95.329 101.21 95.3637 101.231 95.4034C101.252 95.437 101.271 95.4748 101.288 95.5169L99.2578 96.8247L99.1209 96.6122L100.933 95.4449C100.712 95.1019 100.477 94.8921 100.227 94.8156C99.9746 94.7354 99.7274 94.7733 99.4851 94.9294C99.3359 95.0255 99.2181 95.1621 99.1317 95.3391C99.0453 95.5161 99.0131 95.7241 99.0352 95.9631C99.0586 96.196 99.1567 96.4467 99.3297 96.7151C99.4882 96.9612 99.671 97.1467 99.8782 97.2718C100.083 97.3931 100.293 97.453 100.508 97.4514C100.721 97.4462 100.923 97.3823 101.113 97.2598C101.258 97.1661 101.379 97.0622 101.474 96.9481C101.571 96.8278 101.644 96.7041 101.694 96.5769L101.906 96.6855C101.847 96.8235 101.77 96.9607 101.673 97.097C101.576 97.2332 101.429 97.365 101.231 97.4923Z" fill="#36500D"/>
<path d="M95.4313 100.658L93.9323 97.8388L94.1555 97.7201L94.4101 98.1423L94.4277 98.1329C94.476 97.9214 94.5515 97.7281 94.6542 97.5529C94.7588 97.3717 94.8894 97.2395 95.046 97.1562C95.2771 97.0334 95.4794 96.9936 95.6531 97.0368C95.8287 97.0741 95.9887 97.1673 96.1333 97.3165C96.1981 97.051 96.2817 96.8257 96.3842 96.6406C96.4907 96.4534 96.6241 96.3171 96.7847 96.2318C97.0666 96.0818 97.326 96.0595 97.5627 96.1647C97.7974 96.2659 98.0116 96.4986 98.2052 96.8628L99.1671 98.672L98.9028 98.8125L97.9596 97.0386C97.7993 96.7371 97.6307 96.5429 97.454 96.4561C97.279 96.3632 97.0819 96.3751 96.8626 96.4917C96.7295 96.5625 96.6183 96.6794 96.5292 96.8423C96.4379 97.0013 96.3608 97.2106 96.2979 97.4701L97.4284 99.5964L97.17 99.7338L96.2268 97.9599C96.0665 97.6584 95.8979 97.4642 95.7212 97.3774C95.5423 97.2866 95.3433 97.2995 95.124 97.4161C94.8734 97.5494 94.6851 97.8755 94.5592 98.3945L95.6898 100.521L95.4313 100.658Z" fill="#36500D"/>
<path d="M93.5232 101.559L92.2158 98.6457L92.4465 98.5422L92.7131 99.0715L92.7314 99.0633C92.7445 98.8435 92.7945 98.6461 92.8812 98.4711C92.9702 98.2902 93.1036 98.1598 93.2817 98.0799C93.3343 98.0563 93.3847 98.0385 93.4328 98.0267C93.485 98.013 93.5408 98.0074 93.6003 98.0099L93.6309 98.2732C93.585 98.2792 93.5429 98.2883 93.5047 98.3006C93.4687 98.3071 93.4204 98.3239 93.3597 98.3511C93.2302 98.4093 93.118 98.5276 93.0232 98.7063C92.9306 98.8791 92.8894 99.1285 92.8996 99.4545L93.7903 101.439L93.5232 101.559Z" fill="#36500D"/>
<path d="M91.692 102.38C91.435 102.478 91.1792 102.504 90.9247 102.459C90.6701 102.413 90.4364 102.298 90.2237 102.113C90.0094 101.924 89.8407 101.668 89.7176 101.345C89.5929 101.018 89.5485 100.714 89.5845 100.435C89.6188 100.151 89.7097 99.91 89.8572 99.7115C90.0072 99.5073 90.1941 99.3625 90.4179 99.2773C90.6542 99.1873 90.8778 99.1639 91.0887 99.2069C91.3039 99.2484 91.4965 99.3554 91.6666 99.5279C91.8351 99.6963 91.9754 99.9276 92.0874 100.222C92.1001 100.255 92.1122 100.293 92.1238 100.336C92.138 100.373 92.1489 100.414 92.1564 100.459L89.8996 101.318L89.8097 101.082L91.824 100.315C91.6787 99.9338 91.4919 99.6798 91.2634 99.5533C91.0333 99.4226 90.7835 99.4086 90.5141 99.5112C90.3483 99.5743 90.2048 99.6835 90.0836 99.8388C89.9624 99.9941 89.8879 100.191 89.8601 100.429C89.8348 100.662 89.8789 100.928 89.9926 101.226C90.0968 101.5 90.2373 101.719 90.4141 101.884C90.5893 102.045 90.7824 102.147 90.9934 102.19C91.2028 102.229 91.4131 102.208 91.6245 102.128C91.7862 102.066 91.9254 101.99 92.0422 101.898C92.1617 101.8 92.259 101.694 92.3342 101.58L92.5195 101.73C92.4334 101.853 92.3289 101.971 92.2059 102.084C92.083 102.198 91.9117 102.296 91.692 102.38Z" fill="#36500D"/>
<path d="M89.4863 103.168C89.1918 103.266 88.9639 103.249 88.8026 103.116C88.6414 102.982 88.5158 102.781 88.4261 102.512L87.7823 100.581L87.309 100.738L87.2374 100.524L87.7087 100.339L87.412 99.3226L87.6518 99.2427L87.9863 100.246L88.8636 99.9537L88.9435 100.194L88.0663 100.486L88.7164 102.436C88.7809 102.63 88.8671 102.776 88.9751 102.876C89.0817 102.971 89.2381 102.984 89.4443 102.916C89.5032 102.896 89.56 102.87 89.6147 102.838C89.6722 102.8 89.7311 102.752 89.7914 102.695L89.9449 102.861C89.879 102.93 89.8061 102.991 89.7262 103.046C89.6462 103.101 89.5663 103.141 89.4863 103.168Z" fill="#36500D"/>
<path d="M85.2335 104.342L84.4099 101.257L84.6542 101.192L84.8068 101.66L84.8261 101.655C84.9423 101.454 85.0703 101.28 85.2099 101.133C85.3527 100.98 85.5291 100.875 85.7391 100.819C86.0605 100.734 86.3224 100.769 86.525 100.926C86.7265 101.079 86.8804 101.355 86.9868 101.753L87.5152 103.733L87.2324 103.808L86.7142 101.867C86.6262 101.537 86.5058 101.31 86.3533 101.186C86.2038 101.056 86.0027 101.024 85.7499 101.092C85.5656 101.141 85.4117 101.235 85.288 101.374C85.1675 101.507 85.0365 101.695 84.8952 101.94L85.5163 104.266L85.2335 104.342Z" fill="#36500D"/>
<path d="M83.7132 104.711L82.7417 100.436L83.0401 100.368L84.0116 104.643L83.7132 104.711Z" fill="#36500D"/>
<path d="M80.8775 105.238L80.35 102.089L80.6386 102.04L81.1662 105.19L80.8775 105.238ZM80.3603 101.305C80.2903 101.316 80.2272 101.302 80.171 101.262C80.1141 101.218 80.0791 101.156 80.0659 101.077C80.0527 100.999 80.0665 100.933 80.1073 100.882C80.1473 100.825 80.2023 100.791 80.2723 100.78C80.3467 100.767 80.4098 100.781 80.4616 100.822C80.517 100.858 80.5513 100.915 80.5645 100.994C80.5777 101.073 80.5646 101.142 80.5253 101.203C80.4896 101.258 80.4346 101.292 80.3603 101.305Z" fill="#36500D"/>
<path d="M79.7111 105.464C79.6231 105.476 79.5482 105.467 79.4866 105.439C79.4249 105.411 79.3739 105.362 79.3336 105.291C79.2977 105.22 79.2725 105.127 79.258 105.012L78.712 100.716L79.0024 100.679L79.5534 105.015C79.5629 105.09 79.5828 105.141 79.6131 105.168C79.6478 105.195 79.6872 105.206 79.7312 105.2C79.7444 105.199 79.7576 105.197 79.7708 105.195C79.7878 105.189 79.8092 105.181 79.8351 105.174L79.9172 105.398C79.8881 105.415 79.8562 105.428 79.8216 105.437C79.7919 105.45 79.7551 105.459 79.7111 105.464Z" fill="#36500D"/>
<path d="M77.2638 107.207C76.9943 107.231 76.759 107.214 76.5581 107.156C76.3574 107.102 76.1983 107.014 76.0806 106.891C75.9633 106.772 75.8967 106.622 75.8808 106.441C75.8684 106.299 75.8983 106.159 75.9706 106.019C76.0429 105.879 76.1473 105.75 76.2838 105.631L76.2815 105.604C76.1977 105.563 76.1256 105.502 76.0652 105.423C76.0048 105.344 75.9692 105.242 75.9583 105.118C75.9459 104.977 75.9752 104.854 76.0462 104.75C76.1168 104.641 76.1853 104.56 76.2517 104.505L76.2494 104.478C76.1444 104.399 76.0433 104.287 75.9462 104.144C75.8487 103.997 75.7916 103.829 75.7749 103.639C75.7559 103.422 75.7876 103.226 75.87 103.049C75.9565 102.868 76.0796 102.724 76.2393 102.616C76.4031 102.504 76.5888 102.438 76.7964 102.42C76.8848 102.412 76.9651 102.414 77.0373 102.426C77.1136 102.432 77.1748 102.445 77.2209 102.463L78.3011 102.368L78.3227 102.613L77.5804 102.679L77.5828 102.705C77.687 102.776 77.7778 102.873 77.8553 102.995C77.9373 103.117 77.9862 103.268 78.0021 103.45C78.0211 103.666 77.9872 103.863 77.9004 104.04C77.8179 104.216 77.697 104.36 77.5377 104.472C77.3827 104.584 77.2015 104.649 76.9938 104.667C76.901 104.675 76.8073 104.672 76.7126 104.658C76.6175 104.64 76.5306 104.614 76.452 104.581C76.3904 104.64 76.3364 104.709 76.29 104.789C76.2432 104.864 76.2244 104.955 76.2337 105.061C76.2438 105.176 76.2945 105.271 76.3858 105.348C76.4812 105.42 76.6459 105.445 76.8801 105.425L77.5627 105.365C77.9205 105.333 78.1886 105.37 78.367 105.474C78.5494 105.574 78.6517 105.75 78.6738 106.002C78.6897 106.183 78.643 106.361 78.5336 106.535C78.4243 106.709 78.2614 106.857 78.045 106.979C77.829 107.104 77.5686 107.181 77.2638 107.207ZM76.9734 104.435C77.1192 104.422 77.2507 104.373 77.3678 104.287C77.4849 104.201 77.5752 104.088 77.6386 103.949C77.7061 103.805 77.7321 103.645 77.7166 103.468C77.6925 103.194 77.592 102.987 77.4149 102.847C77.2419 102.702 77.0427 102.639 76.8174 102.659C76.5921 102.679 76.4047 102.775 76.2552 102.949C76.1053 103.118 76.0424 103.339 76.0665 103.613C76.082 103.79 76.1333 103.943 76.2205 104.074C76.3116 104.199 76.4224 104.294 76.5527 104.358C76.683 104.422 76.8232 104.448 76.9734 104.435ZM77.276 106.966C77.5145 106.945 77.7165 106.887 77.8818 106.793C78.0519 106.702 78.1801 106.59 78.2665 106.458C78.3528 106.326 78.3901 106.194 78.3785 106.061C78.363 105.884 78.2878 105.764 78.1531 105.7C78.0232 105.64 77.839 105.621 77.6004 105.642L76.9178 105.702C76.8869 105.705 76.8335 105.705 76.7576 105.703C76.6817 105.7 76.601 105.694 76.5155 105.684C76.3783 105.794 76.2816 105.909 76.2254 106.03C76.1696 106.155 76.1467 106.275 76.1568 106.39C76.1743 106.589 76.2812 106.742 76.4777 106.849C76.6741 106.957 76.9402 106.995 77.276 106.966Z" fill="#36500D"/>
<path d="M74.1541 105.934C73.8792 105.94 73.6293 105.88 73.4044 105.752C73.1794 105.625 72.9974 105.438 72.8584 105.193C72.7192 104.944 72.6454 104.646 72.637 104.3C72.6285 103.95 72.6877 103.649 72.8147 103.398C72.9416 103.142 73.1076 102.945 73.3127 102.807C73.5222 102.664 73.7466 102.59 73.9861 102.584C74.2388 102.578 74.4574 102.63 74.642 102.741C74.831 102.852 74.977 103.017 75.08 103.236C75.1828 103.451 75.238 103.716 75.2457 104.031C75.2465 104.066 75.2453 104.106 75.2419 104.151C75.2429 104.19 75.2395 104.233 75.2317 104.277L72.8176 104.336L72.8114 104.083L74.9662 104.031C74.9563 103.623 74.8646 103.321 74.6913 103.126C74.5179 102.926 74.2871 102.83 73.9989 102.837C73.8215 102.841 73.6498 102.896 73.4838 103.002C73.3178 103.108 73.182 103.269 73.0763 103.485C72.975 103.695 72.9282 103.961 72.936 104.28C72.9431 104.572 73.0025 104.826 73.1142 105.041C73.2258 105.251 73.3739 105.411 73.5585 105.522C73.7429 105.629 73.9482 105.679 74.1744 105.674C74.3473 105.67 74.5041 105.644 74.6449 105.596C74.7901 105.543 74.9171 105.476 75.026 105.393L75.1507 105.597C75.0286 105.684 74.8907 105.761 74.737 105.826C74.5834 105.892 74.389 105.928 74.1541 105.934Z" fill="#36500D"/>
<path d="M70.3804 105.898C69.9816 105.881 69.6664 105.724 69.4346 105.425C69.2073 105.127 69.1047 104.71 69.127 104.174C69.1413 103.829 69.2179 103.534 69.3567 103.292C69.5001 103.045 69.6811 102.857 69.8995 102.728C70.1223 102.6 70.36 102.541 70.6126 102.551C70.8075 102.559 70.9768 102.6 71.1202 102.672C71.2637 102.745 71.4103 102.849 71.5601 102.984L71.5711 102.398L71.6257 101.082L71.9182 101.094L71.7198 105.873L71.4672 105.863L71.4577 105.45L71.4378 105.449C71.3039 105.572 71.1463 105.681 70.9648 105.775C70.7879 105.866 70.5931 105.906 70.3804 105.898ZM70.4311 105.64C70.6083 105.647 70.7786 105.61 70.9418 105.528C71.1096 105.442 71.2812 105.318 71.4566 105.157L71.5352 103.262C71.3731 103.105 71.2202 102.992 71.0765 102.924C70.9329 102.855 70.7813 102.818 70.6218 102.811C70.4091 102.803 70.2159 102.857 70.0424 102.974C69.8689 103.091 69.7266 103.256 69.6157 103.469C69.5094 103.677 69.4506 103.917 69.4394 104.187C69.4219 104.608 69.4986 104.953 69.6694 105.222C69.8404 105.487 70.0943 105.626 70.4311 105.64Z" fill="#36500D"/>
<path d="M65.6096 105.49C65.359 105.458 65.132 105.363 64.9286 105.207C64.7303 105.047 64.5812 104.836 64.4813 104.572C64.3863 104.305 64.3614 103.998 64.4066 103.65C64.4524 103.298 64.5553 103.005 64.7155 102.771C64.88 102.538 65.0783 102.371 65.3104 102.272C65.5474 102.168 65.7913 102.133 66.042 102.166C66.2971 102.199 66.5238 102.295 66.7221 102.455C66.9211 102.611 67.0702 102.822 67.1695 103.09C67.2689 103.358 67.2957 103.668 67.2499 104.02C67.2047 104.367 67.0999 104.658 66.9353 104.891C66.7714 105.12 66.5731 105.287 66.3404 105.391C66.1083 105.49 65.8647 105.524 65.6096 105.49ZM65.6431 105.233C65.8586 105.261 66.0573 105.229 66.2393 105.136C66.4263 105.04 66.5819 104.892 66.7061 104.694C66.8303 104.495 66.9104 104.257 66.9464 103.98C66.9825 103.703 66.9658 103.453 66.8965 103.229C66.8278 103.001 66.7154 102.817 66.5593 102.676C66.4076 102.535 66.224 102.451 66.0085 102.423C65.7974 102.395 65.6006 102.43 65.418 102.527C65.2355 102.624 65.0796 102.774 64.9504 102.976C64.8262 103.175 64.7461 103.413 64.7101 103.69C64.674 103.967 64.6907 104.217 64.76 104.441C64.8337 104.665 64.9464 104.847 65.0981 104.988C65.2503 105.124 65.432 105.206 65.6431 105.233Z" fill="#36500D"/>
<path d="M62.7818 105.053C62.5119 105 62.2805 104.889 62.0876 104.72C61.8999 104.548 61.7667 104.328 61.6881 104.059C61.6148 103.787 61.6117 103.479 61.679 103.136C61.7471 102.787 61.8707 102.502 62.0497 102.279C62.2332 102.058 62.4461 101.905 62.6884 101.821C62.9315 101.733 63.1793 101.714 63.4318 101.763C63.6494 101.806 63.8228 101.878 63.952 101.98C64.082 102.078 64.1904 102.194 64.277 102.329L64.0859 102.474C64.0132 102.361 63.9189 102.265 63.8028 102.188C63.6877 102.107 63.5496 102.051 63.3885 102.019C63.1753 101.978 62.9723 101.999 62.7795 102.083C62.5868 102.168 62.4178 102.304 62.2725 102.492C62.1315 102.682 62.0338 102.916 61.9793 103.194C61.9257 103.469 61.9241 103.719 61.9747 103.946C62.0296 104.174 62.1304 104.363 62.2772 104.513C62.4248 104.66 62.614 104.756 62.8447 104.801C63.0144 104.834 63.1771 104.834 63.3326 104.801C63.489 104.764 63.6275 104.703 63.748 104.618L63.8637 104.824C63.7084 104.924 63.5405 104.998 63.3597 105.044C63.179 105.09 62.9864 105.093 62.7818 105.053Z" fill="#36500D"/>
<path d="M60.1525 104.413L60.9153 101.312L61.1995 101.382L60.4367 104.483L60.1525 104.413ZM61.2353 100.596C61.1664 100.579 61.1141 100.541 61.0784 100.482C61.0437 100.419 61.0359 100.349 61.055 100.271C61.074 100.193 61.1126 100.139 61.1705 100.108C61.2296 100.072 61.2935 100.063 61.3624 100.079C61.4356 100.097 61.488 100.135 61.5194 100.193C61.5561 100.248 61.565 100.314 61.5459 100.392C61.5269 100.469 61.4873 100.528 61.4272 100.568C61.3725 100.605 61.3085 100.614 61.2353 100.596Z" fill="#36500D"/>
<path d="M56.7443 103.458L57.6253 100.389L57.8683 100.459L57.7581 100.939L57.7772 100.945C57.9802 100.832 58.1795 100.749 58.3752 100.694C58.5763 100.637 58.7813 100.638 58.9901 100.698C59.3099 100.79 59.5162 100.955 59.6091 101.194C59.7032 101.429 59.6934 101.744 59.5796 102.141L59.0142 104.11L58.7329 104.029L59.2872 102.098C59.3814 101.77 59.3952 101.513 59.3284 101.328C59.2671 101.14 59.1107 101.009 58.8592 100.937C58.6759 100.885 58.4955 100.886 58.3182 100.941C58.1463 100.993 57.937 101.088 57.6901 101.224L57.0256 103.539L56.7443 103.458Z" fill="#36500D"/>
<path d="M54.151 102.62C53.9767 102.554 53.8159 102.465 53.6686 102.353C53.5229 102.236 53.4084 102.094 53.3251 101.925C53.2433 101.752 53.2029 101.545 53.2037 101.303C53.2103 101.059 53.2738 100.778 53.3942 100.458L54.3485 97.9243L54.6349 98.0322L53.6923 100.535C53.5563 100.896 53.499 101.199 53.5204 101.444C53.546 101.691 53.6262 101.887 53.761 102.032C53.8957 102.178 54.0586 102.286 54.2495 102.358C54.4487 102.433 54.649 102.461 54.8504 102.443C55.0519 102.424 55.2435 102.33 55.4255 102.162C55.6074 101.993 55.7663 101.728 55.9023 101.367L56.845 98.8646L57.1127 98.9654L56.1583 101.499C56.038 101.819 55.8977 102.072 55.7376 102.258C55.5831 102.441 55.4161 102.57 55.2363 102.645C55.0582 102.715 54.876 102.746 54.6896 102.737C54.509 102.726 54.3295 102.687 54.151 102.62Z" fill="#36500D"/>
<path d="M49.3517 100.567C49.1251 100.455 48.9411 100.292 48.7994 100.078C48.6637 99.8625 48.5914 99.6138 48.5824 99.3322C48.5793 99.0486 48.6555 98.7498 48.811 98.4358C48.9685 98.1179 49.1609 97.8742 49.3884 97.7047C49.6198 97.5373 49.8614 97.4441 50.1132 97.4253C50.371 97.4045 50.6131 97.4502 50.8397 97.5624C51.0702 97.6765 51.2533 97.8414 51.389 98.0571C51.5266 98.2688 51.599 98.5174 51.606 98.803C51.6131 99.0886 51.5379 99.3904 51.3804 99.7083C51.2249 100.022 51.0315 100.263 50.8 100.431C50.5706 100.594 50.329 100.687 50.0752 100.71C49.8234 100.729 49.5822 100.681 49.3517 100.567ZM49.4668 100.334C49.6616 100.431 49.86 100.465 50.0622 100.436C50.2704 100.406 50.4654 100.317 50.6473 100.169C50.8292 100.022 50.9822 99.8229 51.1062 99.5725C51.2302 99.3221 51.2957 99.0799 51.3027 98.8458C51.3117 98.6078 51.2653 98.3967 51.1635 98.2127C51.0656 98.0306 50.9193 97.8913 50.7245 97.7948C50.5338 97.7004 50.3363 97.6694 50.1321 97.7019C49.928 97.7344 49.732 97.8254 49.5441 97.9749C49.3622 98.1223 49.2092 98.3213 49.0852 98.5717C48.9612 98.822 48.8957 99.0643 48.8887 99.2983C48.8856 99.5344 48.933 99.7434 49.0309 99.9255C49.1307 100.104 49.2761 100.24 49.4668 100.334Z" fill="#36500D"/>
<path d="M46.5394 99.0145L48.0823 96.2188L48.3036 96.3409L48.0409 96.8721L48.0583 96.8818C48.2419 96.7602 48.4297 96.6815 48.6218 96.6456C48.8198 96.608 49.0043 96.6364 49.1751 96.7307C49.2256 96.7585 49.27 96.7881 49.3085 96.8194C49.3508 96.8529 49.3888 96.8942 49.4225 96.9432L49.2305 97.1259C49.1981 97.0929 49.1655 97.0647 49.1327 97.0416C49.1059 97.0167 49.0634 96.9881 49.0052 96.956C48.8809 96.8874 48.7189 96.8689 48.5191 96.9005C48.3253 96.9303 48.1012 97.0473 47.8468 97.2513L46.7957 99.1559L46.5394 99.0145Z" fill="#36500D"/>
<path d="M45.4749 98.4538C45.211 98.2904 45.0785 98.1041 45.0776 97.8949C45.0767 97.6857 45.151 97.4604 45.3004 97.2191L46.3719 95.4882L45.9477 95.2256L46.0667 95.0333L46.5106 95.2768L47.1013 94.3984L47.3162 94.5315L46.7595 95.4309L47.5457 95.9176L47.4127 96.1325L46.6264 95.6458L45.5444 97.3936C45.4371 97.5671 45.3797 97.7272 45.3723 97.8739C45.3673 98.0168 45.4572 98.1455 45.6419 98.2599C45.6947 98.2926 45.751 98.3196 45.8108 98.3409C45.8767 98.3609 45.9511 98.3756 46.0338 98.3851L46.0045 98.6095C45.9095 98.6028 45.8154 98.5863 45.7222 98.5599C45.629 98.5335 45.5466 98.4982 45.4749 98.4538Z" fill="#36500D"/>
<path d="M43.2175 97.0321C43.0117 96.8931 42.8484 96.7347 42.7277 96.5568C42.6107 96.3814 42.5337 96.1983 42.4967 96.0074L42.7333 95.9424C42.779 96.1124 42.8463 96.2703 42.9352 96.416C43.0303 96.5605 43.177 96.6997 43.3755 96.8338C43.5813 96.9728 43.7723 97.0269 43.9484 96.9959C44.1269 96.9614 44.2634 96.8742 44.3577 96.7346C44.4322 96.6243 44.4599 96.5119 44.4409 96.3974C44.4281 96.2817 44.3882 96.1665 44.3212 96.0517C44.2568 95.9332 44.1855 95.8208 44.1074 95.7146C44.0037 95.5749 43.9092 95.4335 43.824 95.2903C43.7412 95.1434 43.6905 94.9967 43.6717 94.8503C43.6553 94.7001 43.6968 94.5515 43.7961 94.4045C43.9277 94.2097 44.1129 94.094 44.3518 94.0573C44.5931 94.0169 44.8498 94.0886 45.1217 94.2723C45.2724 94.3741 45.3947 94.4941 45.4886 94.6325C45.5861 94.7733 45.6554 94.9164 45.6963 95.0618L45.4635 95.1213C45.4175 94.9992 45.3585 94.8845 45.2866 94.777C45.2146 94.6696 45.1107 94.5699 44.9747 94.4781C44.7689 94.339 44.5829 94.2856 44.4166 94.3178C44.254 94.3525 44.1318 94.4305 44.0499 94.5518C43.9828 94.651 43.9546 94.7523 43.965 94.8557C43.9816 94.9579 44.0209 95.0621 44.083 95.1683C44.1451 95.2744 44.2158 95.3837 44.2951 95.4961C44.3975 95.6456 44.495 95.7944 44.5876 95.9426C44.6839 96.0932 44.7407 96.2467 44.7583 96.403C44.7782 96.5557 44.7299 96.7184 44.6132 96.8911C44.5239 97.0234 44.4058 97.123 44.259 97.1897C44.1184 97.2553 43.9565 97.2771 43.7733 97.255C43.5939 97.2355 43.4086 97.1612 43.2175 97.0321Z" fill="#36500D"/>
<path d="M41.3837 95.6545L43.2723 93.0797L43.5083 93.2528L41.6197 95.8276L41.3837 95.6545ZM43.8414 92.5401C43.7841 92.4981 43.7503 92.443 43.7398 92.3748C43.732 92.303 43.7516 92.235 43.7988 92.1706C43.8461 92.1062 43.9025 92.0706 43.968 92.0637C44.0362 92.0532 44.0989 92.0689 44.1561 92.1109C44.2169 92.1555 44.2508 92.2106 44.2577 92.2762C44.2708 92.3408 44.2537 92.4053 44.2065 92.4696C44.1593 92.534 44.1003 92.5732 44.0295 92.5873C43.9649 92.6004 43.9022 92.5846 43.8414 92.5401Z" fill="#36500D"/>
<path d="M38.6923 95.4961C38.4816 95.3264 38.3239 95.151 38.2192 94.9699C38.1117 94.7923 38.0582 94.6182 38.0588 94.4479C38.0565 94.2809 38.1124 94.1266 38.2265 93.985C38.3155 93.8745 38.4345 93.7938 38.5836 93.743C38.7327 93.6922 38.8976 93.6713 39.0784 93.6802L39.095 93.6595C39.0635 93.5714 39.0534 93.4779 39.0648 93.3788C39.0762 93.2798 39.1208 93.182 39.1987 93.0853C39.2877 92.9747 39.3939 92.9065 39.5172 92.8805C39.6434 92.8512 39.7494 92.8397 39.8353 92.8462L39.852 92.8255C39.8316 92.6952 39.8359 92.5449 39.8648 92.3746C39.8965 92.2009 39.9722 92.0398 40.0918 91.8912C40.2281 91.722 40.3871 91.6023 40.5688 91.5322C40.7567 91.4615 40.9455 91.4427 41.1352 91.4758C41.3311 91.5083 41.5102 91.5899 41.6726 91.7206C41.7417 91.7763 41.7983 91.8333 41.8424 91.8916C41.8928 91.9492 41.9283 92.0006 41.949 92.0457L42.7936 92.7258L42.6392 92.9175L42.0589 92.4502L42.0422 92.4709C42.0681 92.5943 42.0666 92.7269 42.0378 92.8688C42.0124 93.0135 41.9427 93.1566 41.8286 93.2983C41.6923 93.4675 41.5316 93.5858 41.3465 93.6531C41.1648 93.7232 40.9777 93.7434 40.7852 93.7137C40.5962 93.6867 40.4206 93.6079 40.2582 93.4772C40.1857 93.4188 40.1201 93.3517 40.0614 93.276C40.0056 93.1969 39.9608 93.1181 39.9271 93.0398C39.8419 93.0395 39.755 93.052 39.6662 93.0774C39.5803 93.0993 39.5039 93.1517 39.4372 93.2346C39.3648 93.3244 39.3351 93.4285 39.3479 93.547C39.3669 93.6648 39.4679 93.7974 39.651 93.9449L40.1847 94.3746C40.4645 94.5999 40.6325 94.812 40.6887 95.011C40.7511 95.2093 40.703 95.4069 40.5444 95.6038C40.4304 95.7454 40.2736 95.8412 40.0739 95.8911C39.8743 95.9411 39.6544 95.9348 39.4142 95.8724C39.1713 95.8135 38.9307 95.688 38.6923 95.4961ZM40.4042 93.2958C40.5182 93.3876 40.6472 93.4431 40.7912 93.4623C40.9352 93.4814 41.0783 93.4628 41.2205 93.4065C41.3689 93.3495 41.4987 93.2519 41.61 93.1137C41.7824 92.8995 41.8534 92.6805 41.823 92.4567C41.7988 92.2322 41.6986 92.049 41.5224 91.9072C41.3462 91.7653 41.1442 91.7051 40.9162 91.7266C40.6911 91.7445 40.4923 91.8606 40.3198 92.0748C40.2085 92.213 40.1392 92.3592 40.1117 92.5136C40.0904 92.6673 40.1045 92.8125 40.1539 92.9491C40.2033 93.0857 40.2868 93.2013 40.4042 93.2958ZM38.8684 95.3304C39.055 95.4806 39.2406 95.5789 39.4254 95.6252C39.6109 95.6777 39.7805 95.6862 39.9344 95.6507C40.0883 95.6152 40.207 95.5456 40.2904 95.4419C40.4017 95.3038 40.4309 95.165 40.378 95.0256C40.3257 94.8924 40.2064 94.7508 40.0198 94.6006L39.4861 94.1708C39.462 94.1514 39.4233 94.1145 39.3701 94.0603C39.317 94.0061 39.2631 93.9457 39.2086 93.879C39.0334 93.8632 38.8838 93.8794 38.7596 93.9275C38.6327 93.979 38.5331 94.0497 38.4608 94.1395C38.3356 94.295 38.3066 94.4795 38.3738 94.693C38.441 94.9066 38.6059 95.119 38.8684 95.3304Z" fill="#36500D"/>
<path d="M37.3294 92.4275C37.1258 92.2428 36.9865 92.0266 36.9117 91.7791C36.8369 91.5316 36.8336 91.2711 36.9019 90.9978C36.9733 90.7212 37.1251 90.4547 37.3576 90.1985C37.593 89.939 37.8434 89.762 38.1088 89.6675C38.3772 89.5696 38.6333 89.5415 38.8771 89.583C39.1271 89.6242 39.3408 89.7253 39.5182 89.8862C39.7054 90.0561 39.8276 90.2448 39.8848 90.4523C39.9453 90.6629 39.9372 90.8831 39.8605 91.1129C39.7867 91.3394 39.644 91.5692 39.4325 91.8025C39.4086 91.8287 39.3802 91.8568 39.3471 91.8867C39.3203 91.9162 39.2887 91.9445 39.2523 91.9713L37.4638 90.3488L37.6336 90.1616L39.23 91.6098C39.5042 91.3076 39.6459 91.026 39.6552 90.7649C39.6674 90.5006 39.5668 90.2716 39.3533 90.0779C39.2219 89.9587 39.0595 89.8803 38.8662 89.8426C38.6728 89.8049 38.4635 89.8276 38.2384 89.9108C38.0195 89.9936 37.8028 90.1533 37.5882 90.3898C37.3916 90.6066 37.2596 90.8312 37.1924 91.0637C37.1282 91.2929 37.1247 91.5113 37.1819 91.7189C37.2421 91.9232 37.356 92.1013 37.5235 92.2533C37.6516 92.3695 37.7831 92.4588 37.918 92.5214C38.0592 92.5836 38.1976 92.6223 38.3334 92.6377L38.2835 92.8709C38.1349 92.8499 37.9823 92.8102 37.8256 92.7519C37.6689 92.6936 37.5035 92.5855 37.3294 92.4275Z" fill="#36500D"/>
<path d="M34.0002 89.0652L37.1346 86L38.0137 86.8989C38.2152 87.105 38.3635 87.3105 38.4584 87.5155C38.5565 87.7235 38.5855 87.9309 38.5456 88.1374C38.5088 88.3408 38.3905 88.5402 38.1908 88.7356C38.0005 88.9216 37.7985 89.0354 37.5848 89.0769C37.3743 89.1154 37.1597 89.0895 36.9412 88.9992C36.7289 88.909 36.522 88.7609 36.3205 88.5548L35.6553 87.8746L34.2142 89.2839L34.0002 89.0652ZM35.8361 87.6979L36.4454 88.3209C36.7183 88.6 36.9815 88.7582 37.2351 88.7955C37.495 88.8329 37.7407 88.7384 37.9722 88.512C38.2068 88.2826 38.2988 88.0468 38.2482 87.8048C38.2039 87.5628 38.0453 87.3023 37.7724 87.0233L37.1631 86.4002L35.8361 87.6979ZM35.6979 90.8012L36.3311 88.442L36.5976 88.5908L35.9445 91.0533L35.6979 90.8012Z" fill="#36500D"/>
<defs>
<linearGradient id="paint0_linear_5887_10361" x1="100.636" y1="4.29931" x2="51.636" y2="105.799" gradientUnits="userSpaceOnUse">
<stop stop-color="#B1E45E"/>
<stop offset="1" stop-color="#699324"/>
</linearGradient>
<linearGradient id="paint1_linear_5887_10361" x1="112.636" y1="44.7993" x2="31.636" y2="68.2993" gradientUnits="userSpaceOnUse">
<stop stop-color="#A7D856"/>
<stop offset="0.110577" stop-color="#A7D856"/>
<stop offset="0.850962" stop-color="#5D841E"/>
<stop offset="1" stop-color="#5D841E"/>
</linearGradient>
<linearGradient id="paint2_linear_5887_10361" x1="33.3271" y1="83.1471" x2="-5.23863" y2="83.1471" gradientUnits="userSpaceOnUse">
<stop stop-color="#191919"/>
<stop offset="0.136319" stop-color="#191919"/>
<stop offset="1" stop-color="#4F4D4D" stop-opacity="0.533333"/>
</linearGradient>
<linearGradient id="paint3_linear_5887_10361" x1="111.944" y1="83.1471" x2="150.51" y2="83.1471" gradientUnits="userSpaceOnUse">
<stop stop-color="#191919"/>
<stop offset="0.136319" stop-color="#191919"/>
<stop offset="1" stop-color="#4F4D4D" stop-opacity="0.53"/>
</linearGradient>
<linearGradient id="paint4_linear_5887_10361" x1="72.6343" y1="90.8954" x2="72.6343" y2="54.2384" gradientUnits="userSpaceOnUse">
<stop stop-color="#191919"/>
<stop offset="0.136319" stop-color="#191919"/>
<stop offset="0.815522" stop-color="#4F4D4D"/>
<stop offset="1" stop-color="#4F4D4D"/>
</linearGradient>
<linearGradient id="paint5_linear_5887_10361" x1="65.636" y1="84.7993" x2="65.636" y2="89.7993" gradientUnits="userSpaceOnUse">
<stop stop-color="#5C7B29"/>
<stop offset="0.134615" stop-color="#5C7B29"/>
<stop offset="0.879808" stop-color="#5D841E"/>
<stop offset="1" stop-color="#5D841E"/>
</linearGradient>
<linearGradient id="paint6_linear_5887_10361" x1="80.636" y1="84.7993" x2="80.636" y2="89.7993" gradientUnits="userSpaceOnUse">
<stop stop-color="#5C7B29"/>
<stop offset="0.134615" stop-color="#5C7B29"/>
<stop offset="0.879808" stop-color="#5D841E"/>
<stop offset="1" stop-color="#5D841E"/>
</linearGradient>
<linearGradient id="paint7_linear_5887_10361" x1="73.136" y1="85.7993" x2="73.136" y2="91.7993" gradientUnits="userSpaceOnUse">
<stop stop-color="#5C7B29"/>
<stop offset="0.134615" stop-color="#5C7B29"/>
<stop offset="0.879808" stop-color="#5D841E"/>
<stop offset="1" stop-color="#5D841E"/>
</linearGradient>
<linearGradient id="paint8_linear_5887_10361" x1="72.5002" y1="22.7993" x2="72.5002" y2="49.7993" gradientUnits="userSpaceOnUse">
<stop stop-color="#87B33D"/>
<stop offset="0.168269" stop-color="#87B33D"/>
<stop offset="0.841346" stop-color="#5D841E"/>
<stop offset="1" stop-color="#5D841E"/>
</linearGradient>
</defs>
</svg>
