<svg width="127" height="28" viewBox="0 0 127 28" fill="none" xmlns="http://www.w3.org/2000/svg">
<path d="M16.061 26.6014C15.1392 27.4971 13.889 28.0002 12.5855 28.0002C11.282 28.0002 10.0318 27.4971 9.10999 26.6014L1.43846 19.1474C0.517427 18.2523 0 17.0384 0 15.7726C0 14.5069 0.517427 13.2929 1.43846 12.3979C2.35949 11.5028 3.60868 11 4.91122 11C6.21375 11 7.46294 11.5028 8.38397 12.3979L10.9194 14.8564L10.8808 14.8939C9.99764 15.7502 9.48292 16.901 9.44119 18.1127C9.39947 19.3244 9.83383 20.5061 10.6561 21.4179C11.4785 22.3296 12.627 22.903 13.8686 23.0217C15.1102 23.1404 16.3518 22.7954 17.3411 22.0568C17.5521 22.8571 17.545 23.697 17.3206 24.4939C17.0961 25.2907 16.662 26.0171 16.061 26.6014Z" fill="#FFA500"/>
<path d="M17.348 22.0579C16.3586 22.7964 15.1171 23.1414 13.8755 23.0227C12.6339 22.904 11.4853 22.3306 10.663 21.4189C9.8407 20.5071 9.40634 19.3254 9.44806 18.1137C9.48979 16.902 10.0045 15.7512 10.8877 14.8949L10.9263 14.8574L16.067 19.853C16.6921 20.4613 17.135 21.2235 17.348 22.0579Z" fill="#FC7D21"/>
<path d="M26.9414 10.817C26.9418 11.4439 26.815 12.0646 26.568 12.6438C26.3211 13.2229 25.9589 13.7489 25.5023 14.1917L17.8317 21.6458C17.6805 21.7948 17.5183 21.933 17.3465 22.0593C17.1333 21.2252 16.6905 20.4633 16.0655 19.8553L10.9238 14.8597L18.5568 7.44314C19.2438 6.7759 20.119 6.32154 21.0717 6.13751C22.0244 5.95347 23.0119 6.04805 23.9093 6.40922C24.8067 6.77038 25.5738 7.38194 26.1137 8.16665C26.6535 8.95135 26.9419 9.87395 26.9423 10.8179L26.9414 10.817Z" fill="#FFA500"/>
<path d="M10.8635 11.3266L7.62786 7.84389C7.20216 7.38688 6.87325 6.85283 6.65999 6.27227C6.44672 5.69171 6.35327 5.076 6.38493 4.46033C6.41659 3.84466 6.57276 3.2411 6.84452 2.6841C7.11628 2.12709 7.4983 1.62757 7.96877 1.21407C8.2704 0.946727 8.6065 0.718577 8.96861 0.535369C9.32829 0.381502 9.69645 0.247057 10.0714 0.132625C10.2258 0.0960112 10.3801 0.0718839 10.5309 0.0495583C10.9918 -0.0165194 11.4603 -0.0165194 11.9213 0.0495583C12.0744 0.0700457 12.226 0.0998502 12.3752 0.138839C13.3095 0.361266 14.1534 0.851287 14.7976 1.54536C15.6555 2.46993 16.1004 3.6878 16.0344 4.9311C15.9684 6.17439 15.3969 7.34131 14.4457 8.17517L10.8635 11.3266Z" fill="#191919"/>
<path d="M126.998 7.18344H123.855V4.12305H126.225C126.409 4.12298 126.586 4.19266 126.718 4.31725C126.85 4.44184 126.926 4.61152 126.931 4.79014L126.998 7.18344Z" fill="#191919"/>
<path d="M126.998 27.2384H123.855V9.9834H126.914L126.998 27.2384Z" fill="#191919"/>
<path d="M105.574 25.2802C102.521 28.4745 92.05 30.0435 89.2793 21.3151C89.5311 21.3071 92.8219 21.3045 92.8219 21.3045C92.8219 21.3045 93.2437 22.0501 93.727 22.7333C94.153 23.31 94.7152 23.7789 95.3664 24.1005C97.503 25.2052 100.657 25.2025 102.455 23.9281C102.835 23.6757 103.145 23.3368 103.359 22.9409C103.573 22.545 103.683 22.1042 103.681 21.6572C103.623 21.2381 103.444 20.8436 103.165 20.519C102.886 20.1943 102.518 19.9527 102.104 19.822C100.634 19.2031 99.0129 18.9558 97.4819 18.4646C95.7858 18.0542 94.1452 17.4514 92.5939 16.6687C91.9166 16.271 91.3477 15.7206 90.9353 15.0642C90.5229 14.4078 90.279 13.6647 90.2244 12.8974C90.1698 12.1302 90.306 11.3614 90.6215 10.6561C90.937 9.95076 91.4225 9.32957 92.0371 8.84497C96.5078 4.93442 104.753 6.8803 106.392 12.8528C105.221 12.8877 102.9 12.7939 102.9 12.7939C102.773 12.365 102.582 11.9567 102.332 11.5821C100.869 9.62726 96.9498 9.27451 94.8583 10.6569C94.5058 10.8626 94.2066 11.1441 93.9836 11.4797C93.7606 11.8154 93.6196 12.1962 93.5717 12.593C93.6125 13.0176 93.7787 13.4217 94.0503 13.7567C94.322 14.0916 94.6874 14.3431 95.1027 14.4809C96.9085 15.164 98.8502 15.4828 100.708 16.0543C102.08 16.4118 103.402 16.93 104.644 17.5975C105.281 17.9999 105.819 18.5336 106.219 19.1607C106.62 19.7878 106.874 20.4929 106.962 21.2259C107.051 21.959 106.972 22.702 106.732 23.4022C106.492 24.1024 106.096 24.7427 105.572 25.2775L105.574 25.2802Z" fill="#191919"/>
<path d="M82.3401 27.2391V24.1779C81.4702 25.3037 80.3441 26.2187 79.05 26.8516C77.7559 27.4844 76.3287 27.8178 74.88 27.8258C72.4739 27.8198 70.1639 26.9075 68.4355 25.2808C67.4369 24.3416 66.6444 23.2157 66.1056 21.9708C65.5669 20.7259 65.2932 19.3879 65.3009 18.0374L65.3432 7.16309H68.4006V18.0374C68.4006 19.8333 69.1347 21.5556 70.4414 22.8255C71.7481 24.0954 73.5205 24.8088 75.3685 24.8088C77.2165 24.8088 78.9888 24.0954 80.2955 22.8255C81.6022 21.5556 82.3364 19.8333 82.3364 18.0374L82.3796 7.16309H85.436L85.4819 27.2391H82.3401Z" fill="#191919"/>
<path d="M62.3027 7.02353V9.95534C61.6358 9.67823 60.9138 9.54861 60.1891 9.57582C56.3414 9.57582 53.6498 12.0352 53.6498 16.3467L53.6075 27.2184H50.5492L50.5078 7.1441H53.6498V10.2036C54.8729 7.58527 57.0894 6.61719 60.1036 6.61719C60.8525 6.64153 61.5929 6.77925 62.2981 7.02533L62.3027 7.02353Z" fill="#191919"/>
<path d="M46.257 10.1329V7.16267H41.0097C40.8045 7.16267 40.6014 7.12341 40.4118 7.04712C40.2223 6.97082 40.0501 6.85898 39.905 6.71801C39.7599 6.57704 39.6448 6.40968 39.5663 6.22549C39.4878 6.04131 39.4474 5.84388 39.4474 5.64452L39.441 3.80762H36.3809V21.71C36.3809 22.4352 36.5281 23.1532 36.8143 23.8229C37.1004 24.4926 37.5198 25.1009 38.0484 25.6128C38.5769 26.1247 39.2042 26.5302 39.8944 26.806C40.5845 27.0818 41.3239 27.2225 42.0701 27.22L46.2588 27.2066V24.2355H42.7437C41.8867 24.2358 41.0647 23.9059 40.4575 23.3182C39.8503 22.7305 39.5076 21.9329 39.5044 21.1001L39.4649 10.1552L46.257 10.1329Z" fill="#191919"/>
<path d="M119.782 10.1329V7.16267H114.535C114.121 7.16267 113.723 7.00272 113.43 6.71801C113.137 6.4333 112.973 6.04715 112.973 5.64452L112.966 3.80762H109.906V21.7101C109.906 22.4351 110.054 23.153 110.34 23.8226C110.626 24.4922 111.045 25.1004 111.574 25.6122C112.102 26.124 112.729 26.5294 113.419 26.8052C114.109 27.0809 114.849 27.2215 115.595 27.2191L119.784 27.2057V24.2346H116.271C115.414 24.2348 114.592 23.905 113.984 23.3173C113.377 22.7297 113.034 21.9321 113.031 21.0992L112.991 10.1543L119.782 10.1329Z" fill="#191919"/>
</svg>
