<svg width="146" height="123" viewBox="0 0 146 123" fill="none" xmlns="http://www.w3.org/2000/svg">
<circle cx="72.636" cy="66.1094" r="54.5" fill="url(#paint0_linear_5888_10785)"/>
<circle cx="72.636" cy="66.1094" r="42" stroke="url(#paint1_linear_5888_10785)" stroke-width="3"/>
<mask id="mask0_5888_10785" style="mask-type:luminance" maskUnits="userSpaceOnUse" x="0" y="82" width="36" height="24">
<path d="M35.2287 105.576H0L6.50874 93.9571L0 82.3373H20.9452C22.0476 85.9645 23.5233 89.4338 25.3238 92.6935H11.9298L35.227 105.575L35.2287 105.576Z" fill="white"/>
</mask>
<g mask="url(#mask0_5888_10785)">
<path d="M35.2287 105.576H0L6.50874 93.9571L0 82.3373H20.9452C22.0476 85.9645 23.5233 89.4338 25.3238 92.6935H11.9298L35.227 105.575L35.2287 105.576Z" fill="url(#paint2_linear_5888_10785)"/>
</g>
<mask id="mask1_5888_10785" style="mask-type:luminance" maskUnits="userSpaceOnUse" x="11" y="92" width="25" height="14">
<path d="M35.2262 105.574L11.929 92.6932H25.3229C27.9669 97.4788 31.3129 101.817 35.2262 105.574Z" fill="white"/>
</mask>
<g mask="url(#mask1_5888_10785)">
<rect x="11.2847" y="91.9004" width="24.5156" height="14.3213" fill="#191919"/>
</g>
<mask id="mask2_5888_10785" style="mask-type:luminance" maskUnits="userSpaceOnUse" x="110" y="82" width="36" height="24">
<path d="M145.271 105.576H110.041L133.342 92.6935H119.946C121.746 89.4338 123.222 85.9645 124.325 82.3373H145.271L138.763 93.9571L145.271 105.576Z" fill="white"/>
</mask>
<g mask="url(#mask2_5888_10785)">
<path d="M145.271 105.576H110.041L133.342 92.6935H119.946C121.746 89.4338 123.222 85.9645 124.325 82.3373H145.271L138.763 93.9571L145.271 105.576Z" fill="url(#paint3_linear_5888_10785)"/>
</g>
<mask id="mask3_5888_10785" style="mask-type:luminance" maskUnits="userSpaceOnUse" x="110" y="92" width="24" height="14">
<path d="M110.04 105.576C113.954 101.818 117.301 97.4791 119.945 92.6935H133.341L110.04 105.576Z" fill="white"/>
</mask>
<g mask="url(#mask3_5888_10785)">
<rect x="109.528" y="91.8999" width="24.5156" height="14.3213" fill="#191919"/>
</g>
<mask id="mask4_5888_10785" style="mask-type:luminance" maskUnits="userSpaceOnUse" x="11" y="66" width="123" height="27">
<path d="M133.34 92.6934H11.929V66.6091H133.34V92.6934Z" fill="white"/>
</mask>
<g mask="url(#mask4_5888_10785)">
<path d="M133.34 92.6934H11.929V66.6091H133.34V92.6934Z" fill="url(#paint4_linear_5888_10785)"/>
<path d="M124.728 81.906C124.259 81.906 123.846 81.7967 123.488 81.578C123.136 81.3594 122.859 81.0474 122.656 80.642C122.459 80.2367 122.36 79.7487 122.36 79.178C122.36 78.6127 122.459 78.13 122.656 77.73C122.859 77.33 123.136 77.026 123.488 76.818C123.846 76.6047 124.259 76.498 124.728 76.498C125.198 76.498 125.611 76.6047 125.968 76.818C126.326 77.026 126.603 77.33 126.8 77.73C126.998 78.13 127.096 78.6127 127.096 79.178C127.096 79.7487 126.998 80.2367 126.8 80.642C126.603 81.0474 126.326 81.3594 125.968 81.578C125.611 81.7967 125.198 81.906 124.728 81.906ZM124.728 80.89C124.968 80.89 125.174 80.8207 125.344 80.682C125.52 80.538 125.654 80.338 125.744 80.082C125.84 79.826 125.888 79.5247 125.888 79.178C125.888 78.8314 125.84 78.5354 125.744 78.29C125.654 78.0394 125.52 77.85 125.344 77.722C125.174 77.5887 124.968 77.522 124.728 77.522C124.494 77.522 124.288 77.5887 124.112 77.722C123.936 77.85 123.8 78.0394 123.704 78.29C123.614 78.5354 123.568 78.8314 123.568 79.178C123.568 79.5247 123.614 79.826 123.704 80.082C123.8 80.338 123.936 80.538 124.112 80.682C124.288 80.8207 124.494 80.89 124.728 80.89Z" fill="white"/>
<path d="M119.398 81.8102V77.5862H117.966V76.5942H122.014V77.5862H120.582V81.8102H119.398Z" fill="white"/>
<path d="M113.718 81.8102L115.35 76.5942H116.758L118.398 81.8102H117.15L116.47 79.1702C116.395 78.9089 116.323 78.6316 116.254 78.3382C116.184 78.0449 116.115 77.7622 116.046 77.4902H116.014C115.955 77.7622 115.891 78.0449 115.822 78.3382C115.752 78.6316 115.68 78.9089 115.606 79.1702L114.918 81.8102H113.718ZM114.79 80.5702V79.6502H117.302V80.5702H114.79Z" fill="white"/>
<path d="M109.741 81.8102V81.0982L112.045 77.5862H109.957V76.5942H113.493V77.3062L111.189 80.8182H113.517V81.8102H109.741Z" fill="white"/>
<path d="M105.507 81.8102V81.0982L107.811 77.5862H105.723V76.5942H109.259V77.3062L106.955 80.8182H109.283V81.8102H105.507Z" fill="white"/>
<path d="M103.429 81.8102V76.5942H104.605V81.8102H103.429Z" fill="white"/>
<path d="M98.5225 81.8102V76.5942H100.402C100.77 76.5942 101.106 76.6449 101.41 76.7462C101.714 76.8422 101.957 77.0102 102.138 77.2502C102.32 77.4849 102.41 77.8076 102.41 78.2182C102.41 78.6182 102.32 78.9436 102.138 79.1942C101.957 79.4449 101.714 79.6316 101.41 79.7542C101.106 79.8716 100.77 79.9302 100.402 79.9302H99.6985V81.8102H98.5225ZM99.6985 78.9942H100.306C100.616 78.9942 100.85 78.9302 101.01 78.8022C101.176 78.6689 101.258 78.4742 101.258 78.2182C101.258 77.9622 101.176 77.7836 101.01 77.6822C100.85 77.5809 100.616 77.5302 100.306 77.5302H99.6985V78.9942ZM101.346 81.8102L100.186 79.6262L101.002 78.8662L102.666 81.8102H101.346Z" fill="white"/>
<path d="M95.1737 81.906C94.7043 81.906 94.291 81.7967 93.9337 81.578C93.5817 81.3594 93.3043 81.0474 93.1017 80.642C92.9043 80.2367 92.8057 79.7487 92.8057 79.178C92.8057 78.6127 92.9043 78.13 93.1017 77.73C93.3043 77.33 93.5817 77.026 93.9337 76.818C94.291 76.6047 94.7043 76.498 95.1737 76.498C95.643 76.498 96.0563 76.6047 96.4137 76.818C96.771 77.026 97.0483 77.33 97.2457 77.73C97.443 78.13 97.5417 78.6127 97.5417 79.178C97.5417 79.7487 97.443 80.2367 97.2457 80.642C97.0483 81.0474 96.771 81.3594 96.4137 81.578C96.0563 81.7967 95.643 81.906 95.1737 81.906ZM95.1737 80.89C95.4137 80.89 95.619 80.8207 95.7897 80.682C95.9657 80.538 96.099 80.338 96.1897 80.082C96.2857 79.826 96.3337 79.5247 96.3337 79.178C96.3337 78.8314 96.2857 78.5354 96.1897 78.29C96.099 78.0394 95.9657 77.85 95.7897 77.722C95.619 77.5887 95.4137 77.522 95.1737 77.522C94.939 77.522 94.7337 77.5887 94.5577 77.722C94.3817 77.85 94.2457 78.0394 94.1497 78.29C94.059 78.5354 94.0137 78.8314 94.0137 79.178C94.0137 79.5247 94.059 79.826 94.1497 80.082C94.2457 80.338 94.3817 80.538 94.5577 80.682C94.7337 80.8207 94.939 80.89 95.1737 80.89Z" fill="white"/>
<path d="M89.8431 81.8102V77.5862H88.4111V76.5942H92.4591V77.5862H91.0271V81.8102H89.8431Z" fill="white"/>
<path d="M85.5629 81.9062C85.2215 81.9062 84.9202 81.8609 84.6589 81.7702C84.4029 81.6742 84.1869 81.5276 84.0109 81.3302C83.8349 81.1276 83.7015 80.8716 83.6109 80.5622C83.5202 80.2529 83.4749 79.8849 83.4749 79.4582V76.5942H84.6589V79.5782C84.6589 79.9036 84.6935 80.1622 84.7629 80.3542C84.8322 80.5409 84.9335 80.6769 85.0669 80.7622C85.2002 80.8476 85.3655 80.8902 85.5629 80.8902C85.7549 80.8902 85.9202 80.8476 86.0589 80.7622C86.1975 80.6769 86.3015 80.5409 86.3709 80.3542C86.4455 80.1622 86.4829 79.9036 86.4829 79.5782V76.5942H87.6189V79.4582C87.6189 79.8849 87.5735 80.2529 87.4829 80.5622C87.3975 80.8716 87.2669 81.1276 87.0909 81.3302C86.9202 81.5276 86.7069 81.6742 86.4509 81.7702C86.1949 81.8609 85.8989 81.9062 85.5629 81.9062Z" fill="white"/>
<path d="M78.3429 81.8102L79.9749 76.5942H81.3829L83.0229 81.8102H81.7749L81.0949 79.1702C81.0202 78.9089 80.9482 78.6316 80.8789 78.3382C80.8096 78.0449 80.7402 77.7622 80.6709 77.4902H80.6389C80.5802 77.7622 80.5162 78.0449 80.4469 78.3382C80.3776 78.6316 80.3056 78.9089 80.2309 79.1702L79.5429 81.8102H78.3429ZM79.4149 80.5702V79.6502H81.9269V80.5702H79.4149Z" fill="white"/>
<path d="M74.0566 81.906C73.5873 81.906 73.1739 81.7967 72.8166 81.578C72.4646 81.3594 72.1873 81.0474 71.9846 80.642C71.7873 80.2367 71.6886 79.7487 71.6886 79.178C71.6886 78.6127 71.7873 78.13 71.9846 77.73C72.1873 77.33 72.4646 77.026 72.8166 76.818C73.1739 76.6047 73.5873 76.498 74.0566 76.498C74.5259 76.498 74.9393 76.6047 75.2966 76.818C75.6539 77.026 75.9313 77.33 76.1286 77.73C76.3259 78.13 76.4246 78.6127 76.4246 79.178C76.4246 79.7487 76.3259 80.2367 76.1286 80.642C75.9313 81.0474 75.6539 81.3594 75.2966 81.578C74.9393 81.7967 74.5259 81.906 74.0566 81.906ZM74.0566 80.89C74.2966 80.89 74.5019 80.8207 74.6726 80.682C74.8486 80.538 74.9819 80.338 75.0726 80.082C75.1686 79.826 75.2166 79.5247 75.2166 79.178C75.2166 78.8314 75.1686 78.5354 75.0726 78.29C74.9819 78.0394 74.8486 77.85 74.6726 77.722C74.5019 77.5887 74.2966 77.522 74.0566 77.522C73.8219 77.522 73.6166 77.5887 73.4406 77.722C73.2646 77.85 73.1286 78.0394 73.0326 78.29C72.9419 78.5354 72.8966 78.8314 72.8966 79.178C72.8966 79.5247 72.9419 79.826 73.0326 80.082C73.1286 80.338 73.2646 80.538 73.4406 80.682C73.6166 80.8207 73.8219 80.89 74.0566 80.89Z" fill="white"/>
<path d="M69.5303 81.8102V76.5942H70.7063V81.8102H69.5303Z" fill="white"/>
<path d="M64.624 81.8102V76.5942H66.504C66.872 76.5942 67.208 76.6449 67.512 76.7462C67.816 76.8422 68.0587 77.0102 68.24 77.2502C68.4214 77.4849 68.512 77.8076 68.512 78.2182C68.512 78.6182 68.4214 78.9436 68.24 79.1942C68.0587 79.4449 67.816 79.6316 67.512 79.7542C67.208 79.8716 66.872 79.9302 66.504 79.9302H65.8V81.8102H64.624ZM65.8 78.9942H66.408C66.7174 78.9942 66.952 78.9302 67.112 78.8022C67.2774 78.6689 67.36 78.4742 67.36 78.2182C67.36 77.9622 67.2774 77.7836 67.112 77.6822C66.952 77.5809 66.7174 77.5302 66.408 77.5302H65.8V78.9942ZM67.448 81.8102L66.288 79.6262L67.104 78.8662L68.768 81.8102H67.448Z" fill="white"/>
<path d="M59.3741 81.8102L61.0061 76.5942H62.4141L64.0541 81.8102H62.8061L62.1261 79.1702C62.0515 78.9089 61.9795 78.6316 61.9101 78.3382C61.8408 78.0449 61.7715 77.7622 61.7021 77.4902H61.6701C61.6115 77.7622 61.5475 78.0449 61.4781 78.3382C61.4088 78.6316 61.3368 78.9089 61.2621 79.1702L60.5741 81.8102H59.3741ZM60.4461 80.5702V79.6502H62.9581V80.5702H60.4461Z" fill="white"/>
<path d="M57.6318 81.8102V76.5942H58.8078V81.8102H57.6318Z" fill="white"/>
<path d="M52.5537 81.8102V76.5942H54.0257C54.559 76.5942 55.0204 76.6849 55.4097 76.8662C55.8044 77.0476 56.1084 77.3302 56.3217 77.7142C56.535 78.0929 56.6417 78.5809 56.6417 79.1782C56.6417 79.7756 56.535 80.2689 56.3217 80.6582C56.1084 81.0476 55.8097 81.3382 55.4257 81.5302C55.047 81.7169 54.6044 81.8102 54.0977 81.8102H52.5537ZM53.7297 80.8582H53.9537C54.2524 80.8582 54.511 80.8049 54.7297 80.6982C54.9537 80.5916 55.127 80.4156 55.2497 80.1702C55.3724 79.9249 55.4337 79.5942 55.4337 79.1782C55.4337 78.7622 55.3724 78.4369 55.2497 78.2022C55.127 77.9622 54.9537 77.7942 54.7297 77.6982C54.511 77.5969 54.2524 77.5462 53.9537 77.5462H53.7297V80.8582Z" fill="white"/>
<path d="M48.1709 81.8102V76.5942H51.4349V77.5862H49.3469V78.6342H51.1229V79.6182H49.3469V80.8182H51.5149V81.8102H48.1709Z" fill="white"/>
<path d="M42.0771 81.8102V76.5942H43.3891L44.2211 78.9142C44.2745 79.0689 44.3225 79.2262 44.3651 79.3862C44.4131 79.5409 44.4611 79.7036 44.5091 79.8742H44.5411C44.5891 79.7036 44.6345 79.5409 44.6771 79.3862C44.7198 79.2262 44.7678 79.0689 44.8211 78.9142L45.6371 76.5942H46.9492V81.8102H45.8692V79.8982C45.8692 79.7276 45.8771 79.5276 45.8931 79.2982C45.9145 79.0636 45.9358 78.8316 45.9571 78.6022C45.9838 78.3676 46.0078 78.1649 46.0292 77.9942H45.9971L45.5731 79.3702L44.8371 81.3622H44.1491L43.4211 79.3702L43.0131 77.9942H42.9811C43.0025 78.1649 43.0238 78.3676 43.0451 78.6022C43.0718 78.8316 43.0931 79.0636 43.1091 79.2982C43.1251 79.5276 43.1332 79.7276 43.1332 79.8982V81.8102H42.0771Z" fill="white"/>
<path d="M37.1709 81.8102V76.5942H39.0509C39.4189 76.5942 39.7549 76.6449 40.0589 76.7462C40.3629 76.8422 40.6056 77.0102 40.7869 77.2502C40.9682 77.4849 41.0589 77.8076 41.0589 78.2182C41.0589 78.6182 40.9682 78.9436 40.7869 79.1942C40.6056 79.4449 40.3629 79.6316 40.0589 79.7542C39.7549 79.8716 39.4189 79.9302 39.0509 79.9302H38.3469V81.8102H37.1709ZM38.3469 78.9942H38.9549C39.2642 78.9942 39.4989 78.9302 39.6589 78.8022C39.8242 78.6689 39.9069 78.4742 39.9069 78.2182C39.9069 77.9622 39.8242 77.7836 39.6589 77.6822C39.4989 77.5809 39.2642 77.5302 38.9549 77.5302H38.3469V78.9942ZM39.9949 81.8102L38.8349 79.6262L39.6509 78.8662L41.3149 81.8102H39.9949Z" fill="white"/>
<path d="M32.7881 81.8102V76.5942H36.0521V77.5862H33.9641V78.6342H35.7401V79.6182H33.9641V80.8182H36.1321V81.8102H32.7881Z" fill="white"/>
<path d="M29.3588 81.8102V77.5862H27.9268V76.5942H31.9748V77.5862H30.5428V81.8102H29.3588Z" fill="white"/>
<path d="M23.0225 81.8102V76.5942H24.2545L25.5905 79.1622C25.6865 79.3382 25.7745 79.5276 25.8545 79.7302C25.9398 79.9276 26.0225 80.1302 26.1025 80.3382H26.1345C26.1078 80.0556 26.0758 79.7462 26.0385 79.4102C26.0011 79.0742 25.9825 78.7516 25.9825 78.4422V76.5942H27.1105V81.8102H25.8785L24.5425 79.2422C24.4518 79.0662 24.3611 78.8769 24.2705 78.6742C24.1851 78.4716 24.1025 78.2689 24.0225 78.0662H23.9905C24.0225 78.3542 24.0571 78.6662 24.0945 79.0022C24.1318 79.3329 24.1505 79.6529 24.1505 79.9622V81.8102H23.0225Z" fill="white"/>
<path d="M20.6162 81.8102V76.5942H21.7922V81.8102H20.6162Z" fill="white"/>
</g>
<path d="M65.4049 95.785C65.4776 95.5508 65.7944 95.5508 65.8671 95.785L66.2907 97.1489C66.3232 97.2536 66.4165 97.3246 66.5218 97.3246H67.8925C68.1279 97.3246 68.2258 97.6397 68.0354 97.7845L66.9264 98.6274C66.8412 98.6921 66.8056 98.8068 66.8381 98.9116L67.2617 100.275C67.3345 100.51 67.0782 100.704 66.8878 100.56L65.7788 99.7168C65.6937 99.652 65.5783 99.652 65.4932 99.7168L64.3842 100.56C64.1938 100.704 63.9375 100.51 64.0103 100.275L64.4338 98.9116C64.4664 98.8068 64.4307 98.6921 64.3456 98.6274L63.2366 97.7845C63.0462 97.6397 63.1441 97.3246 63.3795 97.3246H64.7502C64.8555 97.3246 64.9488 97.2536 64.9813 97.1489L65.4049 95.785Z" fill="url(#paint5_linear_5888_10785)"/>
<path d="M80.4049 95.785C80.4776 95.5508 80.7944 95.5508 80.8671 95.785L81.2907 97.1489C81.3232 97.2536 81.4165 97.3246 81.5218 97.3246H82.8925C83.1279 97.3246 83.2258 97.6397 83.0354 97.7845L81.9264 98.6274C81.8412 98.6921 81.8056 98.8068 81.8381 98.9116L82.2617 100.275C82.3345 100.51 82.0782 100.704 81.8878 100.56L80.7788 99.7168C80.6937 99.652 80.5783 99.652 80.4932 99.7168L79.3842 100.56C79.1938 100.704 78.9375 100.51 79.0103 100.275L79.4338 98.9116C79.4664 98.8068 79.4307 98.6921 79.3456 98.6274L78.2366 97.7845C78.0462 97.6397 78.1441 97.3246 78.3795 97.3246H79.7502C79.8555 97.3246 79.9488 97.2536 79.9813 97.1489L80.4049 95.785Z" fill="url(#paint6_linear_5888_10785)"/>
<path d="M72.8587 96.8202C72.9459 96.5391 73.326 96.5391 73.4133 96.8202L73.9216 98.4568C73.9607 98.5825 74.0726 98.6676 74.1989 98.6676H75.8438C76.1263 98.6676 76.2438 99.0458 76.0152 99.2195L74.6845 100.231C74.5823 100.309 74.5395 100.446 74.5786 100.572L75.0869 102.209C75.1741 102.49 74.8667 102.723 74.6381 102.55L73.3074 101.538C73.2052 101.461 73.0668 101.461 72.9646 101.538L71.6339 102.55C71.4053 102.723 71.0978 102.49 71.1851 102.209L71.6934 100.572C71.7325 100.446 71.6897 100.309 71.5875 100.231L70.2567 99.2195C70.0282 99.0458 70.1457 98.6676 70.4281 98.6676H72.073C72.1994 98.6676 72.3113 98.5825 72.3504 98.4568L72.8587 96.8202Z" fill="url(#paint7_linear_5888_10785)"/>
<path d="M72.5002 33.6094C72.7398 33.6094 72.9794 33.6624 73.193 33.7631L83.0054 37.9998C84.1513 38.4929 85.0054 39.6435 85.0002 41.0328C84.9742 46.2928 82.8492 55.9167 73.87 60.2912C73.0002 60.7154 71.9898 60.7154 71.1252 60.2912C62.1461 55.9167 60.0263 46.2981 60.0003 41.0328C59.9951 39.6435 60.8492 38.4929 61.9951 37.9998L71.8023 33.7631C72.0159 33.6624 72.2555 33.6094 72.5002 33.6094ZM77.2346 42.3372C76.6773 41.9236 75.8961 42.0509 75.4898 42.6182L71.0315 48.8592L69.6513 47.4063C69.1721 46.9026 68.3805 46.8867 67.8857 47.3745C67.3909 47.8623 67.3753 48.6683 67.8544 49.172L70.2711 51.7172C70.5263 51.9876 70.8857 52.1308 71.2555 52.1043C71.6252 52.0778 71.9638 51.8869 72.1825 51.5846L77.5107 44.1135C77.9169 43.5461 77.7919 42.7508 77.2346 42.3372Z" fill="url(#paint8_linear_5888_10785)"/>
<path d="M110.798 100.259L108.487 98.0555L108.689 97.8437L111 100.047L110.798 100.259ZM108.025 97.4219C107.976 97.4733 107.917 97.4998 107.848 97.5014C107.776 97.5 107.711 97.4718 107.653 97.4167C107.595 97.3616 107.567 97.3011 107.569 97.2352C107.567 97.1662 107.591 97.106 107.64 97.0547C107.692 97.0001 107.751 96.9736 107.817 96.9752C107.883 96.9705 107.944 96.9957 108.002 97.0507C108.06 97.1058 108.091 97.1694 108.096 97.2414C108.101 97.3072 108.077 97.3673 108.025 97.4219Z" fill="black"/>
<path d="M109.31 101.756L107.065 99.4855L107.245 99.3078L107.68 99.71L107.694 99.696C107.629 99.4855 107.607 99.2831 107.627 99.0888C107.647 98.8882 107.726 98.7193 107.865 98.582C107.906 98.5415 107.947 98.5072 107.988 98.4792C108.032 98.4481 108.082 98.4233 108.139 98.4048L108.26 98.6407C108.219 98.6624 108.183 98.6857 108.151 98.7106C108.12 98.7293 108.08 98.762 108.033 98.8088C107.932 98.9086 107.869 99.0587 107.842 99.2593C107.816 99.4536 107.865 99.7016 107.989 100.003L109.519 101.55L109.31 101.756Z" fill="black"/>
<path d="M107.473 103.553C107.348 103.666 107.211 103.746 107.064 103.795C106.92 103.841 106.774 103.844 106.626 103.805C106.474 103.762 106.333 103.668 106.203 103.523C105.963 103.255 105.906 102.943 106.032 102.585C106.155 102.225 106.453 101.777 106.928 101.244C106.818 101.122 106.697 101.016 106.563 100.928C106.433 100.836 106.294 100.791 106.147 100.792C105.999 100.787 105.846 100.856 105.688 100.998C105.53 101.141 105.413 101.302 105.337 101.484C105.258 101.661 105.203 101.816 105.171 101.946L104.934 101.881C104.952 101.788 104.984 101.678 105.032 101.552C105.076 101.422 105.14 101.291 105.223 101.157C105.308 101.02 105.416 100.894 105.544 100.779C105.729 100.613 105.913 100.522 106.096 100.507C106.282 100.489 106.461 100.528 106.631 100.625C106.805 100.719 106.968 100.85 107.119 101.019L108.484 102.538L108.296 102.707L108 102.418L107.985 102.431C107.953 102.634 107.898 102.838 107.821 103.044C107.744 103.244 107.628 103.414 107.473 103.553ZM107.339 103.325C107.474 103.203 107.577 103.055 107.646 102.879C107.715 102.698 107.768 102.478 107.804 102.219L107.084 101.417C106.79 101.747 106.576 102.031 106.444 102.268C106.309 102.503 106.242 102.704 106.242 102.87C106.243 103.037 106.299 103.182 106.412 103.308C106.563 103.476 106.721 103.552 106.885 103.536C107.053 103.517 107.204 103.446 107.339 103.325Z" fill="black"/>
<path d="M105.739 104.941L103.728 102.461L103.955 102.277L105.967 104.757L105.739 104.941ZM103.351 101.774C103.295 101.818 103.234 101.837 103.165 101.83C103.094 101.819 103.033 101.783 102.982 101.721C102.932 101.659 102.912 101.595 102.922 101.53C102.929 101.462 102.96 101.405 103.015 101.36C103.074 101.313 103.136 101.294 103.201 101.304C103.267 101.308 103.325 101.34 103.375 101.402C103.425 101.464 103.448 101.531 103.444 101.604C103.44 101.669 103.409 101.726 103.351 101.774Z" fill="black"/>
<path d="M103.747 106.551C103.426 106.789 103.082 106.864 102.715 106.778C102.35 106.689 102.009 106.429 101.689 105.998C101.483 105.72 101.358 105.443 101.313 105.167C101.269 104.885 101.292 104.625 101.381 104.388C101.474 104.148 101.622 103.953 101.825 103.802C101.982 103.686 102.139 103.611 102.296 103.577C102.453 103.543 102.632 103.532 102.833 103.543L102.474 103.081L101.69 102.022L101.925 101.848L104.774 105.69L104.57 105.841L104.303 105.526L104.287 105.537C104.261 105.717 104.206 105.901 104.125 106.089C104.044 106.27 103.918 106.424 103.747 106.551ZM103.624 106.319C103.767 106.213 103.876 106.077 103.951 105.911C104.028 105.738 104.083 105.534 104.118 105.298L102.989 103.775C102.764 103.755 102.574 103.763 102.42 103.8C102.265 103.837 102.124 103.904 101.995 103.999C101.824 104.125 101.708 104.289 101.647 104.489C101.585 104.689 101.578 104.907 101.626 105.142C101.674 105.371 101.779 105.595 101.94 105.812C102.191 106.15 102.468 106.37 102.769 106.472C103.069 106.571 103.354 106.52 103.624 106.319Z" fill="black"/>
<path d="M101.231 108.302C101 108.451 100.755 108.53 100.497 108.538C100.238 108.546 99.9857 108.482 99.7394 108.345C99.4906 108.205 99.2725 107.989 99.0852 107.698C98.8955 107.404 98.7893 107.116 98.7666 106.835C98.7416 106.551 98.7806 106.296 98.8838 106.071C98.9883 105.841 99.1412 105.66 99.3426 105.531C99.5551 105.394 99.769 105.324 99.9843 105.323C100.203 105.319 100.414 105.384 100.616 105.517C100.816 105.647 101.001 105.845 101.171 106.109C101.191 106.139 101.21 106.174 101.231 106.213C101.252 106.247 101.271 106.285 101.288 106.327L99.2578 107.635L99.1209 107.422L100.933 106.255C100.712 105.912 100.477 105.702 100.227 105.626C99.9746 105.545 99.7274 105.583 99.4851 105.739C99.3359 105.836 99.2181 105.972 99.1317 106.149C99.0453 106.326 99.0131 106.534 99.0352 106.773C99.0586 107.006 99.1567 107.257 99.3297 107.525C99.4882 107.771 99.671 107.957 99.8782 108.082C100.083 108.203 100.293 108.263 100.508 108.261C100.721 108.256 100.923 108.192 101.113 108.07C101.258 107.976 101.379 107.872 101.474 107.758C101.571 107.638 101.644 107.514 101.694 107.387L101.906 107.496C101.847 107.634 101.77 107.771 101.673 107.907C101.576 108.043 101.429 108.175 101.231 108.302Z" fill="black"/>
<path d="M95.4315 111.468L93.9324 108.649L94.1556 108.53L94.4102 108.952L94.4278 108.943C94.4761 108.731 94.5516 108.538 94.6543 108.363C94.7589 108.182 94.8895 108.05 95.0462 107.966C95.2772 107.843 95.4796 107.804 95.6533 107.847C95.8288 107.884 95.9888 107.977 96.1334 108.127C96.1982 107.861 96.2819 107.636 96.3844 107.451C96.4908 107.263 96.6243 107.127 96.7848 107.042C97.0668 106.892 97.3261 106.87 97.5629 106.975C97.7975 107.076 98.0117 107.309 98.2053 107.673L99.1672 109.482L98.9029 109.623L97.9597 107.849C97.7994 107.547 97.6309 107.353 97.4541 107.266C97.2792 107.173 97.082 107.185 96.8627 107.302C96.7296 107.373 96.6185 107.489 96.5293 107.652C96.438 107.811 96.3609 108.021 96.298 108.28L97.4286 110.406L97.1701 110.544L96.2269 108.77C96.0666 108.468 95.8981 108.274 95.7213 108.187C95.5425 108.097 95.3434 108.11 95.1241 108.226C94.8735 108.359 94.6852 108.686 94.5593 109.205L95.6899 111.331L95.4315 111.468Z" fill="black"/>
<path d="M93.5232 112.369L92.2158 109.456L92.4465 109.352L92.7131 109.882L92.7314 109.873C92.7445 109.654 92.7945 109.456 92.8812 109.281C92.9702 109.1 93.1036 108.97 93.2817 108.89C93.3343 108.866 93.3847 108.849 93.4328 108.837C93.485 108.823 93.5408 108.817 93.6003 108.82L93.6309 109.083C93.585 109.089 93.5429 109.098 93.5047 109.111C93.4687 109.117 93.4204 109.134 93.3597 109.161C93.2302 109.219 93.118 109.338 93.0232 109.516C92.9306 109.689 92.8894 109.939 92.8996 110.265L93.7903 112.249L93.5232 112.369Z" fill="black"/>
<path d="M91.692 113.19C91.435 113.288 91.1792 113.314 90.9247 113.269C90.6701 113.223 90.4364 113.108 90.2237 112.923C90.0094 112.734 89.8407 112.478 89.7176 112.155C89.5929 111.828 89.5485 111.524 89.5845 111.245C89.6188 110.961 89.7097 110.72 89.8572 110.522C90.0072 110.317 90.1941 110.173 90.4179 110.087C90.6542 109.997 90.8778 109.974 91.0887 110.017C91.3039 110.058 91.4965 110.165 91.6666 110.338C91.8351 110.506 91.9754 110.738 92.0874 111.032C92.1001 111.065 92.1122 111.103 92.1238 111.146C92.138 111.183 92.1489 111.224 92.1564 111.269L89.8996 112.128L89.8097 111.892L91.824 111.125C91.6787 110.744 91.4919 110.49 91.2634 110.363C91.0333 110.233 90.7835 110.219 90.5141 110.321C90.3483 110.384 90.2048 110.494 90.0836 110.649C89.9624 110.804 89.8879 111.001 89.8601 111.239C89.8348 111.472 89.8789 111.738 89.9926 112.036C90.0968 112.31 90.2373 112.529 90.4141 112.694C90.5893 112.855 90.7824 112.957 90.9934 113C91.2028 113.039 91.4131 113.019 91.6245 112.938C91.7862 112.876 91.9254 112.8 92.0422 112.708C92.1617 112.61 92.259 112.504 92.3342 112.39L92.5195 112.54C92.4334 112.663 92.3289 112.781 92.2059 112.895C92.083 113.008 91.9117 113.106 91.692 113.19Z" fill="black"/>
<path d="M89.4863 113.978C89.1918 114.076 88.9639 114.059 88.8026 113.926C88.6414 113.792 88.5158 113.591 88.4261 113.322L87.7823 111.391L87.309 111.548L87.2374 111.334L87.7087 111.149L87.412 110.133L87.6518 110.053L87.9863 111.056L88.8636 110.764L88.9435 111.004L88.0663 111.296L88.7164 113.246C88.7809 113.44 88.8671 113.586 88.9751 113.686C89.0817 113.781 89.2381 113.794 89.4443 113.726C89.5032 113.706 89.56 113.68 89.6147 113.648C89.6722 113.61 89.7311 113.562 89.7914 113.505L89.9449 113.671C89.879 113.74 89.8061 113.801 89.7262 113.856C89.6462 113.911 89.5663 113.952 89.4863 113.978Z" fill="black"/>
<path d="M85.2335 115.152L84.4099 112.067L84.6542 112.002L84.8068 112.47L84.8261 112.465C84.9423 112.264 85.0703 112.09 85.2099 111.943C85.3527 111.79 85.5291 111.685 85.7391 111.629C86.0605 111.544 86.3224 111.579 86.525 111.736C86.7265 111.889 86.8804 112.165 86.9868 112.563L87.5152 114.543L87.2324 114.618L86.7142 112.677C86.6262 112.347 86.5058 112.12 86.3533 111.996C86.2038 111.866 86.0027 111.834 85.7499 111.902C85.5656 111.951 85.4117 112.045 85.288 112.184C85.1675 112.317 85.0365 112.506 84.8952 112.75L85.5163 115.077L85.2335 115.152Z" fill="black"/>
<path d="M83.7132 115.521L82.7417 111.246L83.0401 111.178L84.0116 115.453L83.7132 115.521Z" fill="black"/>
<path d="M80.8775 116.048L80.35 112.899L80.6386 112.851L81.1662 116L80.8775 116.048ZM80.3603 112.115C80.2903 112.126 80.2272 112.112 80.171 112.072C80.1141 112.028 80.0791 111.966 80.0659 111.887C80.0527 111.809 80.0665 111.743 80.1073 111.692C80.1473 111.635 80.2023 111.602 80.2723 111.59C80.3467 111.577 80.4098 111.592 80.4616 111.632C80.517 111.668 80.5513 111.725 80.5645 111.804C80.5777 111.883 80.5646 111.952 80.5253 112.013C80.4896 112.068 80.4346 112.102 80.3603 112.115Z" fill="black"/>
<path d="M79.7111 116.274C79.6231 116.286 79.5482 116.277 79.4866 116.249C79.4249 116.221 79.3739 116.172 79.3336 116.101C79.2977 116.03 79.2725 115.937 79.258 115.822L78.712 111.526L79.0024 111.489L79.5534 115.825C79.5629 115.9 79.5828 115.951 79.6131 115.978C79.6478 116.005 79.6872 116.016 79.7312 116.01C79.7444 116.009 79.7576 116.007 79.7708 116.005C79.7878 115.999 79.8092 115.992 79.8351 115.984L79.9172 116.208C79.8881 116.225 79.8562 116.238 79.8216 116.247C79.7919 116.26 79.7551 116.269 79.7111 116.274Z" fill="black"/>
<path d="M77.2638 118.018C76.9943 118.041 76.759 118.024 76.5581 117.966C76.3574 117.912 76.1983 117.824 76.0806 117.701C75.9633 117.582 75.8967 117.432 75.8808 117.251C75.8684 117.109 75.8983 116.969 75.9706 116.829C76.0429 116.689 76.1473 116.56 76.2838 116.441L76.2815 116.414C76.1977 116.373 76.1256 116.312 76.0652 116.233C76.0048 116.154 75.9692 116.052 75.9583 115.928C75.9459 115.787 75.9752 115.664 76.0462 115.56C76.1168 115.451 76.1853 115.37 76.2517 115.315L76.2494 115.288C76.1444 115.209 76.0433 115.097 75.9462 114.954C75.8487 114.807 75.7916 114.639 75.7749 114.449C75.7559 114.232 75.7876 114.036 75.87 113.859C75.9565 113.678 76.0796 113.534 76.2393 113.426C76.4031 113.314 76.5888 113.249 76.7964 113.23C76.8848 113.223 76.9651 113.224 77.0373 113.236C77.1136 113.242 77.1748 113.255 77.2209 113.273L78.3011 113.178L78.3227 113.423L77.5804 113.489L77.5828 113.515C77.687 113.586 77.7778 113.683 77.8553 113.805C77.9373 113.927 77.9862 114.078 78.0021 114.26C78.0211 114.476 77.9872 114.673 77.9004 114.85C77.8179 115.026 77.697 115.17 77.5377 115.282C77.3827 115.394 77.2015 115.459 76.9938 115.477C76.901 115.485 76.8073 115.482 76.7126 115.468C76.6175 115.45 76.5306 115.424 76.452 115.391C76.3904 115.45 76.3364 115.519 76.29 115.599C76.2432 115.674 76.2244 115.765 76.2337 115.871C76.2438 115.986 76.2945 116.081 76.3858 116.158C76.4812 116.23 76.6459 116.255 76.8801 116.235L77.5627 116.175C77.9205 116.143 78.1886 116.18 78.367 116.284C78.5494 116.384 78.6517 116.56 78.6738 116.812C78.6897 116.993 78.643 117.171 78.5336 117.345C78.4243 117.519 78.2614 117.667 78.045 117.789C77.829 117.914 77.5686 117.991 77.2638 118.018ZM76.9734 115.245C77.1192 115.232 77.2507 115.183 77.3678 115.097C77.4849 115.011 77.5752 114.898 77.6386 114.759C77.7061 114.615 77.7321 114.455 77.7166 114.278C77.6925 114.004 77.592 113.797 77.4149 113.657C77.2419 113.512 77.0427 113.449 76.8174 113.469C76.5921 113.489 76.4047 113.585 76.2552 113.759C76.1053 113.928 76.0424 114.149 76.0665 114.423C76.082 114.6 76.1333 114.753 76.2205 114.884C76.3116 115.009 76.4224 115.104 76.5527 115.168C76.683 115.233 76.8232 115.258 76.9734 115.245ZM77.276 117.776C77.5145 117.755 77.7165 117.697 77.8818 117.603C78.0519 117.512 78.1801 117.401 78.2665 117.268C78.3528 117.136 78.3901 117.004 78.3785 116.871C78.363 116.694 78.2878 116.574 78.1531 116.51C78.0232 116.45 77.839 116.431 77.6004 116.452L76.9178 116.512C76.8869 116.515 76.8335 116.515 76.7576 116.513C76.6817 116.51 76.601 116.504 76.5155 116.494C76.3783 116.604 76.2816 116.719 76.2254 116.84C76.1696 116.965 76.1467 117.085 76.1568 117.2C76.1743 117.399 76.2812 117.552 76.4777 117.659C76.6741 117.767 76.9402 117.806 77.276 117.776Z" fill="black"/>
<path d="M74.1541 116.744C73.8792 116.75 73.6293 116.69 73.4044 116.562C73.1794 116.435 72.9974 116.248 72.8584 116.003C72.7192 115.754 72.6454 115.456 72.637 115.11C72.6285 114.76 72.6877 114.459 72.8147 114.208C72.9416 113.952 73.1076 113.755 73.3127 113.617C73.5222 113.474 73.7466 113.4 73.9861 113.394C74.2388 113.388 74.4574 113.44 74.642 113.551C74.831 113.662 74.977 113.827 75.08 114.046C75.1828 114.261 75.238 114.526 75.2457 114.841C75.2465 114.876 75.2453 114.916 75.2419 114.961C75.2429 115 75.2395 115.043 75.2317 115.087L72.8176 115.146L72.8114 114.893L74.9662 114.841C74.9563 114.433 74.8646 114.131 74.6913 113.936C74.5179 113.736 74.2871 113.64 73.9989 113.647C73.8215 113.651 73.6498 113.706 73.4838 113.812C73.3178 113.918 73.182 114.079 73.0763 114.295C72.975 114.506 72.9282 114.771 72.936 115.09C72.9431 115.382 73.0025 115.636 73.1142 115.851C73.2258 116.061 73.3739 116.222 73.5585 116.332C73.7429 116.439 73.9482 116.489 74.1744 116.484C74.3473 116.48 74.5041 116.454 74.6449 116.406C74.7901 116.353 74.9171 116.286 75.026 116.204L75.1507 116.407C75.0286 116.494 74.8907 116.571 74.737 116.636C74.5834 116.702 74.389 116.738 74.1541 116.744Z" fill="black"/>
<path d="M70.3804 116.708C69.9816 116.691 69.6664 116.534 69.4346 116.236C69.2073 115.938 69.1047 115.52 69.127 114.984C69.1413 114.639 69.2179 114.344 69.3567 114.102C69.5001 113.855 69.6811 113.667 69.8995 113.538C70.1223 113.41 70.36 113.351 70.6126 113.361C70.8075 113.37 70.9768 113.41 71.1202 113.482C71.2637 113.555 71.4103 113.659 71.5601 113.794L71.5711 113.208L71.6257 111.892L71.9182 111.904L71.7198 116.683L71.4672 116.673L71.4577 116.26L71.4378 116.259C71.3039 116.382 71.1463 116.491 70.9648 116.585C70.7879 116.676 70.5931 116.716 70.3804 116.708ZM70.4311 116.45C70.6083 116.457 70.7786 116.42 70.9418 116.338C71.1096 116.252 71.2812 116.128 71.4566 115.967L71.5352 114.072C71.3731 113.915 71.2202 113.802 71.0765 113.734C70.9329 113.665 70.7813 113.628 70.6218 113.622C70.4091 113.613 70.2159 113.667 70.0424 113.784C69.8689 113.901 69.7266 114.066 69.6157 114.279C69.5094 114.487 69.4506 114.727 69.4394 114.997C69.4219 115.418 69.4986 115.763 69.6694 116.032C69.8404 116.297 70.0943 116.436 70.4311 116.45Z" fill="black"/>
<path d="M65.6096 116.3C65.359 116.268 65.132 116.173 64.9286 116.017C64.7303 115.857 64.5812 115.646 64.4813 115.382C64.3863 115.115 64.3614 114.808 64.4066 114.46C64.4524 114.108 64.5553 113.815 64.7155 113.581C64.88 113.348 65.0783 113.181 65.3104 113.082C65.5474 112.978 65.7913 112.943 66.042 112.976C66.2971 113.009 66.5238 113.105 66.7221 113.265C66.9211 113.421 67.0702 113.633 67.1695 113.9C67.2689 114.168 67.2957 114.478 67.2499 114.83C67.2047 115.177 67.0999 115.468 66.9353 115.701C66.7714 115.93 66.5731 116.097 66.3404 116.201C66.1083 116.3 65.8647 116.334 65.6096 116.3ZM65.6431 116.043C65.8586 116.071 66.0573 116.039 66.2393 115.946C66.4263 115.85 66.5819 115.702 66.7061 115.504C66.8303 115.305 66.9104 115.068 66.9464 114.79C66.9825 114.513 66.9658 114.263 66.8965 114.039C66.8278 113.811 66.7154 113.627 66.5593 113.486C66.4076 113.345 66.224 113.261 66.0085 113.233C65.7974 113.205 65.6006 113.24 65.418 113.337C65.2355 113.434 65.0796 113.584 64.9504 113.786C64.8262 113.985 64.7461 114.223 64.7101 114.5C64.674 114.777 64.6907 115.027 64.76 115.251C64.8337 115.475 64.9464 115.657 65.0981 115.798C65.2503 115.934 65.432 116.016 65.6431 116.043Z" fill="black"/>
<path d="M62.7818 115.863C62.5119 115.81 62.2805 115.699 62.0876 115.53C61.8999 115.358 61.7667 115.138 61.6881 114.869C61.6148 114.597 61.6117 114.29 61.679 113.946C61.7471 113.597 61.8707 113.312 62.0497 113.09C62.2332 112.868 62.4461 112.715 62.6884 112.631C62.9315 112.543 63.1793 112.524 63.4318 112.573C63.6494 112.616 63.8228 112.688 63.952 112.79C64.082 112.888 64.1904 113.004 64.277 113.139L64.0859 113.284C64.0132 113.171 63.9189 113.075 63.8028 112.999C63.6877 112.917 63.5496 112.861 63.3885 112.829C63.1753 112.788 62.9723 112.809 62.7795 112.893C62.5868 112.978 62.4178 113.114 62.2725 113.303C62.1315 113.492 62.0338 113.726 61.9793 114.004C61.9257 114.279 61.9241 114.529 61.9747 114.756C62.0296 114.984 62.1304 115.173 62.2772 115.323C62.4248 115.47 62.614 115.566 62.8447 115.611C63.0144 115.644 63.1771 115.644 63.3326 115.611C63.489 115.574 63.6275 115.513 63.748 115.428L63.8637 115.634C63.7084 115.734 63.5405 115.808 63.3597 115.854C63.179 115.9 62.9864 115.903 62.7818 115.863Z" fill="black"/>
<path d="M60.1525 115.223L60.9153 112.122L61.1995 112.192L60.4367 115.293L60.1525 115.223ZM61.2353 111.406C61.1664 111.389 61.1141 111.351 61.0784 111.292C61.0437 111.229 61.0359 111.159 61.055 111.081C61.074 111.004 61.1126 110.949 61.1705 110.918C61.2296 110.882 61.2935 110.873 61.3624 110.89C61.4356 110.908 61.488 110.946 61.5194 111.003C61.5561 111.058 61.565 111.124 61.5459 111.202C61.5269 111.279 61.4873 111.338 61.4272 111.378C61.3725 111.415 61.3085 111.424 61.2353 111.406Z" fill="black"/>
<path d="M56.7443 114.268L57.6253 111.199L57.8683 111.269L57.7581 111.749L57.7772 111.755C57.9802 111.643 58.1795 111.559 58.3752 111.504C58.5763 111.447 58.7813 111.448 58.9901 111.508C59.3099 111.6 59.5162 111.765 59.6091 112.004C59.7032 112.239 59.6934 112.554 59.5796 112.951L59.0142 114.92L58.7329 114.839L59.2872 112.908C59.3814 112.58 59.3952 112.323 59.3284 112.138C59.2671 111.95 59.1107 111.819 58.8592 111.747C58.6759 111.695 58.4955 111.696 58.3182 111.751C58.1463 111.803 57.937 111.898 57.6901 112.035L57.0256 114.349L56.7443 114.268Z" fill="black"/>
<path d="M54.151 113.43C53.9767 113.364 53.8159 113.275 53.6686 113.163C53.5229 113.046 53.4084 112.904 53.3251 112.735C53.2433 112.562 53.2029 112.355 53.2037 112.113C53.2103 111.87 53.2738 111.588 53.3942 111.268L54.3485 108.734L54.6349 108.842L53.6923 111.345C53.5563 111.706 53.499 112.009 53.5204 112.254C53.546 112.501 53.6262 112.697 53.761 112.842C53.8957 112.988 54.0586 113.097 54.2495 113.168C54.4487 113.243 54.649 113.272 54.8504 113.253C55.0519 113.234 55.2435 113.14 55.4255 112.972C55.6074 112.803 55.7663 112.538 55.9023 112.177L56.845 109.675L57.1127 109.775L56.1583 112.309C56.038 112.629 55.8977 112.882 55.7376 113.068C55.5831 113.251 55.4161 113.38 55.2363 113.455C55.0582 113.525 54.876 113.556 54.6896 113.547C54.509 113.536 54.3295 113.497 54.151 113.43Z" fill="black"/>
<path d="M49.3517 111.377C49.1251 111.265 48.9411 111.102 48.7994 110.888C48.6637 110.673 48.5914 110.424 48.5824 110.142C48.5793 109.859 48.6555 109.56 48.811 109.246C48.9685 108.928 49.1609 108.684 49.3884 108.515C49.6198 108.347 49.8614 108.254 50.1132 108.235C50.371 108.215 50.6131 108.26 50.8397 108.372C51.0702 108.487 51.2533 108.651 51.389 108.867C51.5266 109.079 51.599 109.328 51.606 109.613C51.6131 109.899 51.5379 110.2 51.3804 110.518C51.2249 110.832 51.0315 111.073 50.8 111.241C50.5706 111.404 50.329 111.497 50.0752 111.52C49.8234 111.539 49.5822 111.491 49.3517 111.377ZM49.4668 111.144C49.6616 111.241 49.86 111.275 50.0622 111.246C50.2704 111.216 50.4654 111.127 50.6473 110.979C50.8292 110.832 50.9822 110.633 51.1062 110.383C51.2302 110.132 51.2957 109.89 51.3027 109.656C51.3117 109.418 51.2653 109.207 51.1635 109.023C51.0656 108.841 50.9193 108.701 50.7245 108.605C50.5338 108.51 50.3363 108.479 50.1321 108.512C49.928 108.544 49.732 108.635 49.5441 108.785C49.3622 108.932 49.2092 109.131 49.0852 109.382C48.9612 109.632 48.8957 109.874 48.8887 110.108C48.8856 110.344 48.933 110.553 49.0309 110.736C49.1307 110.914 49.2761 111.05 49.4668 111.144Z" fill="black"/>
<path d="M46.5394 109.825L48.0823 107.029L48.3036 107.151L48.0409 107.682L48.0583 107.692C48.2419 107.57 48.4297 107.492 48.6218 107.456C48.8198 107.418 49.0043 107.446 49.1751 107.541C49.2256 107.569 49.27 107.598 49.3085 107.63C49.3508 107.663 49.3888 107.704 49.4225 107.753L49.2305 107.936C49.1981 107.903 49.1655 107.875 49.1327 107.852C49.1059 107.827 49.0634 107.798 49.0052 107.766C48.8809 107.697 48.7189 107.679 48.5191 107.711C48.3253 107.74 48.1012 107.857 47.8468 108.061L46.7957 109.966L46.5394 109.825Z" fill="black"/>
<path d="M45.4749 109.264C45.211 109.1 45.0785 108.914 45.0776 108.705C45.0767 108.496 45.151 108.27 45.3004 108.029L46.3719 106.298L45.9477 106.036L46.0667 105.843L46.5106 106.087L47.1013 105.208L47.3162 105.342L46.7595 106.241L47.5457 106.728L47.4127 106.943L46.6264 106.456L45.5444 108.204C45.4371 108.377 45.3797 108.537 45.3723 108.684C45.3673 108.827 45.4572 108.956 45.6419 109.07C45.6947 109.103 45.751 109.13 45.8108 109.151C45.8767 109.171 45.9511 109.186 46.0338 109.195L46.0045 109.42C45.9095 109.413 45.8154 109.396 45.7222 109.37C45.629 109.344 45.5466 109.308 45.4749 109.264Z" fill="black"/>
<path d="M43.2175 107.842C43.0117 107.703 42.8484 107.545 42.7277 107.367C42.6107 107.191 42.5337 107.008 42.4967 106.817L42.7333 106.752C42.779 106.923 42.8463 107.08 42.9352 107.226C43.0303 107.371 43.177 107.51 43.3755 107.644C43.5813 107.783 43.7723 107.837 43.9484 107.806C44.1269 107.771 44.2634 107.684 44.3577 107.545C44.4322 107.434 44.4599 107.322 44.4409 107.207C44.4281 107.092 44.3882 106.977 44.3212 106.862C44.2568 106.743 44.1855 106.631 44.1074 106.525C44.0037 106.385 43.9092 106.244 43.824 106.1C43.7412 105.953 43.6905 105.807 43.6717 105.66C43.6553 105.51 43.6968 105.362 43.7961 105.215C43.9277 105.02 44.1129 104.904 44.3518 104.867C44.5931 104.827 44.8498 104.899 45.1217 105.082C45.2724 105.184 45.3947 105.304 45.4886 105.443C45.5861 105.583 45.6554 105.726 45.6963 105.872L45.4635 105.931C45.4175 105.809 45.3585 105.695 45.2866 105.587C45.2146 105.48 45.1107 105.38 44.9747 105.288C44.7689 105.149 44.5829 105.096 44.4166 105.128C44.254 105.163 44.1318 105.241 44.0499 105.362C43.9828 105.461 43.9546 105.562 43.965 105.666C43.9816 105.768 44.0209 105.872 44.083 105.978C44.1451 106.084 44.2158 106.194 44.2951 106.306C44.3975 106.456 44.495 106.604 44.5876 106.753C44.6839 106.903 44.7407 107.057 44.7583 107.213C44.7782 107.366 44.7299 107.528 44.6132 107.701C44.5239 107.833 44.4058 107.933 44.259 108C44.1184 108.065 43.9565 108.087 43.7733 108.065C43.5939 108.046 43.4086 107.971 43.2175 107.842Z" fill="black"/>
<path d="M41.3837 106.465L43.2723 103.89L43.5083 104.063L41.6197 106.638L41.3837 106.465ZM43.8414 103.35C43.7841 103.308 43.7503 103.253 43.7398 103.185C43.732 103.113 43.7516 103.045 43.7988 102.981C43.8461 102.916 43.9025 102.881 43.968 102.874C44.0362 102.863 44.0989 102.879 44.1561 102.921C44.2169 102.966 44.2508 103.021 44.2577 103.086C44.2708 103.151 44.2537 103.215 44.2065 103.28C44.1593 103.344 44.1003 103.383 44.0295 103.397C43.9649 103.41 43.9022 103.395 43.8414 103.35Z" fill="black"/>
<path d="M38.6923 106.306C38.4816 106.136 38.3239 105.961 38.2192 105.78C38.1117 105.602 38.0582 105.428 38.0588 105.258C38.0565 105.091 38.1124 104.937 38.2265 104.795C38.3155 104.685 38.4345 104.604 38.5836 104.553C38.7327 104.502 38.8976 104.481 39.0784 104.49L39.095 104.47C39.0635 104.381 39.0534 104.288 39.0648 104.189C39.0762 104.09 39.1208 103.992 39.1987 103.895C39.2877 103.785 39.3939 103.717 39.5172 103.691C39.6434 103.661 39.7494 103.65 39.8353 103.656L39.852 103.636C39.8316 103.505 39.8359 103.355 39.8648 103.185C39.8965 103.011 39.9722 102.85 40.0918 102.701C40.2281 102.532 40.3871 102.412 40.5688 102.342C40.7567 102.272 40.9455 102.253 41.1352 102.286C41.3311 102.318 41.5102 102.4 41.6726 102.531C41.7417 102.586 41.7983 102.643 41.8424 102.702C41.8928 102.759 41.9283 102.811 41.949 102.856L42.7936 103.536L42.6392 103.728L42.0589 103.26L42.0422 103.281C42.0681 103.404 42.0666 103.537 42.0378 103.679C42.0124 103.824 41.9427 103.967 41.8286 104.108C41.6923 104.278 41.5316 104.396 41.3465 104.463C41.1648 104.533 40.9777 104.553 40.7852 104.524C40.5962 104.497 40.4206 104.418 40.2582 104.287C40.1857 104.229 40.1201 104.162 40.0614 104.086C40.0056 104.007 39.9608 103.928 39.9271 103.85C39.8419 103.85 39.755 103.862 39.6662 103.887C39.5803 103.909 39.5039 103.962 39.4372 104.045C39.3648 104.134 39.3351 104.239 39.3479 104.357C39.3669 104.475 39.4679 104.608 39.651 104.755L40.1847 105.185C40.4645 105.41 40.6325 105.622 40.6887 105.821C40.7511 106.019 40.703 106.217 40.5444 106.414C40.4304 106.555 40.2736 106.651 40.0739 106.701C39.8743 106.751 39.6544 106.745 39.4142 106.682C39.1713 106.624 38.9307 106.498 38.6923 106.306ZM40.4042 104.106C40.5182 104.198 40.6472 104.253 40.7912 104.272C40.9352 104.291 41.0783 104.273 41.2205 104.217C41.3689 104.16 41.4987 104.062 41.61 103.924C41.7824 103.71 41.8534 103.491 41.823 103.267C41.7988 103.042 41.6986 102.859 41.5224 102.717C41.3462 102.575 41.1442 102.515 40.9162 102.537C40.6911 102.555 40.4923 102.671 40.3198 102.885C40.2085 103.023 40.1392 103.169 40.1117 103.324C40.0904 103.477 40.1045 103.623 40.1539 103.759C40.2033 103.896 40.2868 104.011 40.4042 104.106ZM38.8684 106.14C39.055 106.291 39.2406 106.389 39.4254 106.435C39.6109 106.488 39.7805 106.496 39.9344 106.461C40.0883 106.425 40.207 106.356 40.2904 106.252C40.4017 106.114 40.4309 105.975 40.378 105.836C40.3257 105.703 40.2064 105.561 40.0198 105.411L39.4861 104.981C39.462 104.961 39.4233 104.925 39.3701 104.87C39.317 104.816 39.2631 104.756 39.2086 104.689C39.0334 104.673 38.8838 104.689 38.7596 104.738C38.6327 104.789 38.5331 104.86 38.4608 104.95C38.3356 105.105 38.3066 105.29 38.3738 105.503C38.441 105.717 38.6059 105.929 38.8684 106.14Z" fill="black"/>
<path d="M37.3294 103.238C37.1258 103.053 36.9865 102.837 36.9117 102.589C36.8369 102.342 36.8336 102.081 36.9019 101.808C36.9733 101.531 37.1251 101.265 37.3576 101.009C37.593 100.749 37.8434 100.572 38.1088 100.478C38.3772 100.38 38.6333 100.352 38.8771 100.393C39.1271 100.434 39.3408 100.535 39.5182 100.696C39.7054 100.866 39.8276 101.055 39.8848 101.262C39.9453 101.473 39.9372 101.693 39.8605 101.923C39.7867 102.149 39.644 102.379 39.4325 102.613C39.4086 102.639 39.3802 102.667 39.3471 102.697C39.3203 102.726 39.2887 102.755 39.2523 102.781L37.4638 101.159L37.6336 100.972L39.23 102.42C39.5042 102.118 39.6459 101.836 39.6552 101.575C39.6674 101.311 39.5668 101.082 39.3533 100.888C39.2219 100.769 39.0595 100.69 38.8662 100.653C38.6728 100.615 38.4635 100.638 38.2384 100.721C38.0195 100.804 37.8028 100.963 37.5882 101.2C37.3916 101.417 37.2596 101.641 37.1924 101.874C37.1282 102.103 37.1247 102.321 37.1819 102.529C37.2421 102.733 37.356 102.911 37.5235 103.063C37.6516 103.18 37.7831 103.269 37.918 103.331C38.0592 103.394 38.1976 103.432 38.3334 103.448L38.2835 103.681C38.1349 103.66 37.9823 103.62 37.8256 103.562C37.6689 103.504 37.5035 103.396 37.3294 103.238Z" fill="black"/>
<path d="M34.0002 99.8752L37.1346 96.8101L38.0137 97.709C38.2152 97.9151 38.3635 98.1206 38.4584 98.3255C38.5565 98.5336 38.5855 98.7409 38.5456 98.9475C38.5088 99.1509 38.3905 99.3503 38.1908 99.5457C38.0005 99.7317 37.7985 99.8455 37.5848 99.887C37.3743 99.9254 37.1597 99.8995 36.9412 99.8093C36.7289 99.7191 36.522 99.5709 36.3205 99.3648L35.6553 98.6847L34.2142 100.094L34.0002 99.8752ZM35.8361 98.5079L36.4454 99.131C36.7183 99.41 36.9815 99.5682 37.2351 99.6055C37.495 99.6429 37.7407 99.5485 37.9722 99.3221C38.2068 99.0926 38.2988 98.8569 38.2482 98.6148C38.2039 98.3729 38.0453 98.1123 37.7724 97.8333L37.1631 97.2102L35.8361 98.5079ZM35.6979 101.611L36.3311 99.252L36.5976 99.4008L35.9445 101.863L35.6979 101.611Z" fill="black"/>
<path d="M26.9754 58.2757L21.8515 57.1411L22.0089 56.4303L25.5987 55.3161C25.7924 55.2552 25.9928 55.2012 26.1999 55.1542C26.4017 55.106 26.6088 55.059 26.8211 55.0132L26.828 54.9819C26.559 54.9387 26.2841 54.897 26.0036 54.8567C25.7178 54.8153 25.4447 54.7658 25.1843 54.7081L22.5208 54.1183L22.6592 53.4935L27.7831 54.6281L27.6257 55.3388L24.0359 56.4531C23.8433 56.5088 23.6423 56.5653 23.433 56.6227C23.2247 56.675 23.0177 56.722 22.8118 56.7638L22.8049 56.795C23.0646 56.8307 23.3316 56.8707 23.6059 56.915C23.8812 56.9542 24.1569 57.0043 24.4329 57.0654L27.112 57.6586L26.9754 58.2757ZM28.8588 51.5074C28.7715 51.765 28.6557 51.9905 28.5115 52.1837C28.3638 52.3702 28.1818 52.5169 27.9654 52.6238C27.744 52.729 27.4815 52.7809 27.1779 52.7795C26.8743 52.778 26.5281 52.7114 26.1391 52.5797L23.1915 51.5814L23.4045 50.9525L26.3672 51.9559C26.7562 52.0876 27.0815 52.1415 27.343 52.1174C27.6012 52.0866 27.8073 52.0016 27.9615 51.8623C28.1123 51.7163 28.2245 51.5347 28.298 51.3175C28.3716 51.1003 28.3929 50.8879 28.3618 50.6803C28.3274 50.4659 28.2171 50.2681 28.0307 50.0867C27.8393 49.9037 27.5491 49.7463 27.1602 49.6145L24.1975 48.6112L24.4002 48.0126L27.3478 49.0108C27.7367 49.1425 28.0522 49.3 28.2942 49.4833C28.5379 49.6616 28.7157 49.8598 28.8277 50.0779C28.9346 50.2943 28.9891 50.5239 28.9913 50.7668C28.9885 51.008 28.9443 51.2548 28.8588 51.5074ZM29.9005 48.3942L25.1604 46.1418L25.521 45.3831L28.4829 45.6923C28.6694 45.71 28.8535 45.7326 29.0354 45.7599C29.2195 45.7825 29.4133 45.8096 29.6167 45.8413L29.6305 45.8124C29.4774 45.6747 29.3328 45.544 29.1968 45.4203C29.0607 45.2966 28.9257 45.1705 28.792 45.042L26.6815 42.9408L27.0386 42.1893L31.7786 44.4417L31.5108 45.0053L28.9023 43.7658C28.7627 43.6994 28.6084 43.6202 28.4395 43.5282C28.2707 43.4362 28.1043 43.3453 27.9403 43.2555C27.7737 43.1587 27.624 43.0698 27.4912 42.989L27.4774 43.0179L28.444 43.9289L30.4712 45.9816L30.2618 46.4224L27.3899 46.1472L26.0731 45.9732L26.0594 46.0021C26.206 46.054 26.3683 46.1164 26.5462 46.1892C26.7217 46.2548 26.8984 46.324 27.0764 46.3968C27.2544 46.4696 27.4133 46.5392 27.553 46.6055L30.1615 47.845L29.9005 48.3942ZM32.4601 43.186L27.9864 40.4424L29.5673 37.8645L30.0447 38.1573L28.8109 40.1691L30.2158 41.0307L31.2572 39.3326L31.7414 39.6295L30.7 41.3276L32.323 42.323L33.5987 40.243L34.0829 40.5399L32.4601 43.186ZM34.7224 39.631L30.5369 36.4651L31.5263 35.1572C31.7418 34.8722 31.9716 34.648 32.2154 34.4848C32.455 34.3183 32.7087 34.2393 32.9764 34.2479C33.2431 34.249 33.521 34.3589 33.8103 34.5777C34.091 34.79 34.2746 35.0292 34.3609 35.2951C34.4505 35.5568 34.4585 35.8337 34.3847 36.1256C34.3068 36.4144 34.16 36.7013 33.9444 36.9862L33.3556 37.7646L35.123 39.1015L34.7224 39.631ZM32.9218 37.4365L33.4527 36.7346C33.7004 36.4071 33.8243 36.1063 33.8243 35.8321C33.8201 35.5548 33.6819 35.3132 33.4097 35.1072C33.1375 34.9013 32.8801 34.8438 32.6376 34.9345C32.3908 35.022 32.1436 35.2295 31.8958 35.5571L31.365 36.2589L32.9218 37.4365ZM36.4598 37.3341L33.7205 36.9773L33.7534 36.3503L36.9135 36.7344L36.4598 37.3341ZM38.9157 34.6986C38.6174 35.0184 38.2699 35.2267 37.8733 35.3235C37.4803 35.4164 37.0682 35.393 36.6369 35.2533C36.2093 35.1096 35.7907 34.8468 35.3812 34.4649C34.9717 34.0829 34.6844 33.6872 34.5192 33.2779C34.3538 32.861 34.3077 32.4569 34.3809 32.0657C34.4538 31.667 34.6394 31.3077 34.9377 30.9879C35.2397 30.6642 35.5852 30.4541 35.9743 30.3575C36.3595 30.2573 36.7657 30.2753 37.1931 30.4114C37.6166 30.5438 38.0331 30.801 38.4425 31.183C38.852 31.565 39.1415 31.9663 39.3108 32.3868C39.4801 32.8073 39.5321 33.2168 39.4667 33.6153C39.4013 34.0138 39.2176 34.3749 38.9157 34.6986ZM38.4828 34.2948C38.6974 34.0647 38.8186 33.8057 38.8464 33.518C38.8777 33.2263 38.8201 32.9246 38.6734 32.6127C38.5228 32.2972 38.2876 31.9903 37.9678 31.692C37.6519 31.3973 37.3352 31.1894 37.0178 31.0684C36.7004 30.9474 36.3993 30.9144 36.1144 30.9696C35.8293 31.0173 35.5794 31.1561 35.3648 31.3862C35.1538 31.6124 35.0326 31.8714 35.0012 32.163C34.9659 32.451 35.0197 32.7492 35.1625 33.0574C35.3053 33.3656 35.5346 33.6671 35.8505 33.9618C36.1703 34.2601 36.4928 34.4734 36.818 34.6017C37.1393 34.7264 37.4444 34.7629 37.7331 34.7114C38.0219 34.6598 38.2718 34.521 38.4828 34.2948ZM42.4113 31.1758L39.1417 27.0708L40.1679 26.2534C40.5893 25.9178 41.007 25.7146 41.4211 25.6439C41.8352 25.5732 42.2366 25.6319 42.6252 25.8201C43.0146 26.0009 43.3821 26.3082 43.7276 26.7421C44.0732 27.1759 44.2955 27.6091 44.3945 28.0416C44.4944 28.4666 44.4673 28.8734 44.3132 29.2621C44.1591 29.6507 43.8756 30.0095 43.4626 30.3385L42.4113 31.1758ZM42.5917 30.3366L43.0611 29.9628C43.3823 29.707 43.5978 29.4296 43.7075 29.1309C43.814 28.8279 43.823 28.5139 43.7345 28.1889C43.6461 27.8638 43.4623 27.5261 43.1832 27.1757C42.9108 26.8336 42.626 26.5831 42.329 26.4242C42.032 26.2653 41.7289 26.2101 41.4198 26.2586C41.1074 26.3029 40.7905 26.453 40.4693 26.7088L40 27.0827L42.5917 30.3366ZM46.2905 28.1559L43.3418 23.8146L43.8911 23.4416L46.8398 27.7828L46.2905 28.1559ZM49.4357 26.2075L46.9456 21.5879L47.5301 21.2728L49.7507 25.3925L51.7718 24.303L52.0413 24.803L49.4357 26.2075ZM52.8789 24.4033L50.6861 19.6354L51.2894 19.3579L53.4822 24.1258L52.8789 24.4033ZM56.7024 22.9534C56.2935 23.1087 55.8867 23.1491 55.4819 23.0746C55.0802 22.9933 54.7151 22.7982 54.3868 22.4893C54.0584 22.1804 53.7929 21.7593 53.5903 21.2258C53.4407 20.8319 53.3586 20.458 53.344 20.1041C53.3344 19.7484 53.3877 19.4229 53.5038 19.1278C53.618 18.8277 53.783 18.5711 53.9987 18.3579C54.2194 18.1429 54.4868 17.9758 54.8009 17.8565C55.0951 17.7447 55.3796 17.7052 55.6544 17.7377C55.9342 17.7684 56.1751 17.8395 56.3772 17.951L56.1855 18.4602C56.0028 18.3699 55.8126 18.3195 55.6146 18.3091C55.4198 18.2918 55.2202 18.3219 55.0158 18.3996C54.7116 18.5151 54.4736 18.6996 54.3018 18.9531C54.133 19.1998 54.0406 19.4973 54.0246 19.8457C54.0067 20.1891 54.0744 20.5627 54.2278 20.9666C54.3849 21.3804 54.5826 21.7132 54.8209 21.965C55.0592 22.2168 55.3267 22.3805 55.6235 22.4561C55.9184 22.5266 56.223 22.5023 56.5371 22.383C56.7664 22.2959 56.9548 22.1758 57.1021 22.0229C57.2525 21.8631 57.3703 21.6701 57.4555 21.4437L57.9237 21.6852C57.8145 21.9834 57.6638 22.2403 57.4719 22.4558C57.278 22.6664 57.0215 22.8323 56.7024 22.9534ZM59.099 22.0178L57.737 16.9496L60.6574 16.1648L60.8027 16.7056L58.5236 17.3181L58.9513 18.9096L60.875 18.3927L61.0224 18.9412L59.0987 19.4582L59.5928 21.2969L61.9492 20.6637L62.0966 21.2122L59.099 22.0178ZM63.1866 20.9921L62.3261 15.8151L63.0443 15.6958L65.4182 18.61C65.5471 18.767 65.6719 18.9327 65.7929 19.1073C65.9129 19.2766 66.0338 19.4511 66.1556 19.6309L66.1872 19.6256C66.1268 19.3599 66.0629 19.0894 65.9955 18.8141C65.9273 18.5335 65.8713 18.2616 65.8275 17.9986L65.3802 15.3075L66.0116 15.2026L66.8721 20.3795L66.1539 20.4989L63.78 17.5847C63.6564 17.4268 63.5289 17.2615 63.3975 17.0887C63.2713 16.9151 63.1504 16.7405 63.0347 16.5651L63.0031 16.5704C63.067 16.8247 63.1296 17.0873 63.1909 17.3582C63.2574 17.6283 63.3138 17.9028 63.3602 18.1816L63.8101 20.8885L63.1866 20.9921ZM67.9425 20.2403L67.9191 19.841L70.4234 15.3988L67.9157 15.5458L67.883 14.9868L71.2213 14.7911L71.2442 15.1824L68.7318 19.6251L71.519 19.4617L71.5523 20.0287L67.9425 20.2403ZM71.8641 20.0127L73.821 14.8294L74.5726 14.8555L76.1655 20.1619L75.4619 20.1375L74.6443 17.1714C74.5585 16.8749 74.478 16.5813 74.4027 16.2905C74.3276 15.9944 74.2527 15.6929 74.1779 15.3861L74.1459 15.385C74.0554 15.6861 73.9625 15.9817 73.867 16.2719C73.7717 16.5568 73.6711 16.8441 73.5649 17.1339L72.5357 20.036L71.8641 20.0127ZM72.847 18.4458L72.8653 17.9181L75.2879 18.0022L75.2696 18.5299L72.847 18.4458ZM79.3765 20.6796C79.1079 20.6366 78.8815 20.5491 78.6974 20.417C78.5142 20.2796 78.3633 20.1258 78.2447 19.9556L78.6739 19.603C78.7598 19.741 78.8679 19.8582 78.9983 19.9547C79.134 20.0521 79.2808 20.1134 79.4388 20.1387C79.681 20.1775 79.9136 20.1418 80.1365 20.0317C80.3602 19.9163 80.5588 19.705 80.7322 19.3979C80.9117 19.0864 81.0466 18.6489 81.1368 18.0854C81.2034 17.6693 81.2143 17.3146 81.1695 17.0211C81.1255 16.7224 81.0311 16.4859 80.8862 16.3114C80.7465 16.1378 80.5556 16.0316 80.3133 15.9928C80.1501 15.9667 79.995 15.9905 79.8482 16.0642C79.7022 16.1326 79.5762 16.2448 79.4702 16.4006C79.3651 16.5512 79.2948 16.7371 79.2594 16.9583C79.2248 17.1742 79.2287 17.3693 79.271 17.5435C79.3195 17.7133 79.405 17.8539 79.5275 17.9654C79.651 18.0716 79.8154 18.1411 80.0208 18.174C80.184 18.2001 80.3715 18.1762 80.5832 18.102C80.7958 18.0227 81.007 17.8674 81.2168 17.6364L81.1583 18.1536C80.9718 18.3398 80.7579 18.4784 80.5165 18.5694C80.2759 18.6551 80.0477 18.6806 79.8317 18.6461C79.5421 18.5997 79.2986 18.5013 79.1012 18.3508C78.9039 18.2004 78.7658 18 78.6871 17.7498C78.6083 17.4995 78.5963 17.2032 78.6512 16.8609C78.7026 16.5397 78.8136 16.2685 78.984 16.0473C79.1606 15.8217 79.3726 15.6612 79.6201 15.5658C79.8685 15.4652 80.127 15.4364 80.3956 15.4794C80.6431 15.519 80.8641 15.6057 81.0588 15.7395C81.2587 15.8741 81.4185 16.0564 81.5384 16.2862C81.6643 16.5116 81.7449 16.7838 81.7803 17.1028C81.8217 17.4173 81.81 17.7773 81.7451 18.1828C81.6641 18.6883 81.5423 19.1117 81.3796 19.453C81.2169 19.7942 81.0284 20.0611 80.8139 20.2536C80.5994 20.4461 80.3679 20.5765 80.1193 20.6447C79.8769 20.7085 79.6292 20.7201 79.3765 20.6796ZM83.5059 21.5027C83.2419 21.437 83.0148 21.3449 82.8245 21.2261C82.6394 21.1086 82.4846 20.9795 82.3603 20.8387C82.2359 20.6978 82.1322 20.5511 82.0492 20.3986L82.4795 20.0604C82.591 20.253 82.7303 20.4333 82.8974 20.6012C83.0697 20.7705 83.3033 20.8917 83.5983 20.9651C83.8985 21.0397 84.165 21.018 84.3976 20.9C84.6303 20.782 84.7808 20.5858 84.849 20.3115C84.8978 20.1148 84.8886 19.9311 84.8211 19.7605C84.76 19.5859 84.6234 19.4283 84.411 19.2876C84.2039 19.1482 83.9036 19.0296 83.5103 18.9318L83.6319 18.4427C83.9838 18.5302 84.271 18.5576 84.4935 18.525C84.7211 18.4936 84.8956 18.4216 85.0171 18.3089C85.1398 18.191 85.223 18.0441 85.2668 17.8681C85.3272 17.6249 85.2972 17.414 85.1767 17.2357C85.0613 17.0586 84.8717 16.9373 84.6077 16.8717C84.4007 16.8202 84.1976 16.8192 83.9984 16.8686C83.7993 16.918 83.6086 16.9998 83.4264 17.1138L83.1851 16.6252C83.4217 16.4917 83.6706 16.3969 83.9318 16.3409C84.1943 16.2798 84.4704 16.2852 84.7603 16.3573C85.0501 16.4294 85.2941 16.5422 85.4922 16.6959C85.6903 16.8496 85.8283 17.035 85.9062 17.2522C85.9893 17.4707 85.9974 17.7145 85.9305 17.9837C85.8559 18.2839 85.7119 18.5091 85.4987 18.6594C85.2855 18.8098 85.0314 18.9032 84.7365 18.9399L84.7288 18.9709C84.9191 19.0677 85.0803 19.1929 85.2125 19.3467C85.3459 19.4953 85.4379 19.6665 85.4887 19.8605C85.5445 20.0557 85.5442 20.2672 85.4876 20.495C85.4142 20.79 85.2787 21.0256 85.081 21.2018C84.8846 21.3728 84.6481 21.4843 84.3713 21.5364C84.0946 21.5885 83.8061 21.5773 83.5059 21.5027ZM87.0741 22.5372C86.8169 22.4487 86.6089 22.3236 86.4502 22.1619C86.2933 21.9951 86.171 21.8177 86.0834 21.6296L86.5667 21.3559C86.6277 21.5066 86.7141 21.6407 86.826 21.7581C86.9429 21.8773 87.077 21.9629 87.2283 22.0149C87.4603 22.0947 87.6956 22.0995 87.934 22.0292C88.1743 21.9539 88.4061 21.7799 88.6297 21.5071C88.86 21.231 89.068 20.8231 89.2535 20.2834C89.3906 19.885 89.4622 19.5374 89.4684 19.2406C89.4763 18.9388 89.4239 18.6895 89.311 18.4928C89.2033 18.2978 89.0334 18.1604 88.8014 18.0806C88.645 18.0269 88.4882 18.0237 88.3309 18.0711C88.1753 18.1135 88.032 18.2024 87.9008 18.3377C87.7714 18.468 87.6702 18.6391 87.5974 18.8509C87.5263 19.0577 87.4966 19.2506 87.5084 19.4295C87.527 19.605 87.5871 19.7583 87.6887 19.8891C87.7921 20.0149 87.9421 20.1116 88.1388 20.1792C88.2952 20.233 88.484 20.2416 88.7053 20.2049C88.9283 20.1631 89.163 20.0465 89.4094 19.8548L89.263 20.3544C89.0474 20.5058 88.8128 20.6056 88.5594 20.6538C88.3076 20.697 88.0784 20.683 87.8716 20.6119C87.5942 20.5165 87.3712 20.3777 87.2026 20.1957C87.034 20.0136 86.9324 19.7925 86.8977 19.5324C86.8631 19.2724 86.9021 18.9784 87.0149 18.6506C87.1207 18.343 87.2765 18.0948 87.4824 17.9062C87.6951 17.7142 87.9315 17.5925 88.1917 17.541C88.4537 17.4845 88.7133 17.5004 88.9705 17.5889C89.2075 17.6704 89.4104 17.7938 89.5792 17.959C89.753 18.1259 89.8793 18.3329 89.9579 18.5799C90.0433 18.8236 90.076 19.1056 90.0561 19.4258C90.043 19.7428 89.9696 20.0954 89.8361 20.4838C89.6695 20.9679 89.4769 21.3642 89.2581 21.6724C89.0392 21.9807 88.8077 22.2112 88.5633 22.3641C88.319 22.5169 88.0686 22.6056 87.812 22.6302C87.5621 22.6514 87.3162 22.6204 87.0741 22.5372ZM90.2964 21.7188L90.4921 21.2543L92.1877 21.9688L91.992 22.4333L90.2964 21.7188ZM92.2299 24.4907L93.1393 23.1495L92.5764 22.8621L92.8057 22.4133L93.4113 22.7225L94.0598 21.7692L93.4684 21.4672L93.6976 21.0183L94.3389 21.3458L95.1647 20.1506L95.5922 20.3689L94.7664 21.5641L95.657 22.0188L96.4828 20.8237L96.9103 21.042L96.0844 22.2371L96.6544 22.5282L96.4252 22.9771L95.8125 22.6642L95.1568 23.6139L95.7625 23.9231L95.5333 24.372L94.8778 24.0373L93.9755 25.3821L93.548 25.1638L94.4503 23.819L93.5668 23.3678L92.6574 24.709L92.2299 24.4907ZM93.8388 22.9408L94.7294 23.3956L95.385 22.4459L94.4873 21.9874L93.8388 22.9408ZM95.7525 26.3626L98.5521 21.9237L99.8716 22.7559C100.169 22.9437 100.41 23.1462 100.595 23.3635C100.78 23.5808 100.884 23.8105 100.908 24.0525C100.939 24.2929 100.873 24.5417 100.711 24.7988C100.566 25.0289 100.382 25.1963 100.158 25.3011C99.9416 25.4043 99.7061 25.4228 99.4514 25.3567L99.4343 25.3838C99.6827 25.6098 99.8326 25.862 99.884 26.1404C99.9383 26.4142 99.8716 26.7 99.6838 26.9977C99.496 27.2955 99.2688 27.4958 99.0021 27.5987C98.7399 27.7045 98.4512 27.7273 98.136 27.6673C97.8236 27.6027 97.5005 27.4651 97.1667 27.2545L95.7525 26.3626ZM97.923 24.1658L98.5794 24.5798C98.9583 24.8188 99.2725 24.9255 99.5219 24.9C99.7713 24.8744 99.9672 24.7489 100.109 24.5233C100.274 24.2617 100.302 24.0235 100.191 23.8088C100.084 23.5895 99.8583 23.3718 99.5155 23.1556L98.8321 22.7245L97.923 24.1658ZM96.5958 26.2702L97.3672 26.7567C97.7506 26.9986 98.0924 27.1164 98.3927 27.1103C98.6957 27.0997 98.9411 26.9455 99.1289 26.6478C99.3025 26.3726 99.3253 26.1064 99.1975 25.8492C99.0725 25.5875 98.8138 25.3329 98.4213 25.0854L97.6499 24.5989L96.5958 26.2702ZM101.879 30.7842C101.485 30.4574 101.321 30.0238 101.388 29.4835C101.463 28.9425 101.772 28.3436 102.317 27.6867C102.865 27.0257 103.393 26.6147 103.901 26.4537C104.413 26.2961 104.865 26.3807 105.26 26.7075C105.65 27.0309 105.811 27.459 105.743 27.9918C105.683 28.5239 105.38 29.1184 104.836 29.7753C104.291 30.4322 103.758 30.8456 103.236 31.0155C102.721 31.1847 102.269 31.1076 101.879 30.7842ZM102.216 30.3778C102.368 30.5037 102.549 30.5569 102.759 30.5373C102.97 30.5176 103.206 30.4122 103.468 30.2211C103.735 30.0333 104.027 29.7486 104.343 29.3668C104.663 28.9809 104.889 28.6416 105.021 28.349C105.157 28.0598 105.211 27.8142 105.185 27.6122C105.162 27.406 105.074 27.2399 104.923 27.114C104.767 26.9846 104.585 26.9277 104.378 26.9432C104.175 26.9546 103.941 27.0521 103.678 27.2358C103.419 27.4228 103.13 27.7093 102.81 28.0952C102.493 28.477 102.265 28.8146 102.126 29.1078C101.991 29.4045 101.933 29.658 101.953 29.8683C101.972 30.0786 102.06 30.2484 102.216 30.3778ZM103.694 32.2002L103.975 31.9151C104.688 31.9131 105.306 31.9005 105.83 31.8774C106.362 31.8543 106.804 31.796 107.158 31.7026C107.512 31.6092 107.784 31.4656 107.975 31.2717C108.181 31.0626 108.292 30.8354 108.309 30.5901C108.326 30.3449 108.218 30.1081 107.986 29.88C107.834 29.7304 107.652 29.6338 107.441 29.5902C107.229 29.5467 107.009 29.5353 106.779 29.556L106.769 29.0413C107.089 29.0198 107.386 29.0419 107.658 29.1076C107.933 29.177 108.187 29.3258 108.419 29.554C108.644 29.7747 108.793 30.0111 108.866 30.2632C108.944 30.5115 108.948 30.7584 108.878 31.0041C108.808 31.2499 108.669 31.4792 108.459 31.692C108.227 31.9278 107.931 32.0961 107.57 32.1971C107.212 32.3018 106.794 32.3693 106.315 32.3996C105.837 32.4299 105.299 32.4512 104.704 32.4636C104.814 32.5494 104.924 32.6428 105.034 32.7438C105.148 32.8409 105.252 32.9362 105.347 33.0297L106.442 34.107L106.044 34.5119L103.694 32.2002ZM106.895 35.5728C106.809 35.4774 106.769 35.3637 106.772 35.2317C106.78 35.0962 106.837 34.9804 106.944 34.8844C107.06 34.7813 107.183 34.7353 107.315 34.7464C107.45 34.7539 107.561 34.8054 107.646 34.9008C107.735 35.0002 107.774 35.1157 107.763 35.2473C107.756 35.3753 107.694 35.4909 107.579 35.594C107.472 35.69 107.352 35.7362 107.22 35.7326C107.092 35.7255 106.984 35.6722 106.895 35.5728ZM108.775 37.8793C108.461 37.4752 108.394 37.0166 108.576 36.5034C108.766 35.9912 109.197 35.4731 109.87 34.949C110.548 34.4217 111.152 34.1341 111.683 34.0863C112.216 34.0427 112.64 34.2229 112.955 34.627C113.266 35.0269 113.331 35.4797 113.15 35.9854C112.977 36.492 112.553 37.0073 111.88 37.5314C111.206 38.0554 110.596 38.3441 110.05 38.3976C109.511 38.4519 109.086 38.2792 108.775 37.8793ZM109.192 37.5551C109.313 37.7108 109.478 37.8018 109.688 37.8279C109.898 37.8541 110.151 37.8021 110.449 37.672C110.749 37.5461 111.095 37.3309 111.487 37.0263C111.882 36.7184 112.176 36.4358 112.368 36.1785C112.563 35.9254 112.669 35.6973 112.687 35.4943C112.709 35.288 112.659 35.107 112.538 34.9513C112.414 34.7913 112.249 34.6966 112.043 34.6672C111.842 34.6345 111.593 34.6795 111.297 34.8021C111.004 34.9289 110.659 35.1462 110.264 35.4541C109.872 35.7587 109.577 36.0392 109.378 36.2956C109.182 36.5562 109.071 36.7912 109.044 37.0008C109.018 37.2104 109.067 37.3951 109.192 37.5551ZM110.412 39.9164L110.869 39.621L111.503 40.6018L114.661 38.5603L114.157 37.781L114.513 37.5508C114.673 37.7202 114.826 37.8629 114.97 37.9788C115.12 38.0918 115.268 38.1834 115.415 38.2535L115.689 38.6768L111.859 41.1527L112.433 42.0395L111.976 42.3349L110.412 39.9164ZM112.632 43.6428C112.569 43.5311 112.554 43.4112 112.586 43.2832C112.623 43.1525 112.705 43.052 112.83 42.9816C112.965 42.906 113.096 42.8879 113.222 42.9274C113.352 42.9642 113.449 43.0384 113.511 43.1501C113.577 43.2664 113.589 43.3876 113.55 43.5136C113.515 43.637 113.43 43.7365 113.295 43.8121C113.17 43.8825 113.043 43.9016 112.915 43.8694C112.791 43.8347 112.697 43.7591 112.632 43.6428ZM113.339 44.7493L113.7 44.5759C114.371 44.8152 114.957 45.0127 115.458 45.1683C115.966 45.3264 116.402 45.4214 116.767 45.4532C117.131 45.4851 117.436 45.442 117.681 45.3242C117.946 45.197 118.127 45.0209 118.226 44.7958C118.325 44.5707 118.304 44.3116 118.163 44.0184C118.07 43.8261 117.932 43.6737 117.748 43.5612C117.563 43.4486 117.36 43.3632 117.136 43.3049L117.301 42.8172C117.61 42.9054 117.881 43.0265 118.115 43.1804C118.351 43.3391 118.54 43.565 118.681 43.8582C118.817 44.1418 118.877 44.4146 118.861 44.6768C118.85 44.9366 118.77 45.1704 118.621 45.378C118.473 45.5856 118.264 45.7542 117.995 45.8836C117.697 46.0269 117.361 46.085 116.987 46.0577C116.615 46.0353 116.199 45.9573 115.738 45.8238C115.277 45.6903 114.764 45.5286 114.2 45.3386C114.274 45.4566 114.346 45.5818 114.416 45.714C114.49 45.844 114.556 45.9691 114.614 46.0892L115.279 47.4735L114.768 47.7196L113.339 44.7493ZM115.535 49.9411C115.355 49.462 115.428 49.0043 115.753 48.5682C116.086 48.1352 116.652 47.7683 117.45 47.4676C118.254 47.1651 118.916 47.0696 119.437 47.1813C119.96 47.298 120.311 47.5959 120.492 48.075C120.67 48.5492 120.598 49.0009 120.275 49.4302C119.959 49.8626 119.402 50.2291 118.603 50.5298C117.805 50.8305 117.137 50.9253 116.599 50.8143C116.068 50.7063 115.714 50.4153 115.535 49.9411ZM116.029 49.7551C116.099 49.9398 116.23 50.0757 116.422 50.1628C116.615 50.2499 116.872 50.2755 117.195 50.2395C117.519 50.2085 117.914 50.1056 118.378 49.9308C118.847 49.7542 119.211 49.5714 119.471 49.3826C119.732 49.1987 119.901 49.0125 119.978 48.8238C120.061 48.6333 120.067 48.4458 119.997 48.2611C119.926 48.0714 119.797 47.9321 119.609 47.8431C119.427 47.7522 119.176 47.7213 118.856 47.7504C118.539 47.7845 118.145 47.8899 117.676 48.0666C117.212 48.2414 116.847 48.4216 116.58 48.6074C116.316 48.7981 116.14 48.9896 116.053 49.182C115.966 49.3744 115.958 49.5654 116.029 49.7551ZM116.411 52.0714L116.796 51.9627C117.416 52.3142 117.959 52.6097 118.426 52.8493C118.899 53.0926 119.312 53.2614 119.666 53.3555C120.019 53.4497 120.327 53.4599 120.589 53.386C120.871 53.3063 121.08 53.1642 121.217 52.9595C121.353 52.7548 121.377 52.4959 121.288 52.1828C121.23 51.9775 121.12 51.8035 120.958 51.6608C120.796 51.5182 120.61 51.3989 120.4 51.303L120.647 50.8511C120.935 50.9912 121.182 51.1572 121.386 51.3491C121.591 51.5461 121.738 51.8011 121.826 52.1142C121.911 52.417 121.924 52.6962 121.863 52.9517C121.807 53.2057 121.688 53.4222 121.506 53.6011C121.324 53.78 121.089 53.91 120.801 53.9911C120.483 54.0809 120.142 54.0802 119.778 53.9889C119.416 53.9027 119.019 53.7542 118.588 53.5433C118.158 53.3323 117.68 53.0846 117.157 52.8002C117.21 52.9293 117.259 53.065 117.305 53.2072C117.356 53.3481 117.399 53.4826 117.435 53.611L117.853 55.0892L117.306 55.2435L116.411 52.0714ZM117.717 57.7116C117.67 57.4656 117.675 57.2282 117.734 56.9994C117.793 56.7707 117.907 56.5585 118.075 56.3628C118.25 56.1714 118.478 56.0022 118.759 55.8553C119.045 55.7074 119.39 55.5943 119.793 55.5161C120.296 55.4186 120.733 55.3881 121.104 55.4248C121.48 55.4604 121.796 55.5459 122.05 55.6813C122.305 55.8166 122.506 55.9867 122.654 56.1915C122.804 56.4016 122.903 56.6323 122.952 56.8836C123.004 57.1559 122.997 57.399 122.93 57.613C122.869 57.8313 122.777 58.0258 122.652 58.1967L122.182 57.9131C122.283 57.7903 122.353 57.6489 122.393 57.4891C122.438 57.3283 122.445 57.1694 122.414 57.0123C122.369 56.7767 122.255 56.5705 122.074 56.3937C121.894 56.2222 121.628 56.1082 121.274 56.0518C120.926 55.9944 120.472 56.02 119.912 56.1287C119.499 56.2089 119.159 56.3183 118.892 56.457C118.627 56.6008 118.437 56.7708 118.323 56.9667C118.214 57.1617 118.182 57.377 118.228 57.6126C118.259 57.7749 118.332 57.9129 118.447 58.0265C118.567 58.1443 118.716 58.2242 118.893 58.266C119.075 58.312 119.277 58.3137 119.497 58.271C119.711 58.2294 119.891 58.1593 120.034 58.0608C120.184 57.9612 120.287 57.8352 120.344 57.6828C120.407 57.5295 120.418 57.348 120.377 57.1386C120.346 56.9763 120.256 56.809 120.109 56.6366C119.967 56.4684 119.752 56.3228 119.461 56.1998L119.967 56.0772C120.208 56.1989 120.41 56.3554 120.572 56.5467C120.739 56.737 120.844 56.9394 120.885 57.1541C120.941 57.4421 120.932 57.7045 120.859 57.9416C120.785 58.1786 120.644 58.377 120.436 58.5369C120.229 58.702 119.956 58.8176 119.615 58.8836C119.296 58.9456 119.003 58.9318 118.736 58.8424C118.468 58.753 118.245 58.609 118.065 58.4103C117.885 58.2115 117.769 57.9787 117.717 57.7116Z" fill="#36500D"/>
<defs>
<linearGradient id="paint0_linear_5888_10785" x1="100.636" y1="15.1094" x2="51.636" y2="116.609" gradientUnits="userSpaceOnUse">
<stop stop-color="#B1E45E"/>
<stop offset="1" stop-color="#699324"/>
</linearGradient>
<linearGradient id="paint1_linear_5888_10785" x1="112.636" y1="55.6094" x2="31.636" y2="79.1094" gradientUnits="userSpaceOnUse">
<stop stop-color="#A7D856"/>
<stop offset="0.110577" stop-color="#A7D856"/>
<stop offset="0.850962" stop-color="#5D841E"/>
<stop offset="1" stop-color="#5D841E"/>
</linearGradient>
<linearGradient id="paint2_linear_5888_10785" x1="33.3271" y1="93.9571" x2="-5.23863" y2="93.9571" gradientUnits="userSpaceOnUse">
<stop stop-color="#191919"/>
<stop offset="0.136319" stop-color="#191919"/>
<stop offset="1" stop-color="#4F4D4D" stop-opacity="0.533333"/>
</linearGradient>
<linearGradient id="paint3_linear_5888_10785" x1="111.944" y1="93.9571" x2="150.51" y2="93.9571" gradientUnits="userSpaceOnUse">
<stop stop-color="#191919"/>
<stop offset="0.136319" stop-color="#191919"/>
<stop offset="1" stop-color="#4F4D4D" stop-opacity="0.53"/>
</linearGradient>
<linearGradient id="paint4_linear_5888_10785" x1="72.6343" y1="101.705" x2="72.6343" y2="65.0484" gradientUnits="userSpaceOnUse">
<stop stop-color="#191919"/>
<stop offset="0.136319" stop-color="#191919"/>
<stop offset="0.815522" stop-color="#4F4D4D"/>
<stop offset="1" stop-color="#4F4D4D"/>
</linearGradient>
<linearGradient id="paint5_linear_5888_10785" x1="65.636" y1="95.6094" x2="65.636" y2="100.609" gradientUnits="userSpaceOnUse">
<stop stop-color="#5C7B29"/>
<stop offset="0.134615" stop-color="#5C7B29"/>
<stop offset="0.879808" stop-color="#5D841E"/>
<stop offset="1" stop-color="#5D841E"/>
</linearGradient>
<linearGradient id="paint6_linear_5888_10785" x1="80.636" y1="95.6094" x2="80.636" y2="100.609" gradientUnits="userSpaceOnUse">
<stop stop-color="#5C7B29"/>
<stop offset="0.134615" stop-color="#5C7B29"/>
<stop offset="0.879808" stop-color="#5D841E"/>
<stop offset="1" stop-color="#5D841E"/>
</linearGradient>
<linearGradient id="paint7_linear_5888_10785" x1="73.136" y1="96.6094" x2="73.136" y2="102.609" gradientUnits="userSpaceOnUse">
<stop stop-color="#5C7B29"/>
<stop offset="0.134615" stop-color="#5C7B29"/>
<stop offset="0.879808" stop-color="#5D841E"/>
<stop offset="1" stop-color="#5D841E"/>
</linearGradient>
<linearGradient id="paint8_linear_5888_10785" x1="72.5002" y1="33.6094" x2="72.5002" y2="60.6094" gradientUnits="userSpaceOnUse">
<stop stop-color="#87B33D"/>
<stop offset="0.168269" stop-color="#87B33D"/>
<stop offset="0.841346" stop-color="#5D841E"/>
<stop offset="1" stop-color="#5D841E"/>
</linearGradient>
</defs>
</svg>
